<?xml version="1.0" encoding="UTF-8" standalone="no"?>
<!DOCTYPE svg PUBLIC "-//W3C//DTD SVG 1.1//EN"
 "http://www.w3.org/Graphics/SVG/1.1/DTD/svg11.dtd">
<!-- Generated by graphviz version 2.26.3 (20100126.1600)
 -->
<!-- Title: G Pages: 1 -->
<svg width="484pt" height="1770pt"
 viewBox="0.00 0.00 484.00 1770.00" xmlns="http://www.w3.org/2000/svg" xmlns:xlink="http://www.w3.org/1999/xlink">
<g id="graph1" class="graph" transform="scale(1 1) rotate(0) translate(4 1766)">
<title>G</title>
<polygon fill="white" stroke="white" points="-4,5 -4,-1766 481,-1766 481,5 -4,5"/>
<g id="graph2" class="cluster"><title>cluster_Global</title>
<polyline fill="none" stroke="gray" points="20,-44 456,-44 "/>
<path fill="none" stroke="gray" d="M456,-44C462,-44 468,-50 468,-56"/>
<polyline fill="none" stroke="gray" points="468,-56 468,-1742 "/>
<path fill="none" stroke="gray" d="M468,-1742C468,-1748 462,-1754 456,-1754"/>
<polyline fill="none" stroke="gray" points="456,-1754 20,-1754 "/>
<path fill="none" stroke="gray" d="M20,-1754C14,-1754 8,-1748 8,-1742"/>
<polyline fill="none" stroke="gray" points="8,-1742 8,-56 "/>
<path fill="none" stroke="gray" d="M8,-56C8,-50 14,-44 20,-44"/>
<text text-anchor="middle" x="238" y="-1740.1" font-family="Times Roman,serif" font-size="11.00" fill="gray">Global</text>
</g>
<g id="graph3" class="cluster"><title>cluster_\Karla</title>
<polyline fill="none" stroke="gray" points="28,-52 448,-52 "/>
<path fill="none" stroke="gray" d="M448,-52C454,-52 460,-58 460,-64"/>
<polyline fill="none" stroke="gray" points="460,-64 460,-1712 "/>
<path fill="none" stroke="gray" d="M460,-1712C460,-1718 454,-1724 448,-1724"/>
<polyline fill="none" stroke="gray" points="448,-1724 28,-1724 "/>
<path fill="none" stroke="gray" d="M28,-1724C22,-1724 16,-1718 16,-1712"/>
<polyline fill="none" stroke="gray" points="16,-1712 16,-64 "/>
<path fill="none" stroke="gray" d="M16,-64C16,-58 22,-52 28,-52"/>
<text text-anchor="middle" x="238" y="-1710.1" font-family="Times Roman,serif" font-size="11.00" fill="gray">Karla</text>
</g>
<g id="graph4" class="cluster"><title>cluster_\Karla\Program</title>
<polyline fill="none" stroke="gray" points="184,-1512 437,-1512 "/>
<path fill="none" stroke="gray" d="M437,-1512C443,-1512 449,-1518 449,-1524"/>
<polyline fill="none" stroke="gray" points="449,-1524 449,-1682 "/>
<path fill="none" stroke="gray" d="M449,-1682C449,-1688 443,-1694 437,-1694"/>
<polyline fill="none" stroke="gray" points="437,-1694 184,-1694 "/>
<path fill="none" stroke="gray" d="M184,-1694C178,-1694 172,-1688 172,-1682"/>
<polyline fill="none" stroke="gray" points="172,-1682 172,-1524 "/>
<path fill="none" stroke="gray" d="M172,-1524C172,-1518 178,-1512 184,-1512"/>
<text text-anchor="middle" x="310.5" y="-1680.1" font-family="Times Roman,serif" font-size="11.00" fill="gray">Program</text>
</g>
<g id="graph5" class="cluster"><title>cluster_\Karla\Action</title>
<polyline fill="none" stroke="gray" points="366,-404 440,-404 "/>
<path fill="none" stroke="gray" d="M440,-404C446,-404 452,-410 452,-416"/>
<polyline fill="none" stroke="gray" points="452,-416 452,-1492 "/>
<path fill="none" stroke="gray" d="M452,-1492C452,-1498 446,-1504 440,-1504"/>
<polyline fill="none" stroke="gray" points="440,-1504 366,-1504 "/>
<path fill="none" stroke="gray" d="M366,-1504C360,-1504 354,-1498 354,-1492"/>
<polyline fill="none" stroke="gray" points="354,-1492 354,-416 "/>
<path fill="none" stroke="gray" d="M354,-416C354,-410 360,-404 366,-404"/>
<text text-anchor="middle" x="403" y="-1490.1" font-family="Times Roman,serif" font-size="11.00" fill="gray">Action</text>
</g>
<g id="graph6" class="cluster"><title>cluster_\Karla\Cache</title>
<polyline fill="none" stroke="gray" points="380,-322 426,-322 "/>
<path fill="none" stroke="gray" d="M426,-322C432,-322 438,-328 438,-334"/>
<polyline fill="none" stroke="gray" points="438,-334 438,-384 "/>
<path fill="none" stroke="gray" d="M438,-384C438,-390 432,-396 426,-396"/>
<polyline fill="none" stroke="gray" points="426,-396 380,-396 "/>
<path fill="none" stroke="gray" d="M380,-396C374,-396 368,-390 368,-384"/>
<polyline fill="none" stroke="gray" points="368,-384 368,-334 "/>
<path fill="none" stroke="gray" d="M368,-334C368,-328 374,-322 380,-322"/>
<text text-anchor="middle" x="403" y="-382.1" font-family="Times Roman,serif" font-size="11.00" fill="gray">Cache</text>
</g>
<!-- \\Karla\\Program\\Identify -->
<g id="node4" class="node"><title>\\Karla\\Program\\Identify</title>
<polygon fill="none" stroke="black" points="431,-1610 375,-1610 375,-1574 431,-1574 431,-1610"/>
<text text-anchor="middle" x="403" y="-1589.1" font-family="Times Roman,serif" font-size="11.00">Identify</text>
</g>
<!-- \\Karla\\Program\\ImageMagick -->
<g id="node6" class="node"><title>\\Karla\\Program\\ImageMagick</title>
<polygon fill="none" stroke="black" points="269,-1614 181,-1614 181,-1578 269,-1578 269,-1614"/>
<text text-anchor="start" x="195" y="-1601.43" font-family="Times Roman,serif" font-size="11.00">«abstract»</text>
<text text-anchor="start" x="189" y="-1588.23" font-family="Times Roman,serif" font-size="11.00">ImageMagick</text>
</g>
<!-- \\Karla\\Program\\Identify&#45;&gt;\\Karla\\Program\\ImageMagick -->
<g id="edge9" class="edge"><title>\\Karla\\Program\\Identify&#45;&gt;\\Karla\\Program\\ImageMagick</title>
<path fill="none" stroke="black" d="M374.795,-1592.63C349.43,-1593.2 311.445,-1594.06 280.074,-1594.76"/>
<polygon fill="none" stroke="black" points="279.635,-1591.27 269.716,-1595 279.792,-1598.27 279.635,-1591.27"/>
</g>
<!-- \\Karla\\Program\\Composite -->
<g id="node5" class="node"><title>\\Karla\\Program\\Composite</title>
<polygon fill="none" stroke="black" points="440,-1556 366,-1556 366,-1520 440,-1520 440,-1556"/>
<text text-anchor="middle" x="403" y="-1535.1" font-family="Times Roman,serif" font-size="11.00">Composite</text>
</g>
<!-- \\Karla\\Program\\Composite&#45;&gt;\\Karla\\Program\\ImageMagick -->
<g id="edge11" class="edge"><title>\\Karla\\Program\\Composite&#45;&gt;\\Karla\\Program\\ImageMagick</title>
<path fill="none" stroke="black" d="M365.251,-1550.3C340.238,-1558.45 307.032,-1569.27 279.21,-1578.34"/>
<polygon fill="none" stroke="black" points="278.039,-1575.04 269.615,-1581.46 280.208,-1581.69 278.039,-1575.04"/>
</g>
<!-- \\Karla\\Program -->
<g id="node38" class="node"><title>\\Karla\\Program</title>
<polygon fill="none" stroke="black" points="88,-1636 24,-1636 24,-1600 88,-1600 88,-1636"/>
<text text-anchor="middle" x="56" y="-1615.1" font-family="Times Roman,serif" font-size="11.00">Program</text>
</g>
<!-- \\Karla\\Program\\ImageMagick&#45;&gt;\\Karla\\Program -->
<g id="edge13" class="edge"><title>\\Karla\\Program\\ImageMagick&#45;&gt;\\Karla\\Program</title>
<path fill="none" stroke="black" stroke-dasharray="1,5" d="M180.155,-1601.84C154.828,-1605.13 123.354,-1609.23 98.4337,-1612.48"/>
<polygon fill="none" stroke="black" points="97.6561,-1609.05 88.1916,-1613.81 98.5598,-1615.99 97.6561,-1609.05"/>
</g>
<!-- \\Karla\\Program\\Convert -->
<g id="node7" class="node"><title>\\Karla\\Program\\Convert</title>
<polygon fill="none" stroke="black" points="432,-1664 374,-1664 374,-1628 432,-1628 432,-1664"/>
<text text-anchor="middle" x="403" y="-1643.1" font-family="Times Roman,serif" font-size="11.00">Convert</text>
</g>
<!-- \\Karla\\Program\\Convert&#45;&gt;\\Karla\\Program\\ImageMagick -->
<g id="edge15" class="edge"><title>\\Karla\\Program\\Convert&#45;&gt;\\Karla\\Program\\ImageMagick</title>
<path fill="none" stroke="black" d="M373.207,-1637.63C347.666,-1630.46 310.219,-1619.94 279.357,-1611.27"/>
<polygon fill="none" stroke="black" points="280.166,-1607.86 269.592,-1608.53 278.273,-1614.6 280.166,-1607.86"/>
</g>
<!-- \\Karla\\Program\\Convert&#45;&gt;\\Karla\\Program -->
<g id="edge17" class="edge"><title>\\Karla\\Program\\Convert&#45;&gt;\\Karla\\Program</title>
<path fill="none" stroke="black" stroke-dasharray="1,5" d="M373.415,-1643.61C311.837,-1638.64 169.71,-1627.18 98.4087,-1621.42"/>
<polygon fill="none" stroke="black" points="98.2576,-1617.9 88.0084,-1620.58 97.6945,-1624.88 98.2576,-1617.9"/>
</g>
<!-- \\Karla\\Action\\Sepia -->
<g id="node9" class="node"><title>\\Karla\\Action\\Sepia</title>
<polygon fill="none" stroke="black" points="430,-1474 376,-1474 376,-1438 430,-1438 430,-1474"/>
<text text-anchor="middle" x="403" y="-1453.1" font-family="Times Roman,serif" font-size="11.00">Sepia</text>
</g>
<!-- \\Karla\\Action -->
<g id="node37" class="node"><title>\\Karla\\Action</title>
<polygon fill="none" stroke="black" points="252,-961 198,-961 198,-925 252,-925 252,-961"/>
<text text-anchor="middle" x="225" y="-940.1" font-family="Times Roman,serif" font-size="11.00">Action</text>
</g>
<!-- \\Karla\\Action\\Sepia&#45;&gt;\\Karla\\Action -->
<g id="edge19" class="edge"><title>\\Karla\\Action\\Sepia&#45;&gt;\\Karla\\Action</title>
<path fill="none" stroke="black" stroke-dasharray="1,5" d="M375.977,-1446.02C367.894,-1441.86 359.681,-1436.27 354,-1429 296.286,-1355.14 244.625,-1063.21 229.474,-971.039"/>
<polygon fill="none" stroke="black" points="232.91,-970.364 227.848,-961.057 226.001,-971.489 232.91,-970.364"/>
</g>
<!-- \\Karla\\Action\\Layers -->
<g id="node10" class="node"><title>\\Karla\\Action\\Layers</title>
<polygon fill="none" stroke="black" points="430,-1420 376,-1420 376,-1384 430,-1384 430,-1420"/>
<text text-anchor="middle" x="403" y="-1399.1" font-family="Times Roman,serif" font-size="11.00">Layers</text>
</g>
<!-- \\Karla\\Action\\Layers&#45;&gt;\\Karla\\Action -->
<g id="edge21" class="edge"><title>\\Karla\\Action\\Layers&#45;&gt;\\Karla\\Action</title>
<path fill="none" stroke="black" stroke-dasharray="1,5" d="M375.854,-1391.79C367.861,-1387.64 359.732,-1382.11 354,-1375 252.606,-1249.27 230.856,-1045.55 226.233,-971.257"/>
<polygon fill="none" stroke="black" points="229.727,-971.046 225.668,-961.259 222.738,-971.441 229.727,-971.046"/>
</g>
<!-- \\Karla\\Action\\Flip -->
<g id="node11" class="node"><title>\\Karla\\Action\\Flip</title>
<polygon fill="none" stroke="black" points="430,-1366 376,-1366 376,-1330 430,-1330 430,-1366"/>
<text text-anchor="middle" x="403" y="-1345.1" font-family="Times Roman,serif" font-size="11.00">Flip</text>
</g>
<!-- \\Karla\\Action\\Flip&#45;&gt;\\Karla\\Action -->
<g id="edge23" class="edge"><title>\\Karla\\Action\\Flip&#45;&gt;\\Karla\\Action</title>
<path fill="none" stroke="black" stroke-dasharray="1,5" d="M375.763,-1337.52C367.86,-1333.38 359.806,-1327.92 354,-1321 263.658,-1213.31 235.504,-1039.15 227.698,-971.316"/>
<polygon fill="none" stroke="black" points="231.137,-970.568 226.576,-961.005 224.178,-971.325 231.137,-970.568"/>
</g>
<!-- \\Karla\\Action\\Bordercolor -->
<g id="node12" class="node"><title>\\Karla\\Action\\Bordercolor</title>
<polygon fill="none" stroke="black" points="443,-1312 363,-1312 363,-1276 443,-1276 443,-1312"/>
<text text-anchor="middle" x="403" y="-1291.1" font-family="Times Roman,serif" font-size="11.00">Bordercolor</text>
</g>
<!-- \\Karla\\Action\\Bordercolor&#45;&gt;\\Karla\\Action -->
<g id="edge25" class="edge"><title>\\Karla\\Action\\Bordercolor&#45;&gt;\\Karla\\Action</title>
<path fill="none" stroke="black" stroke-dasharray="1,5" d="M363.663,-1275.71C360.131,-1273.1 356.828,-1270.2 354,-1267 274.449,-1176.85 240.693,-1031.61 229.552,-970.985"/>
<polygon fill="none" stroke="black" points="232.976,-970.247 227.785,-961.011 226.083,-971.468 232.976,-970.247"/>
</g>
<!-- \\Karla\\Action\\Gravity -->
<g id="node13" class="node"><title>\\Karla\\Action\\Gravity</title>
<polygon fill="none" stroke="black" points="431,-1258 375,-1258 375,-1222 431,-1222 431,-1258"/>
<text text-anchor="middle" x="403" y="-1237.1" font-family="Times Roman,serif" font-size="11.00">Gravity</text>
</g>
<!-- \\Karla\\Action\\Gravity&#45;&gt;\\Karla\\Action -->
<g id="edge27" class="edge"><title>\\Karla\\Action\\Gravity&#45;&gt;\\Karla\\Action</title>
<path fill="none" stroke="black" stroke-dasharray="1,5" d="M374.969,-1228.41C367.49,-1224.35 359.866,-1219.22 354,-1213 285.307,-1140.21 246.947,-1024.06 232.168,-971.042"/>
<polygon fill="none" stroke="black" points="235.524,-970.044 229.525,-961.311 228.769,-971.879 235.524,-970.044"/>
</g>
<!-- \\Karla\\Action\\Resample -->
<g id="node14" class="node"><title>\\Karla\\Action\\Resample</title>
<polygon fill="none" stroke="black" points="438,-1204 368,-1204 368,-1168 438,-1168 438,-1204"/>
<text text-anchor="middle" x="403" y="-1183.1" font-family="Times Roman,serif" font-size="11.00">Resample</text>
</g>
<!-- \\Karla\\Action\\Resample&#45;&gt;\\Karla\\Action -->
<g id="edge29" class="edge"><title>\\Karla\\Action\\Resample&#45;&gt;\\Karla\\Action</title>
<path fill="none" stroke="black" stroke-dasharray="1,5" d="M367.931,-1169.71C362.947,-1166.56 358.122,-1162.98 354,-1159 295.729,-1102.72 254.181,-1014.61 235.71,-970.335"/>
<polygon fill="none" stroke="black" points="238.946,-969.002 231.918,-961.074 232.468,-971.654 238.946,-969.002"/>
</g>
<!-- \\Karla\\Action\\Crop -->
<g id="node15" class="node"><title>\\Karla\\Action\\Crop</title>
<polygon fill="none" stroke="black" points="430,-1150 376,-1150 376,-1114 430,-1114 430,-1150"/>
<text text-anchor="middle" x="403" y="-1129.1" font-family="Times Roman,serif" font-size="11.00">Crop</text>
</g>
<!-- \\Karla\\Action\\Crop&#45;&gt;\\Karla\\Action -->
<g id="edge31" class="edge"><title>\\Karla\\Action\\Crop&#45;&gt;\\Karla\\Action</title>
<path fill="none" stroke="black" stroke-dasharray="1,5" d="M375.829,-1119.5C368.363,-1115.43 360.532,-1110.51 354,-1105 306.205,-1064.66 263.8,-1004.34 241.529,-969.824"/>
<polygon fill="none" stroke="black" points="244.375,-967.776 236.052,-961.22 238.47,-971.535 244.375,-967.776"/>
</g>
<!-- \\Karla\\Action\\Profile -->
<g id="node16" class="node"><title>\\Karla\\Action\\Profile</title>
<polygon fill="none" stroke="black" points="430,-1096 376,-1096 376,-1060 430,-1060 430,-1096"/>
<text text-anchor="middle" x="403" y="-1075.1" font-family="Times Roman,serif" font-size="11.00">Profile</text>
</g>
<!-- \\Karla\\Action\\Profile&#45;&gt;\\Karla\\Action -->
<g id="edge33" class="edge"><title>\\Karla\\Action\\Profile&#45;&gt;\\Karla\\Action</title>
<path fill="none" stroke="black" stroke-dasharray="1,5" d="M375.993,-1064.34C368.684,-1060.31 360.893,-1055.72 354,-1051 316.594,-1025.39 277.129,-991.138 251.851,-968.134"/>
<polygon fill="none" stroke="black" points="253.899,-965.264 244.162,-961.086 249.169,-970.424 253.899,-965.264"/>
</g>
<!-- \\Karla\\Action\\Quality -->
<g id="node17" class="node"><title>\\Karla\\Action\\Quality</title>
<polygon fill="none" stroke="black" points="430,-1042 376,-1042 376,-1006 430,-1006 430,-1042"/>
<text text-anchor="middle" x="403" y="-1021.1" font-family="Times Roman,serif" font-size="11.00">Quality</text>
</g>
<!-- \\Karla\\Action\\Quality&#45;&gt;\\Karla\\Action -->
<g id="edge35" class="edge"><title>\\Karla\\Action\\Quality&#45;&gt;\\Karla\\Action</title>
<path fill="none" stroke="black" stroke-dasharray="1,5" d="M375.966,-1011.7C345.385,-997.782 295.427,-975.048 261.426,-959.576"/>
<polygon fill="none" stroke="black" points="262.84,-956.374 252.289,-955.418 259.941,-962.746 262.84,-956.374"/>
</g>
<!-- \\Karla\\Action\\Density -->
<g id="node18" class="node"><title>\\Karla\\Action\\Density</title>
<polygon fill="none" stroke="black" points="431,-988 375,-988 375,-952 431,-952 431,-988"/>
<text text-anchor="middle" x="403" y="-967.1" font-family="Times Roman,serif" font-size="11.00">Density</text>
</g>
<!-- \\Karla\\Action\\Density&#45;&gt;\\Karla\\Action -->
<g id="edge37" class="edge"><title>\\Karla\\Action\\Density&#45;&gt;\\Karla\\Action</title>
<path fill="none" stroke="black" stroke-dasharray="1,5" d="M374.401,-965.662C343.985,-961.048 295.748,-953.731 262.35,-948.665"/>
<polygon fill="none" stroke="black" points="262.481,-945.145 252.069,-947.106 261.431,-952.066 262.481,-945.145"/>
</g>
<!-- \\Karla\\Action\\Resize -->
<g id="node19" class="node"><title>\\Karla\\Action\\Resize</title>
<polygon fill="none" stroke="black" points="430,-934 376,-934 376,-898 430,-898 430,-934"/>
<text text-anchor="middle" x="403" y="-913.1" font-family="Times Roman,serif" font-size="11.00">Resize</text>
</g>
<!-- \\Karla\\Action\\Resize&#45;&gt;\\Karla\\Action -->
<g id="edge39" class="edge"><title>\\Karla\\Action\\Resize&#45;&gt;\\Karla\\Action</title>
<path fill="none" stroke="black" stroke-dasharray="1,5" d="M375.966,-920.101C345.646,-924.7 296.279,-932.188 262.302,-937.342"/>
<polygon fill="none" stroke="black" points="261.651,-933.9 252.289,-938.861 262.701,-940.821 261.651,-933.9"/>
</g>
<!-- \\Karla\\Action\\Size -->
<g id="node20" class="node"><title>\\Karla\\Action\\Size</title>
<polygon fill="none" stroke="black" points="430,-880 376,-880 376,-844 430,-844 430,-880"/>
<text text-anchor="middle" x="403" y="-859.1" font-family="Times Roman,serif" font-size="11.00">Size</text>
</g>
<!-- \\Karla\\Action\\Size&#45;&gt;\\Karla\\Action -->
<g id="edge41" class="edge"><title>\\Karla\\Action\\Size&#45;&gt;\\Karla\\Action</title>
<path fill="none" stroke="black" stroke-dasharray="1,5" d="M375.966,-874.302C345.385,-888.218 295.427,-910.952 261.426,-926.424"/>
<polygon fill="none" stroke="black" points="259.941,-923.254 252.289,-930.582 262.84,-929.626 259.941,-923.254"/>
</g>
<!-- \\Karla\\Action\\Strip -->
<g id="node21" class="node"><title>\\Karla\\Action\\Strip</title>
<polygon fill="none" stroke="black" points="430,-826 376,-826 376,-790 430,-790 430,-826"/>
<text text-anchor="middle" x="403" y="-805.1" font-family="Times Roman,serif" font-size="11.00">Strip</text>
</g>
<!-- \\Karla\\Action\\Strip&#45;&gt;\\Karla\\Action -->
<g id="edge43" class="edge"><title>\\Karla\\Action\\Strip&#45;&gt;\\Karla\\Action</title>
<path fill="none" stroke="black" stroke-dasharray="1,5" d="M375.993,-821.663C368.684,-825.686 360.893,-830.281 354,-835 316.594,-860.609 277.129,-894.862 251.851,-917.866"/>
<polygon fill="none" stroke="black" points="249.169,-915.576 244.162,-924.914 253.899,-920.736 249.169,-915.576"/>
</g>
<!-- \\Karla\\Action\\Background -->
<g id="node22" class="node"><title>\\Karla\\Action\\Background</title>
<polygon fill="none" stroke="black" points="443,-772 363,-772 363,-736 443,-736 443,-772"/>
<text text-anchor="middle" x="403" y="-751.1" font-family="Times Roman,serif" font-size="11.00">Background</text>
</g>
<!-- \\Karla\\Action\\Background&#45;&gt;\\Karla\\Action -->
<g id="edge45" class="edge"><title>\\Karla\\Action\\Background&#45;&gt;\\Karla\\Action</title>
<path fill="none" stroke="black" stroke-dasharray="1,5" d="M366.342,-772.066C362.008,-774.812 357.786,-777.805 354,-781 306.205,-821.337 263.8,-881.656 241.529,-916.176"/>
<polygon fill="none" stroke="black" points="238.47,-914.465 236.052,-924.78 244.375,-918.224 238.47,-914.465"/>
</g>
<!-- \\Karla\\Action\\Flop -->
<g id="node23" class="node"><title>\\Karla\\Action\\Flop</title>
<polygon fill="none" stroke="black" points="430,-718 376,-718 376,-682 430,-682 430,-718"/>
<text text-anchor="middle" x="403" y="-697.1" font-family="Times Roman,serif" font-size="11.00">Flop</text>
</g>
<!-- \\Karla\\Action\\Flop&#45;&gt;\\Karla\\Action -->
<g id="edge47" class="edge"><title>\\Karla\\Action\\Flop&#45;&gt;\\Karla\\Action</title>
<path fill="none" stroke="black" stroke-dasharray="1,5" d="M375.842,-711.675C368.211,-715.787 360.288,-720.927 354,-727 295.729,-783.28 254.181,-871.389 235.71,-915.665"/>
<polygon fill="none" stroke="black" points="232.468,-914.346 231.918,-924.926 238.946,-916.998 232.468,-914.346"/>
</g>
<!-- \\Karla\\Action\\Type -->
<g id="node24" class="node"><title>\\Karla\\Action\\Type</title>
<polygon fill="none" stroke="black" points="430,-664 376,-664 376,-628 430,-628 430,-664"/>
<text text-anchor="middle" x="403" y="-643.1" font-family="Times Roman,serif" font-size="11.00">Type</text>
</g>
<!-- \\Karla\\Action\\Type&#45;&gt;\\Karla\\Action -->
<g id="edge49" class="edge"><title>\\Karla\\Action\\Type&#45;&gt;\\Karla\\Action</title>
<path fill="none" stroke="black" stroke-dasharray="1,5" d="M375.988,-657.044C368.186,-661.186 360.133,-666.501 354,-673 285.307,-745.791 246.947,-861.937 232.168,-914.958"/>
<polygon fill="none" stroke="black" points="228.769,-914.121 229.525,-924.689 235.524,-915.956 228.769,-914.121"/>
</g>
<!-- \\Karla\\Action\\Rotate -->
<g id="node25" class="node"><title>\\Karla\\Action\\Rotate</title>
<polygon fill="none" stroke="black" points="430,-610 376,-610 376,-574 430,-574 430,-610"/>
<text text-anchor="middle" x="403" y="-589.1" font-family="Times Roman,serif" font-size="11.00">Rotate</text>
</g>
<!-- \\Karla\\Action\\Rotate&#45;&gt;\\Karla\\Action -->
<g id="edge51" class="edge"><title>\\Karla\\Action\\Rotate&#45;&gt;\\Karla\\Action</title>
<path fill="none" stroke="black" stroke-dasharray="1,5" d="M375.971,-602.662C368.078,-606.812 359.977,-612.227 354,-619 274.449,-709.146 240.693,-854.391 229.552,-915.015"/>
<polygon fill="none" stroke="black" points="226.083,-914.532 227.785,-924.989 232.976,-915.753 226.083,-914.532"/>
</g>
<!-- \\Karla\\Action\\Colorspace -->
<g id="node26" class="node"><title>\\Karla\\Action\\Colorspace</title>
<polygon fill="none" stroke="black" points="441,-556 365,-556 365,-520 441,-520 441,-556"/>
<text text-anchor="middle" x="403" y="-535.1" font-family="Times Roman,serif" font-size="11.00">Colorspace</text>
</g>
<!-- \\Karla\\Action\\Colorspace&#45;&gt;\\Karla\\Action -->
<g id="edge53" class="edge"><title>\\Karla\\Action\\Colorspace&#45;&gt;\\Karla\\Action</title>
<path fill="none" stroke="black" stroke-dasharray="1,5" d="M364.456,-555.435C360.592,-558.247 356.996,-561.428 354,-565 263.658,-672.689 235.504,-846.849 227.698,-914.684"/>
<polygon fill="none" stroke="black" points="224.178,-914.675 226.576,-924.995 231.137,-915.432 224.178,-914.675"/>
</g>
<!-- \\Karla\\Action\\Flatten -->
<g id="node27" class="node"><title>\\Karla\\Action\\Flatten</title>
<polygon fill="none" stroke="black" points="430,-502 376,-502 376,-466 430,-466 430,-502"/>
<text text-anchor="middle" x="403" y="-481.1" font-family="Times Roman,serif" font-size="11.00">Flatten</text>
</g>
<!-- \\Karla\\Action\\Flatten&#45;&gt;\\Karla\\Action -->
<g id="edge55" class="edge"><title>\\Karla\\Action\\Flatten&#45;&gt;\\Karla\\Action</title>
<path fill="none" stroke="black" stroke-dasharray="1,5" d="M375.343,-494.481C367.516,-498.601 359.61,-504.044 354,-511 252.606,-636.725 230.856,-840.451 226.233,-914.743"/>
<polygon fill="none" stroke="black" points="222.738,-914.559 225.668,-924.741 229.727,-914.954 222.738,-914.559"/>
</g>
<!-- \\Karla\\Action\\Polaroid -->
<g id="node28" class="node"><title>\\Karla\\Action\\Polaroid</title>
<polygon fill="none" stroke="black" points="432,-448 374,-448 374,-412 432,-412 432,-448"/>
<text text-anchor="middle" x="403" y="-427.1" font-family="Times Roman,serif" font-size="11.00">Polaroid</text>
</g>
<!-- \\Karla\\Action\\Polaroid&#45;&gt;\\Karla\\Action -->
<g id="edge57" class="edge"><title>\\Karla\\Action\\Polaroid&#45;&gt;\\Karla\\Action</title>
<path fill="none" stroke="black" stroke-dasharray="1,5" d="M373.423,-441.339C366.193,-445.333 359.083,-450.495 354,-457 296.286,-530.858 244.625,-822.792 229.474,-914.961"/>
<polygon fill="none" stroke="black" points="226.001,-914.511 227.848,-924.943 232.91,-915.636 226.001,-914.511"/>
</g>
<!-- \\Karla\\Cache\\File -->
<g id="node30" class="node"><title>\\Karla\\Cache\\File</title>
<polygon fill="none" stroke="black" points="430,-366 376,-366 376,-330 430,-330 430,-366"/>
<text text-anchor="middle" x="403" y="-345.1" font-family="Times Roman,serif" font-size="11.00">File</text>
</g>
<!-- \\Karla\\Cache -->
<g id="node36" class="node"><title>\\Karla\\Cache</title>
<polygon fill="none" stroke="black" points="252,-366 198,-366 198,-330 252,-330 252,-366"/>
<text text-anchor="middle" x="225" y="-345.1" font-family="Times Roman,serif" font-size="11.00">Cache</text>
</g>
<!-- \\Karla\\Cache\\File&#45;&gt;\\Karla\\Cache -->
<g id="edge59" class="edge"><title>\\Karla\\Cache\\File&#45;&gt;\\Karla\\Cache</title>
<path fill="none" stroke="black" stroke-dasharray="1,5" d="M375.966,-348C345.646,-348 296.279,-348 262.302,-348"/>
<polygon fill="none" stroke="black" points="262.289,-344.5 252.289,-348 262.289,-351.5 262.289,-344.5"/>
</g>
<!-- \\Karla\\MetaData -->
<g id="node31" class="node"><title>\\Karla\\MetaData</title>
<polygon fill="none" stroke="black" points="438,-312 368,-312 368,-276 438,-276 438,-312"/>
<text text-anchor="middle" x="403" y="-291.1" font-family="Times Roman,serif" font-size="11.00">MetaData</text>
</g>
<!-- \\SplFileInfo -->
<g id="node40" class="node"><title>\\SplFileInfo</title>
<ellipse fill="none" stroke="black" cx="225" cy="-18" rx="65.0538" ry="18.3848"/>
<text text-anchor="middle" x="225" y="-14.4" font-family="Times Roman,serif" font-size="14.00" fill="gray">\SplFileInfo</text>
</g>
<!-- \\Karla\\MetaData&#45;&gt;\\SplFileInfo -->
<g id="edge7" class="edge"><title>\\Karla\\MetaData&#45;&gt;\\SplFileInfo</title>
<path fill="none" stroke="black" d="M367.223,-278.75C362.273,-275.446 357.645,-271.547 354,-267 290.574,-187.88 356.203,-124.812 290,-48 286.298,-43.7047 281.851,-39.9875 277.042,-36.7788"/>
<polygon fill="none" stroke="black" points="278.477,-33.5635 268.078,-31.5373 274.944,-39.6064 278.477,-33.5635"/>
</g>
<!-- \\Karla\\Color -->
<g id="node32" class="node"><title>\\Karla\\Color</title>
<polygon fill="none" stroke="black" points="430,-258 376,-258 376,-222 430,-222 430,-258"/>
<text text-anchor="middle" x="403" y="-237.1" font-family="Times Roman,serif" font-size="11.00">Color</text>
</g>
<!-- \\Karla\\Query -->
<g id="node33" class="node"><title>\\Karla\\Query</title>
<polygon fill="none" stroke="black" points="430,-204 376,-204 376,-168 430,-168 430,-204"/>
<text text-anchor="middle" x="403" y="-183.1" font-family="Times Roman,serif" font-size="11.00">Query</text>
</g>
<!-- \\Karla\\Support -->
<g id="node34" class="node"><title>\\Karla\\Support</title>
<polygon fill="none" stroke="black" points="433,-150 373,-150 373,-114 433,-114 433,-150"/>
<text text-anchor="middle" x="403" y="-129.1" font-family="Times Roman,serif" font-size="11.00">Support</text>
</g>
<!-- \\Karla\\Karla -->
<g id="node35" class="node"><title>\\Karla\\Karla</title>
<polygon fill="none" stroke="black" points="430,-96 376,-96 376,-60 430,-60 430,-96"/>
<text text-anchor="middle" x="403" y="-75.1" font-family="Times Roman,serif" font-size="11.00">Karla</text>
</g>
</g>
</svg>
