<?xml version="1.0" encoding="UTF-8" standalone="no"?>
<!DOCTYPE svg PUBLIC "-//W3C//DTD SVG 1.1//EN"
 "http://www.w3.org/Graphics/SVG/1.1/DTD/svg11.dtd">
<!-- Generated by graphviz version 2.26.3 (20100126.1600)
 -->
<!-- Title: G Pages: 1 -->
<svg width="454pt" height="552pt"
 viewBox="0.00 0.00 454.00 552.00" xmlns="http://www.w3.org/2000/svg" xmlns:xlink="http://www.w3.org/1999/xlink">
<g id="graph1" class="graph" transform="scale(1 1) rotate(0) translate(4 548)">
<title>G</title>
<polygon fill="white" stroke="white" points="-4,5 -4,-548 451,-548 451,5 -4,5"/>
<g id="graph2" class="cluster"><title>cluster_Karla</title>
<polyline fill="none" stroke="gray" points="20,-46 426,-46 "/>
<path fill="none" stroke="gray" d="M426,-46C432,-46 438,-52 438,-58"/>
<polyline fill="none" stroke="gray" points="438,-58 438,-524 "/>
<path fill="none" stroke="gray" d="M438,-524C438,-530 432,-536 426,-536"/>
<polyline fill="none" stroke="gray" points="426,-536 20,-536 "/>
<path fill="none" stroke="gray" d="M20,-536C14,-536 8,-530 8,-524"/>
<polyline fill="none" stroke="gray" points="8,-524 8,-58 "/>
<path fill="none" stroke="gray" d="M8,-58C8,-52 14,-46 20,-46"/>
<text text-anchor="middle" x="223" y="-522.1" font-family="Times Roman,serif" font-size="11.00" fill="gray">Karla</text>
</g>
<g id="graph3" class="cluster"><title>cluster_Karla\Cache</title>
<polyline fill="none" stroke="gray" points="360,-430 406,-430 "/>
<path fill="none" stroke="gray" d="M406,-430C412,-430 418,-436 418,-442"/>
<polyline fill="none" stroke="gray" points="418,-442 418,-493 "/>
<path fill="none" stroke="gray" d="M418,-493C418,-499 412,-505 406,-505"/>
<polyline fill="none" stroke="gray" points="406,-505 360,-505 "/>
<path fill="none" stroke="gray" d="M360,-505C354,-505 348,-499 348,-493"/>
<polyline fill="none" stroke="gray" points="348,-493 348,-442 "/>
<path fill="none" stroke="gray" d="M348,-442C348,-436 354,-430 360,-430"/>
<text text-anchor="middle" x="383" y="-491.1" font-family="Times Roman,serif" font-size="11.00" fill="gray">Cache</text>
</g>
<g id="graph4" class="cluster"><title>cluster_Karla\Program</title>
<polyline fill="none" stroke="gray" points="170,-154 418,-154 "/>
<path fill="none" stroke="gray" d="M418,-154C424,-154 430,-160 430,-166"/>
<polyline fill="none" stroke="gray" points="430,-166 430,-410 "/>
<path fill="none" stroke="gray" d="M430,-410C430,-416 424,-422 418,-422"/>
<polyline fill="none" stroke="gray" points="418,-422 170,-422 "/>
<path fill="none" stroke="gray" d="M170,-422C164,-422 158,-416 158,-410"/>
<polyline fill="none" stroke="gray" points="158,-410 158,-166 "/>
<path fill="none" stroke="gray" d="M158,-166C158,-160 164,-154 170,-154"/>
<text text-anchor="middle" x="294" y="-408.1" font-family="Times Roman,serif" font-size="11.00" fill="gray">Program</text>
</g>
<g id="graph5" class="cluster"><title>cluster_Karla\Program\Convert</title>
<polyline fill="none" stroke="gray" points="358,-316 408,-316 "/>
<path fill="none" stroke="gray" d="M408,-316C414,-316 420,-322 420,-328"/>
<polyline fill="none" stroke="gray" points="420,-328 420,-379 "/>
<path fill="none" stroke="gray" d="M420,-379C420,-385 414,-391 408,-391"/>
<polyline fill="none" stroke="gray" points="408,-391 358,-391 "/>
<path fill="none" stroke="gray" d="M358,-391C352,-391 346,-385 346,-379"/>
<polyline fill="none" stroke="gray" points="346,-379 346,-328 "/>
<path fill="none" stroke="gray" d="M346,-328C346,-322 352,-316 358,-316"/>
<text text-anchor="middle" x="383" y="-377.1" font-family="Times Roman,serif" font-size="11.00" fill="gray">Convert</text>
</g>
<!-- \\Karla\\Cache\\File -->
<g id="node3" class="node"><title>\\Karla\\Cache\\File</title>
<a xlink:href="Cache.File.html" xlink:title="File" target="_parent">
<polygon fill="none" stroke="black" points="410,-474 356,-474 356,-438 410,-438 410,-474"/>
<text text-anchor="middle" x="383" y="-453.1" font-family="Courier,monospace" font-size="11.00">File</text>
</a>
</g>
<!-- \\Karla\\Cache -->
<g id="node13" class="node"><title>\\Karla\\Cache</title>
<a xlink:href="Cache.html" xlink:title="Cache" target="_parent">
<polygon fill="none" stroke="black" points="239,-474 185,-474 185,-438 239,-438 239,-474"/>
<text text-anchor="middle" x="212" y="-453.1" font-family="Courier,monospace" font-size="11.00">Cache</text>
</a>
</g>
<!-- \\Karla\\Cache\\File&#45;&gt;\\Karla\\Cache -->
<g id="edge17" class="edge"><title>\\Karla\\Cache\\File&#45;&gt;\\Karla\\Cache</title>
<path fill="none" stroke="black" stroke-dasharray="1,5" d="M355.905,-456C327.222,-456 281.741,-456 249.597,-456"/>
<polygon fill="none" stroke="black" points="249.251,-452.5 239.251,-456 249.251,-459.5 249.251,-452.5"/>
</g>
<!-- \\Karla\\Program\\Convert\\Rotate -->
<g id="node6" class="node"><title>\\Karla\\Program\\Convert\\Rotate</title>
<a xlink:href="Program.Convert.Rotate.html" xlink:title="Rotate" target="_parent">
<polygon fill="none" stroke="black" points="411,-360 355,-360 355,-324 411,-324 411,-360"/>
<text text-anchor="middle" x="383" y="-339.1" font-family="Courier,monospace" font-size="11.00">Rotate</text>
</a>
</g>
<!-- \\Karla\\Program\\Identify -->
<g id="node7" class="node"><title>\\Karla\\Program\\Identify</title>
<a xlink:href="Program.Identify.html" xlink:title="Identify" target="_parent">
<polygon fill="none" stroke="black" points="418,-306 348,-306 348,-270 418,-270 418,-306"/>
<text text-anchor="middle" x="383" y="-285.1" font-family="Courier,monospace" font-size="11.00">Identify</text>
</a>
</g>
<!-- \\Karla\\Program\\ImageMagick -->
<g id="node9" class="node"><title>\\Karla\\Program\\ImageMagick</title>
<a xlink:href="Program.ImageMagick.html" xlink:title="«abstract»&lt;br/&gt;ImageMagick" target="_parent">
<polygon fill="none" stroke="black" points="258,-252 166,-252 166,-216 258,-216 258,-252"/>
<text text-anchor="start" x="178" y="-239.433" font-family="Courier,monospace" font-size="11.00">«abstract»</text>
<text text-anchor="start" x="174.5" y="-226.233" font-family="Courier,monospace" font-size="11.00">ImageMagick</text>
</a>
</g>
<!-- \\Karla\\Program\\Identify&#45;&gt;\\Karla\\Program\\ImageMagick -->
<g id="edge9" class="edge"><title>\\Karla\\Program\\Identify&#45;&gt;\\Karla\\Program\\ImageMagick</title>
<path fill="none" stroke="black" d="M347.153,-276.68C324.227,-269.44 294.012,-259.899 267.966,-251.673"/>
<polygon fill="none" stroke="black" points="268.801,-248.267 258.212,-248.593 266.694,-254.942 268.801,-248.267"/>
</g>
<!-- \\Karla\\Program\\Composite -->
<g id="node8" class="node"><title>\\Karla\\Program\\Composite</title>
<a xlink:href="Program.Composite.html" xlink:title="Composite" target="_parent">
<polygon fill="none" stroke="black" points="421,-252 345,-252 345,-216 421,-216 421,-252"/>
<text text-anchor="middle" x="383" y="-231.1" font-family="Courier,monospace" font-size="11.00">Composite</text>
</a>
</g>
<!-- \\Karla\\Program\\Composite&#45;&gt;\\Karla\\Program\\ImageMagick -->
<g id="edge11" class="edge"><title>\\Karla\\Program\\Composite&#45;&gt;\\Karla\\Program\\ImageMagick</title>
<path fill="none" stroke="black" d="M344.197,-234C321.766,-234 293.149,-234 268.281,-234"/>
<polygon fill="none" stroke="black" points="268.242,-230.5 258.242,-234 268.242,-237.5 268.242,-230.5"/>
</g>
<!-- \\Karla\\Program -->
<g id="node14" class="node"><title>\\Karla\\Program</title>
<a xlink:href="Program.html" xlink:title="Program" target="_parent">
<polygon fill="none" stroke="black" points="80,-252 16,-252 16,-216 80,-216 80,-252"/>
<text text-anchor="middle" x="48" y="-231.1" font-family="Courier,monospace" font-size="11.00">Program</text>
</a>
</g>
<!-- \\Karla\\Program\\ImageMagick&#45;&gt;\\Karla\\Program -->
<g id="edge15" class="edge"><title>\\Karla\\Program\\ImageMagick&#45;&gt;\\Karla\\Program</title>
<path fill="none" stroke="black" stroke-dasharray="1,5" d="M165.88,-234C142.137,-234 113.394,-234 90.2345,-234"/>
<polygon fill="none" stroke="black" points="90.0247,-230.5 80.0247,-234 90.0246,-237.5 90.0247,-230.5"/>
</g>
<!-- \\Karla\\Program\\Convert -->
<g id="node10" class="node"><title>\\Karla\\Program\\Convert</title>
<a xlink:href="Program.Convert.html" xlink:title="Convert" target="_parent">
<polygon fill="none" stroke="black" points="415,-198 351,-198 351,-162 415,-162 415,-198"/>
<text text-anchor="middle" x="383" y="-177.1" font-family="Courier,monospace" font-size="11.00">Convert</text>
</a>
</g>
<!-- \\Karla\\Program\\Convert&#45;&gt;\\Karla\\Program\\ImageMagick -->
<g id="edge13" class="edge"><title>\\Karla\\Program\\Convert&#45;&gt;\\Karla\\Program\\ImageMagick</title>
<path fill="none" stroke="black" d="M350.836,-190.157C327.572,-197.504 295.535,-207.621 268.098,-216.285"/>
<polygon fill="none" stroke="black" points="266.704,-213.055 258.222,-219.404 268.812,-219.73 266.704,-213.055"/>
</g>
<!-- \\Karla\\MetaData -->
<g id="node12" class="node"><title>\\Karla\\MetaData</title>
<a xlink:href="MetaData.html" xlink:title="MetaData" target="_parent">
<polygon fill="none" stroke="black" points="418,-144 348,-144 348,-108 418,-108 418,-144"/>
<text text-anchor="middle" x="383" y="-123.1" font-family="Courier,monospace" font-size="11.00">MetaData</text>
</a>
</g>
<!-- \\SplFileInfo -->
<g id="node17" class="node"><title>\\SplFileInfo</title>
<ellipse fill="none" stroke="black" cx="212" cy="-19" rx="58.8978" ry="19.0919"/>
<text text-anchor="middle" x="212" y="-15.9" font-family="Times Roman,serif" font-size="14.00" fill="gray">\SplFileInfo</text>
</g>
<!-- \\Karla\\MetaData&#45;&gt;\\SplFileInfo -->
<g id="edge7" class="edge"><title>\\Karla\\MetaData&#45;&gt;\\SplFileInfo</title>
<path fill="none" stroke="black" d="M353.992,-107.849C324.64,-89.4823 279.21,-61.0553 247.673,-41.3214"/>
<polygon fill="none" stroke="black" points="249.505,-38.339 239.171,-36.0016 245.791,-44.2731 249.505,-38.339"/>
</g>
<!-- \\Karla\\Karla -->
<g id="node15" class="node"><title>\\Karla\\Karla</title>
<a xlink:href="Karla.html" xlink:title="Karla" target="_parent">
<polygon fill="none" stroke="black" points="410,-90 356,-90 356,-54 410,-54 410,-90"/>
<text text-anchor="middle" x="383" y="-69.1" font-family="Courier,monospace" font-size="11.00">Karla</text>
</a>
</g>
</g>
</svg>
