<?xml version="1.0" encoding="UTF-8" standalone="no"?>
<!DOCTYPE svg PUBLIC "-//W3C//DTD SVG 1.1//EN"
 "http://www.w3.org/Graphics/SVG/1.1/DTD/svg11.dtd">
<!-- Generated by graphviz version 2.26.3 (20100126.1600)
 -->
<!-- Title: G Pages: 1 -->
<svg width="484pt" height="1770pt"
 viewBox="0.00 0.00 484.00 1770.00" xmlns="http://www.w3.org/2000/svg" xmlns:xlink="http://www.w3.org/1999/xlink">
<g id="graph1" class="graph" transform="scale(1 1) rotate(0) translate(4 1766)">
<title>G</title>
<polygon fill="white" stroke="white" points="-4,5 -4,-1766 481,-1766 481,5 -4,5"/>
<g id="graph2" class="cluster"><title>cluster_Global</title>
<polyline fill="none" stroke="gray" points="20,-44 456,-44 "/>
<path fill="none" stroke="gray" d="M456,-44C462,-44 468,-50 468,-56"/>
<polyline fill="none" stroke="gray" points="468,-56 468,-1742 "/>
<path fill="none" stroke="gray" d="M468,-1742C468,-1748 462,-1754 456,-1754"/>
<polyline fill="none" stroke="gray" points="456,-1754 20,-1754 "/>
<path fill="none" stroke="gray" d="M20,-1754C14,-1754 8,-1748 8,-1742"/>
<polyline fill="none" stroke="gray" points="8,-1742 8,-56 "/>
<path fill="none" stroke="gray" d="M8,-56C8,-50 14,-44 20,-44"/>
<text text-anchor="middle" x="238" y="-1740.1" font-family="Times Roman,serif" font-size="11.00" fill="gray">Global</text>
</g>
<g id="graph3" class="cluster"><title>cluster_\Karla</title>
<polyline fill="none" stroke="gray" points="28,-52 448,-52 "/>
<path fill="none" stroke="gray" d="M448,-52C454,-52 460,-58 460,-64"/>
<polyline fill="none" stroke="gray" points="460,-64 460,-1712 "/>
<path fill="none" stroke="gray" d="M460,-1712C460,-1718 454,-1724 448,-1724"/>
<polyline fill="none" stroke="gray" points="448,-1724 28,-1724 "/>
<path fill="none" stroke="gray" d="M28,-1724C22,-1724 16,-1718 16,-1712"/>
<polyline fill="none" stroke="gray" points="16,-1712 16,-64 "/>
<path fill="none" stroke="gray" d="M16,-64C16,-58 22,-52 28,-52"/>
<text text-anchor="middle" x="238" y="-1710.1" font-family="Times Roman,serif" font-size="11.00" fill="gray">Karla</text>
</g>
<g id="graph4" class="cluster"><title>cluster_\Karla\Cache</title>
<polyline fill="none" stroke="gray" points="380,-1620 426,-1620 "/>
<path fill="none" stroke="gray" d="M426,-1620C432,-1620 438,-1626 438,-1632"/>
<polyline fill="none" stroke="gray" points="438,-1632 438,-1682 "/>
<path fill="none" stroke="gray" d="M438,-1682C438,-1688 432,-1694 426,-1694"/>
<polyline fill="none" stroke="gray" points="426,-1694 380,-1694 "/>
<path fill="none" stroke="gray" d="M380,-1694C374,-1694 368,-1688 368,-1682"/>
<polyline fill="none" stroke="gray" points="368,-1682 368,-1632 "/>
<path fill="none" stroke="gray" d="M368,-1632C368,-1626 374,-1620 380,-1620"/>
<text text-anchor="middle" x="403" y="-1680.1" font-family="Times Roman,serif" font-size="11.00" fill="gray">Cache</text>
</g>
<g id="graph5" class="cluster"><title>cluster_\Karla\Program</title>
<polyline fill="none" stroke="gray" points="184,-1430 437,-1430 "/>
<path fill="none" stroke="gray" d="M437,-1430C443,-1430 449,-1436 449,-1442"/>
<polyline fill="none" stroke="gray" points="449,-1442 449,-1600 "/>
<path fill="none" stroke="gray" d="M449,-1600C449,-1606 443,-1612 437,-1612"/>
<polyline fill="none" stroke="gray" points="437,-1612 184,-1612 "/>
<path fill="none" stroke="gray" d="M184,-1612C178,-1612 172,-1606 172,-1600"/>
<polyline fill="none" stroke="gray" points="172,-1600 172,-1442 "/>
<path fill="none" stroke="gray" d="M172,-1442C172,-1436 178,-1430 184,-1430"/>
<text text-anchor="middle" x="310.5" y="-1598.1" font-family="Times Roman,serif" font-size="11.00" fill="gray">Program</text>
</g>
<g id="graph6" class="cluster"><title>cluster_\Karla\Action</title>
<polyline fill="none" stroke="gray" points="366,-322 440,-322 "/>
<path fill="none" stroke="gray" d="M440,-322C446,-322 452,-328 452,-334"/>
<polyline fill="none" stroke="gray" points="452,-334 452,-1410 "/>
<path fill="none" stroke="gray" d="M452,-1410C452,-1416 446,-1422 440,-1422"/>
<polyline fill="none" stroke="gray" points="440,-1422 366,-1422 "/>
<path fill="none" stroke="gray" d="M366,-1422C360,-1422 354,-1416 354,-1410"/>
<polyline fill="none" stroke="gray" points="354,-1410 354,-334 "/>
<path fill="none" stroke="gray" d="M354,-334C354,-328 360,-322 366,-322"/>
<text text-anchor="middle" x="403" y="-1408.1" font-family="Times Roman,serif" font-size="11.00" fill="gray">Action</text>
</g>
<!-- \\Karla\\Cache\\File -->
<g id="node4" class="node"><title>\\Karla\\Cache\\File</title>
<polygon fill="none" stroke="black" points="430,-1664 376,-1664 376,-1628 430,-1628 430,-1664"/>
<text text-anchor="middle" x="403" y="-1643.1" font-family="Times Roman,serif" font-size="11.00">File</text>
</g>
<!-- \\Karla\\Cache -->
<g id="node38" class="node"><title>\\Karla\\Cache</title>
<polygon fill="none" stroke="black" points="252,-1664 198,-1664 198,-1628 252,-1628 252,-1664"/>
<text text-anchor="middle" x="225" y="-1643.1" font-family="Times Roman,serif" font-size="11.00">Cache</text>
</g>
<!-- \\Karla\\Cache\\File&#45;&gt;\\Karla\\Cache -->
<g id="edge7" class="edge"><title>\\Karla\\Cache\\File&#45;&gt;\\Karla\\Cache</title>
<path fill="none" stroke="black" stroke-dasharray="1,5" d="M375.966,-1646C345.646,-1646 296.279,-1646 262.302,-1646"/>
<polygon fill="none" stroke="black" points="262.289,-1642.5 252.289,-1646 262.289,-1649.5 262.289,-1642.5"/>
</g>
<!-- \\Karla\\Program\\Identify -->
<g id="node6" class="node"><title>\\Karla\\Program\\Identify</title>
<polygon fill="none" stroke="black" points="431,-1528 375,-1528 375,-1492 431,-1492 431,-1528"/>
<text text-anchor="middle" x="403" y="-1507.1" font-family="Times Roman,serif" font-size="11.00">Identify</text>
</g>
<!-- \\Karla\\Program\\ImageMagick -->
<g id="node8" class="node"><title>\\Karla\\Program\\ImageMagick</title>
<polygon fill="none" stroke="black" points="269,-1532 181,-1532 181,-1496 269,-1496 269,-1532"/>
<text text-anchor="start" x="195" y="-1519.43" font-family="Times Roman,serif" font-size="11.00">«abstract»</text>
<text text-anchor="start" x="189" y="-1506.23" font-family="Times Roman,serif" font-size="11.00">ImageMagick</text>
</g>
<!-- \\Karla\\Program\\Identify&#45;&gt;\\Karla\\Program\\ImageMagick -->
<g id="edge9" class="edge"><title>\\Karla\\Program\\Identify&#45;&gt;\\Karla\\Program\\ImageMagick</title>
<path fill="none" stroke="black" d="M374.795,-1510.63C349.43,-1511.2 311.445,-1512.06 280.074,-1512.76"/>
<polygon fill="none" stroke="black" points="279.635,-1509.27 269.716,-1513 279.792,-1516.27 279.635,-1509.27"/>
</g>
<!-- \\Karla\\Program\\Convert -->
<g id="node7" class="node"><title>\\Karla\\Program\\Convert</title>
<polygon fill="none" stroke="black" points="432,-1582 374,-1582 374,-1546 432,-1546 432,-1582"/>
<text text-anchor="middle" x="403" y="-1561.1" font-family="Times Roman,serif" font-size="11.00">Convert</text>
</g>
<!-- \\Karla\\Program\\Convert&#45;&gt;\\Karla\\Program\\ImageMagick -->
<g id="edge11" class="edge"><title>\\Karla\\Program\\Convert&#45;&gt;\\Karla\\Program\\ImageMagick</title>
<path fill="none" stroke="black" d="M373.207,-1555.63C347.666,-1548.46 310.219,-1537.94 279.357,-1529.27"/>
<polygon fill="none" stroke="black" points="280.166,-1525.86 269.592,-1526.53 278.273,-1532.6 280.166,-1525.86"/>
</g>
<!-- \\Karla\\Program -->
<g id="node37" class="node"><title>\\Karla\\Program</title>
<polygon fill="none" stroke="black" points="88,-1554 24,-1554 24,-1518 88,-1518 88,-1554"/>
<text text-anchor="middle" x="56" y="-1533.1" font-family="Times Roman,serif" font-size="11.00">Program</text>
</g>
<!-- \\Karla\\Program\\Convert&#45;&gt;\\Karla\\Program -->
<g id="edge13" class="edge"><title>\\Karla\\Program\\Convert&#45;&gt;\\Karla\\Program</title>
<path fill="none" stroke="black" stroke-dasharray="1,5" d="M373.415,-1561.61C311.837,-1556.64 169.71,-1545.18 98.4087,-1539.42"/>
<polygon fill="none" stroke="black" points="98.2576,-1535.9 88.0084,-1538.58 97.6945,-1542.88 98.2576,-1535.9"/>
</g>
<!-- \\Karla\\Program\\ImageMagick&#45;&gt;\\Karla\\Program -->
<g id="edge15" class="edge"><title>\\Karla\\Program\\ImageMagick&#45;&gt;\\Karla\\Program</title>
<path fill="none" stroke="black" stroke-dasharray="1,5" d="M180.155,-1519.84C154.828,-1523.13 123.354,-1527.23 98.4337,-1530.48"/>
<polygon fill="none" stroke="black" points="97.6561,-1527.05 88.1916,-1531.81 98.5598,-1533.99 97.6561,-1527.05"/>
</g>
<!-- \\Karla\\Program\\Composite -->
<g id="node9" class="node"><title>\\Karla\\Program\\Composite</title>
<polygon fill="none" stroke="black" points="440,-1474 366,-1474 366,-1438 440,-1438 440,-1474"/>
<text text-anchor="middle" x="403" y="-1453.1" font-family="Times Roman,serif" font-size="11.00">Composite</text>
</g>
<!-- \\Karla\\Program\\Composite&#45;&gt;\\Karla\\Program\\ImageMagick -->
<g id="edge17" class="edge"><title>\\Karla\\Program\\Composite&#45;&gt;\\Karla\\Program\\ImageMagick</title>
<path fill="none" stroke="black" d="M365.251,-1468.3C340.238,-1476.45 307.032,-1487.27 279.21,-1496.34"/>
<polygon fill="none" stroke="black" points="278.039,-1493.04 269.615,-1499.46 280.208,-1499.69 278.039,-1493.04"/>
</g>
<!-- \\Karla\\Action\\Polaroid -->
<g id="node11" class="node"><title>\\Karla\\Action\\Polaroid</title>
<polygon fill="none" stroke="black" points="432,-1392 374,-1392 374,-1356 432,-1356 432,-1392"/>
<text text-anchor="middle" x="403" y="-1371.1" font-family="Times Roman,serif" font-size="11.00">Polaroid</text>
</g>
<!-- \\Karla\\Action -->
<g id="node36" class="node"><title>\\Karla\\Action</title>
<polygon fill="none" stroke="black" points="252,-879 198,-879 198,-843 252,-843 252,-879"/>
<text text-anchor="middle" x="225" y="-858.1" font-family="Times Roman,serif" font-size="11.00">Action</text>
</g>
<!-- \\Karla\\Action\\Polaroid&#45;&gt;\\Karla\\Action -->
<g id="edge19" class="edge"><title>\\Karla\\Action\\Polaroid&#45;&gt;\\Karla\\Action</title>
<path fill="none" stroke="black" stroke-dasharray="1,5" d="M373.423,-1362.66C366.193,-1358.67 359.083,-1353.51 354,-1347 296.286,-1273.14 244.625,-981.208 229.474,-889.039"/>
<polygon fill="none" stroke="black" points="232.91,-888.364 227.848,-879.057 226.001,-889.489 232.91,-888.364"/>
</g>
<!-- \\Karla\\Action\\Colorspace -->
<g id="node12" class="node"><title>\\Karla\\Action\\Colorspace</title>
<polygon fill="none" stroke="black" points="441,-1338 365,-1338 365,-1302 441,-1302 441,-1338"/>
<text text-anchor="middle" x="403" y="-1317.1" font-family="Times Roman,serif" font-size="11.00">Colorspace</text>
</g>
<!-- \\Karla\\Action\\Colorspace&#45;&gt;\\Karla\\Action -->
<g id="edge21" class="edge"><title>\\Karla\\Action\\Colorspace&#45;&gt;\\Karla\\Action</title>
<path fill="none" stroke="black" stroke-dasharray="1,5" d="M364.318,-1302.68C360.479,-1299.85 356.927,-1296.63 354,-1293 252.606,-1167.27 230.856,-963.549 226.233,-889.257"/>
<polygon fill="none" stroke="black" points="229.727,-889.046 225.668,-879.259 222.738,-889.441 229.727,-889.046"/>
</g>
<!-- \\Karla\\Action\\Layers -->
<g id="node13" class="node"><title>\\Karla\\Action\\Layers</title>
<polygon fill="none" stroke="black" points="430,-1284 376,-1284 376,-1248 430,-1248 430,-1284"/>
<text text-anchor="middle" x="403" y="-1263.1" font-family="Times Roman,serif" font-size="11.00">Layers</text>
</g>
<!-- \\Karla\\Action\\Layers&#45;&gt;\\Karla\\Action -->
<g id="edge23" class="edge"><title>\\Karla\\Action\\Layers&#45;&gt;\\Karla\\Action</title>
<path fill="none" stroke="black" stroke-dasharray="1,5" d="M375.763,-1255.52C367.86,-1251.38 359.806,-1245.92 354,-1239 263.658,-1131.31 235.504,-957.151 227.698,-889.316"/>
<polygon fill="none" stroke="black" points="231.137,-888.568 226.576,-879.005 224.178,-889.325 231.137,-888.568"/>
</g>
<!-- \\Karla\\Action\\Resize -->
<g id="node14" class="node"><title>\\Karla\\Action\\Resize</title>
<polygon fill="none" stroke="black" points="430,-1230 376,-1230 376,-1194 430,-1194 430,-1230"/>
<text text-anchor="middle" x="403" y="-1209.1" font-family="Times Roman,serif" font-size="11.00">Resize</text>
</g>
<!-- \\Karla\\Action\\Resize&#45;&gt;\\Karla\\Action -->
<g id="edge25" class="edge"><title>\\Karla\\Action\\Resize&#45;&gt;\\Karla\\Action</title>
<path fill="none" stroke="black" stroke-dasharray="1,5" d="M375.971,-1201.34C368.078,-1197.19 359.977,-1191.77 354,-1185 274.449,-1094.85 240.693,-949.609 229.552,-888.985"/>
<polygon fill="none" stroke="black" points="232.976,-888.247 227.785,-879.011 226.083,-889.468 232.976,-888.247"/>
</g>
<!-- \\Karla\\Action\\Bordercolor -->
<g id="node15" class="node"><title>\\Karla\\Action\\Bordercolor</title>
<polygon fill="none" stroke="black" points="443,-1176 363,-1176 363,-1140 443,-1140 443,-1176"/>
<text text-anchor="middle" x="403" y="-1155.1" font-family="Times Roman,serif" font-size="11.00">Bordercolor</text>
</g>
<!-- \\Karla\\Action\\Bordercolor&#45;&gt;\\Karla\\Action -->
<g id="edge27" class="edge"><title>\\Karla\\Action\\Bordercolor&#45;&gt;\\Karla\\Action</title>
<path fill="none" stroke="black" stroke-dasharray="1,5" d="M364.368,-1139.86C360.613,-1137.2 357.067,-1134.25 354,-1131 285.307,-1058.21 246.947,-942.063 232.168,-889.042"/>
<polygon fill="none" stroke="black" points="235.524,-888.044 229.525,-879.311 228.769,-889.879 235.524,-888.044"/>
</g>
<!-- \\Karla\\Action\\Rotate -->
<g id="node16" class="node"><title>\\Karla\\Action\\Rotate</title>
<polygon fill="none" stroke="black" points="430,-1122 376,-1122 376,-1086 430,-1086 430,-1122"/>
<text text-anchor="middle" x="403" y="-1101.1" font-family="Times Roman,serif" font-size="11.00">Rotate</text>
</g>
<!-- \\Karla\\Action\\Rotate&#45;&gt;\\Karla\\Action -->
<g id="edge29" class="edge"><title>\\Karla\\Action\\Rotate&#45;&gt;\\Karla\\Action</title>
<path fill="none" stroke="black" stroke-dasharray="1,5" d="M375.842,-1092.33C368.211,-1088.21 360.288,-1083.07 354,-1077 295.729,-1020.72 254.181,-932.611 235.71,-888.335"/>
<polygon fill="none" stroke="black" points="238.946,-887.002 231.918,-879.074 232.468,-889.654 238.946,-887.002"/>
</g>
<!-- \\Karla\\Action\\Size -->
<g id="node17" class="node"><title>\\Karla\\Action\\Size</title>
<polygon fill="none" stroke="black" points="430,-1068 376,-1068 376,-1032 430,-1032 430,-1068"/>
<text text-anchor="middle" x="403" y="-1047.1" font-family="Times Roman,serif" font-size="11.00">Size</text>
</g>
<!-- \\Karla\\Action\\Size&#45;&gt;\\Karla\\Action -->
<g id="edge31" class="edge"><title>\\Karla\\Action\\Size&#45;&gt;\\Karla\\Action</title>
<path fill="none" stroke="black" stroke-dasharray="1,5" d="M375.829,-1037.5C368.363,-1033.43 360.532,-1028.51 354,-1023 306.205,-982.663 263.8,-922.344 241.529,-887.824"/>
<polygon fill="none" stroke="black" points="244.375,-885.776 236.052,-879.22 238.47,-889.535 244.375,-885.776"/>
</g>
<!-- \\Karla\\Action\\Sepia -->
<g id="node18" class="node"><title>\\Karla\\Action\\Sepia</title>
<polygon fill="none" stroke="black" points="430,-1014 376,-1014 376,-978 430,-978 430,-1014"/>
<text text-anchor="middle" x="403" y="-993.1" font-family="Times Roman,serif" font-size="11.00">Sepia</text>
</g>
<!-- \\Karla\\Action\\Sepia&#45;&gt;\\Karla\\Action -->
<g id="edge33" class="edge"><title>\\Karla\\Action\\Sepia&#45;&gt;\\Karla\\Action</title>
<path fill="none" stroke="black" stroke-dasharray="1,5" d="M375.993,-982.337C368.684,-978.314 360.893,-973.719 354,-969 316.594,-943.391 277.129,-909.138 251.851,-886.134"/>
<polygon fill="none" stroke="black" points="253.899,-883.264 244.162,-879.086 249.169,-888.424 253.899,-883.264"/>
</g>
<!-- \\Karla\\Action\\Gravity -->
<g id="node19" class="node"><title>\\Karla\\Action\\Gravity</title>
<polygon fill="none" stroke="black" points="431,-960 375,-960 375,-924 431,-924 431,-960"/>
<text text-anchor="middle" x="403" y="-939.1" font-family="Times Roman,serif" font-size="11.00">Gravity</text>
</g>
<!-- \\Karla\\Action\\Gravity&#45;&gt;\\Karla\\Action -->
<g id="edge35" class="edge"><title>\\Karla\\Action\\Gravity&#45;&gt;\\Karla\\Action</title>
<path fill="none" stroke="black" stroke-dasharray="1,5" d="M374.795,-929.165C344.192,-915.239 295.218,-892.953 261.654,-877.68"/>
<polygon fill="none" stroke="black" points="262.749,-874.332 252.197,-873.376 259.849,-880.704 262.749,-874.332"/>
</g>
<!-- \\Karla\\Action\\Flip -->
<g id="node20" class="node"><title>\\Karla\\Action\\Flip</title>
<polygon fill="none" stroke="black" points="430,-906 376,-906 376,-870 430,-870 430,-906"/>
<text text-anchor="middle" x="403" y="-885.1" font-family="Times Roman,serif" font-size="11.00">Flip</text>
</g>
<!-- \\Karla\\Action\\Flip&#45;&gt;\\Karla\\Action -->
<g id="edge37" class="edge"><title>\\Karla\\Action\\Flip&#45;&gt;\\Karla\\Action</title>
<path fill="none" stroke="black" stroke-dasharray="1,5" d="M375.966,-883.899C345.646,-879.3 296.279,-871.812 262.302,-866.658"/>
<polygon fill="none" stroke="black" points="262.701,-863.179 252.289,-865.139 261.651,-870.1 262.701,-863.179"/>
</g>
<!-- \\Karla\\Action\\Profile -->
<g id="node21" class="node"><title>\\Karla\\Action\\Profile</title>
<polygon fill="none" stroke="black" points="430,-852 376,-852 376,-816 430,-816 430,-852"/>
<text text-anchor="middle" x="403" y="-831.1" font-family="Times Roman,serif" font-size="11.00">Profile</text>
</g>
<!-- \\Karla\\Action\\Profile&#45;&gt;\\Karla\\Action -->
<g id="edge39" class="edge"><title>\\Karla\\Action\\Profile&#45;&gt;\\Karla\\Action</title>
<path fill="none" stroke="black" stroke-dasharray="1,5" d="M375.966,-838.101C345.646,-842.7 296.279,-850.188 262.302,-855.342"/>
<polygon fill="none" stroke="black" points="261.651,-851.9 252.289,-856.861 262.701,-858.821 261.651,-851.9"/>
</g>
<!-- \\Karla\\Action\\Quality -->
<g id="node22" class="node"><title>\\Karla\\Action\\Quality</title>
<polygon fill="none" stroke="black" points="430,-798 376,-798 376,-762 430,-762 430,-798"/>
<text text-anchor="middle" x="403" y="-777.1" font-family="Times Roman,serif" font-size="11.00">Quality</text>
</g>
<!-- \\Karla\\Action\\Quality&#45;&gt;\\Karla\\Action -->
<g id="edge41" class="edge"><title>\\Karla\\Action\\Quality&#45;&gt;\\Karla\\Action</title>
<path fill="none" stroke="black" stroke-dasharray="1,5" d="M375.919,-794.758C348.116,-809.797 306.637,-831.892 290,-839 281.07,-842.816 271.236,-846.432 261.98,-849.589"/>
<polygon fill="none" stroke="black" points="260.622,-846.352 252.233,-852.822 262.826,-852.996 260.622,-846.352"/>
</g>
<!-- \\Karla\\Action\\Background -->
<g id="node23" class="node"><title>\\Karla\\Action\\Background</title>
<polygon fill="none" stroke="black" points="443,-744 363,-744 363,-708 443,-708 443,-744"/>
<text text-anchor="middle" x="403" y="-723.1" font-family="Times Roman,serif" font-size="11.00">Background</text>
</g>
<!-- \\Karla\\Action\\Background&#45;&gt;\\Karla\\Action -->
<g id="edge43" class="edge"><title>\\Karla\\Action\\Background&#45;&gt;\\Karla\\Action</title>
<path fill="none" stroke="black" stroke-dasharray="1,5" d="M365.987,-744.111C361.759,-746.832 357.66,-749.807 354,-753 318.097,-784.32 328.535,-810.981 290,-839 281.617,-845.095 271.425,-849.589 261.621,-852.865"/>
<polygon fill="none" stroke="black" points="260.597,-849.518 252.028,-855.75 262.613,-856.221 260.597,-849.518"/>
</g>
<!-- \\Karla\\Action\\Strip -->
<g id="node24" class="node"><title>\\Karla\\Action\\Strip</title>
<polygon fill="none" stroke="black" points="430,-690 376,-690 376,-654 430,-654 430,-690"/>
<text text-anchor="middle" x="403" y="-669.1" font-family="Times Roman,serif" font-size="11.00">Strip</text>
</g>
<!-- \\Karla\\Action\\Strip&#45;&gt;\\Karla\\Action -->
<g id="edge45" class="edge"><title>\\Karla\\Action\\Strip&#45;&gt;\\Karla\\Action</title>
<path fill="none" stroke="black" stroke-dasharray="1,5" d="M375.92,-682.98C368.116,-687.12 360.078,-692.449 354,-699 307.467,-749.153 340.79,-793.163 290,-839 282.173,-846.064 271.989,-850.873 262.014,-854.142"/>
<polygon fill="none" stroke="black" points="260.869,-850.829 252.203,-856.924 262.778,-857.563 260.869,-850.829"/>
</g>
<!-- \\Karla\\Action\\Density -->
<g id="node25" class="node"><title>\\Karla\\Action\\Density</title>
<polygon fill="none" stroke="black" points="431,-636 375,-636 375,-600 431,-600 431,-636"/>
<text text-anchor="middle" x="403" y="-615.1" font-family="Times Roman,serif" font-size="11.00">Density</text>
</g>
<!-- \\Karla\\Action\\Density&#45;&gt;\\Karla\\Action -->
<g id="edge47" class="edge"><title>\\Karla\\Action\\Density&#45;&gt;\\Karla\\Action</title>
<path fill="none" stroke="black" stroke-dasharray="1,5" d="M374.444,-629.126C366.956,-633.178 359.46,-638.424 354,-645 296.003,-714.855 353.953,-774.553 290,-839 282.369,-846.69 271.957,-851.693 261.703,-854.947"/>
<polygon fill="none" stroke="black" points="260.759,-851.577 252.017,-857.562 262.583,-858.335 260.759,-851.577"/>
</g>
<!-- \\Karla\\Action\\Resample -->
<g id="node26" class="node"><title>\\Karla\\Action\\Resample</title>
<polygon fill="none" stroke="black" points="438,-582 368,-582 368,-546 438,-546 438,-582"/>
<text text-anchor="middle" x="403" y="-561.1" font-family="Times Roman,serif" font-size="11.00">Resample</text>
</g>
<!-- \\Karla\\Action\\Resample&#45;&gt;\\Karla\\Action -->
<g id="edge49" class="edge"><title>\\Karla\\Action\\Resample&#45;&gt;\\Karla\\Action</title>
<path fill="none" stroke="black" stroke-dasharray="1,5" d="M367.59,-578.819C362.469,-582.205 357.692,-586.242 354,-591 284.219,-680.937 367.468,-755.593 290,-839 282.627,-846.938 272.29,-852.013 262.026,-855.256"/>
<polygon fill="none" stroke="black" points="261.071,-851.888 252.305,-857.839 262.869,-858.654 261.071,-851.888"/>
</g>
<!-- \\Karla\\Action\\Crop -->
<g id="node27" class="node"><title>\\Karla\\Action\\Crop</title>
<polygon fill="none" stroke="black" points="430,-528 376,-528 376,-492 430,-492 430,-528"/>
<text text-anchor="middle" x="403" y="-507.1" font-family="Times Roman,serif" font-size="11.00">Crop</text>
</g>
<!-- \\Karla\\Action\\Crop&#45;&gt;\\Karla\\Action -->
<g id="edge51" class="edge"><title>\\Karla\\Action\\Crop&#45;&gt;\\Karla\\Action</title>
<path fill="none" stroke="black" stroke-dasharray="1,5" d="M375.756,-519.81C367.66,-523.959 359.496,-529.588 354,-537 272.283,-647.214 381.152,-736.452 290,-839 282.742,-847.165 272.345,-852.303 261.987,-855.536"/>
<polygon fill="none" stroke="black" points="260.971,-852.183 252.174,-858.087 262.732,-858.958 260.971,-852.183"/>
</g>
<!-- \\Karla\\Action\\Flatten -->
<g id="node28" class="node"><title>\\Karla\\Action\\Flatten</title>
<polygon fill="none" stroke="black" points="430,-474 376,-474 376,-438 430,-438 430,-474"/>
<text text-anchor="middle" x="403" y="-453.1" font-family="Times Roman,serif" font-size="11.00">Flatten</text>
</g>
<!-- \\Karla\\Action\\Flatten&#45;&gt;\\Karla\\Action -->
<g id="edge53" class="edge"><title>\\Karla\\Action\\Flatten&#45;&gt;\\Karla\\Action</title>
<path fill="none" stroke="black" stroke-dasharray="1,5" d="M375.363,-465.841C367.344,-469.972 359.324,-475.583 354,-483 260.264,-613.602 394.929,-717.208 290,-839 282.87,-847.276 272.508,-852.446 262.145,-855.673"/>
<polygon fill="none" stroke="black" points="261.122,-852.322 252.314,-858.21 262.871,-859.1 261.122,-852.322"/>
</g>
<!-- \\Karla\\Action\\Type -->
<g id="node29" class="node"><title>\\Karla\\Action\\Type</title>
<polygon fill="none" stroke="black" points="430,-420 376,-420 376,-384 430,-384 430,-420"/>
<text text-anchor="middle" x="403" y="-399.1" font-family="Times Roman,serif" font-size="11.00">Type</text>
</g>
<!-- \\Karla\\Action\\Type&#45;&gt;\\Karla\\Action -->
<g id="edge55" class="edge"><title>\\Karla\\Action\\Type&#45;&gt;\\Karla\\Action</title>
<path fill="none" stroke="black" stroke-dasharray="1,5" d="M375.773,-411.507C367.577,-415.656 359.349,-421.363 354,-429 248.194,-580.06 408.762,-697.899 290,-839 282.907,-847.427 272.46,-852.636 262.006,-855.853"/>
<polygon fill="none" stroke="black" points="260.924,-852.517 252.09,-858.367 262.644,-859.302 260.924,-852.517"/>
</g>
<!-- \\Karla\\Action\\Flop -->
<g id="node30" class="node"><title>\\Karla\\Action\\Flop</title>
<polygon fill="none" stroke="black" points="430,-366 376,-366 376,-330 430,-330 430,-366"/>
<text text-anchor="middle" x="403" y="-345.1" font-family="Times Roman,serif" font-size="11.00">Flop</text>
</g>
<!-- \\Karla\\Action\\Flop&#45;&gt;\\Karla\\Action -->
<g id="edge57" class="edge"><title>\\Karla\\Action\\Flop&#45;&gt;\\Karla\\Action</title>
<path fill="none" stroke="black" stroke-dasharray="1,5" d="M375.949,-357.323C367.664,-361.478 359.336,-367.235 354,-375 236.092,-546.565 422.632,-678.546 290,-839 282.982,-847.49 272.556,-852.717 262.098,-855.93"/>
<polygon fill="none" stroke="black" points="261.011,-852.595 252.172,-858.435 262.724,-859.382 261.011,-852.595"/>
</g>
<!-- \\Karla\\Color -->
<g id="node31" class="node"><title>\\Karla\\Color</title>
<polygon fill="none" stroke="black" points="430,-312 376,-312 376,-276 430,-276 430,-312"/>
<text text-anchor="middle" x="403" y="-291.1" font-family="Times Roman,serif" font-size="11.00">Color</text>
</g>
<!-- \\Karla\\Query -->
<g id="node32" class="node"><title>\\Karla\\Query</title>
<polygon fill="none" stroke="black" points="430,-258 376,-258 376,-222 430,-222 430,-258"/>
<text text-anchor="middle" x="403" y="-237.1" font-family="Times Roman,serif" font-size="11.00">Query</text>
</g>
<!-- \\Karla\\MetaData -->
<g id="node33" class="node"><title>\\Karla\\MetaData</title>
<polygon fill="none" stroke="black" points="438,-204 368,-204 368,-168 438,-168 438,-204"/>
<text text-anchor="middle" x="403" y="-183.1" font-family="Times Roman,serif" font-size="11.00">MetaData</text>
</g>
<!-- \\SplFileInfo -->
<g id="node66" class="node"><title>\\SplFileInfo</title>
<ellipse fill="none" stroke="black" cx="225" cy="-18" rx="65.0538" ry="18.3848"/>
<text text-anchor="middle" x="225" y="-14.4" font-family="Times Roman,serif" font-size="14.00" fill="gray">\SplFileInfo</text>
</g>
<!-- \\Karla\\MetaData&#45;&gt;\\SplFileInfo -->
<g id="edge59" class="edge"><title>\\Karla\\MetaData&#45;&gt;\\SplFileInfo</title>
<path fill="none" stroke="black" d="M367.371,-169.447C362.574,-166.366 357.953,-162.877 354,-159 313.344,-119.125 332.049,-86.402 290,-48 285.532,-43.9193 280.412,-40.3057 275.05,-37.1291"/>
<polygon fill="none" stroke="black" points="276.335,-33.846 265.87,-32.1903 273.019,-40.0105 276.335,-33.846"/>
</g>
<!-- \\Karla\\Support -->
<g id="node34" class="node"><title>\\Karla\\Support</title>
<polygon fill="none" stroke="black" points="433,-150 373,-150 373,-114 433,-114 433,-150"/>
<text text-anchor="middle" x="403" y="-129.1" font-family="Times Roman,serif" font-size="11.00">Support</text>
</g>
<!-- \\Karla\\Karla -->
<g id="node35" class="node"><title>\\Karla\\Karla</title>
<polygon fill="none" stroke="black" points="430,-96 376,-96 376,-60 430,-60 430,-96"/>
<text text-anchor="middle" x="403" y="-75.1" font-family="Times Roman,serif" font-size="11.00">Karla</text>
</g>
</g>
</svg>
