<?xml version="1.0" encoding="UTF-8" standalone="no"?>
<!DOCTYPE svg PUBLIC "-//W3C//DTD SVG 1.1//EN"
 "http://www.w3.org/Graphics/SVG/1.1/DTD/svg11.dtd">
<!-- Generated by graphviz version 2.26.3 (20100126.1600)
 -->
<!-- Title: G Pages: 1 -->
<svg width="484pt" height="1770pt"
 viewBox="0.00 0.00 484.00 1770.00" xmlns="http://www.w3.org/2000/svg" xmlns:xlink="http://www.w3.org/1999/xlink">
<g id="graph1" class="graph" transform="scale(1 1) rotate(0) translate(4 1766)">
<title>G</title>
<polygon fill="white" stroke="white" points="-4,5 -4,-1766 481,-1766 481,5 -4,5"/>
<g id="graph2" class="cluster"><title>cluster_Global</title>
<polyline fill="none" stroke="gray" points="20,-44 456,-44 "/>
<path fill="none" stroke="gray" d="M456,-44C462,-44 468,-50 468,-56"/>
<polyline fill="none" stroke="gray" points="468,-56 468,-1742 "/>
<path fill="none" stroke="gray" d="M468,-1742C468,-1748 462,-1754 456,-1754"/>
<polyline fill="none" stroke="gray" points="456,-1754 20,-1754 "/>
<path fill="none" stroke="gray" d="M20,-1754C14,-1754 8,-1748 8,-1742"/>
<polyline fill="none" stroke="gray" points="8,-1742 8,-56 "/>
<path fill="none" stroke="gray" d="M8,-56C8,-50 14,-44 20,-44"/>
<text text-anchor="middle" x="238" y="-1740.1" font-family="Times Roman,serif" font-size="11.00" fill="gray">Global</text>
</g>
<g id="graph3" class="cluster"><title>cluster_\Karla</title>
<polyline fill="none" stroke="gray" points="28,-52 448,-52 "/>
<path fill="none" stroke="gray" d="M448,-52C454,-52 460,-58 460,-64"/>
<polyline fill="none" stroke="gray" points="460,-64 460,-1712 "/>
<path fill="none" stroke="gray" d="M460,-1712C460,-1718 454,-1724 448,-1724"/>
<polyline fill="none" stroke="gray" points="448,-1724 28,-1724 "/>
<path fill="none" stroke="gray" d="M28,-1724C22,-1724 16,-1718 16,-1712"/>
<polyline fill="none" stroke="gray" points="16,-1712 16,-64 "/>
<path fill="none" stroke="gray" d="M16,-64C16,-58 22,-52 28,-52"/>
<text text-anchor="middle" x="238" y="-1710.1" font-family="Times Roman,serif" font-size="11.00" fill="gray">Karla</text>
</g>
<g id="graph4" class="cluster"><title>cluster_\Karla\Action</title>
<polyline fill="none" stroke="gray" points="366,-594 440,-594 "/>
<path fill="none" stroke="gray" d="M440,-594C446,-594 452,-600 452,-606"/>
<polyline fill="none" stroke="gray" points="452,-606 452,-1682 "/>
<path fill="none" stroke="gray" d="M452,-1682C452,-1688 446,-1694 440,-1694"/>
<polyline fill="none" stroke="gray" points="440,-1694 366,-1694 "/>
<path fill="none" stroke="gray" d="M366,-1694C360,-1694 354,-1688 354,-1682"/>
<polyline fill="none" stroke="gray" points="354,-1682 354,-606 "/>
<path fill="none" stroke="gray" d="M354,-606C354,-600 360,-594 366,-594"/>
<text text-anchor="middle" x="403" y="-1680.1" font-family="Times Roman,serif" font-size="11.00" fill="gray">Action</text>
</g>
<g id="graph5" class="cluster"><title>cluster_\Karla\Program</title>
<polyline fill="none" stroke="gray" points="184,-404 437,-404 "/>
<path fill="none" stroke="gray" d="M437,-404C443,-404 449,-410 449,-416"/>
<polyline fill="none" stroke="gray" points="449,-416 449,-574 "/>
<path fill="none" stroke="gray" d="M449,-574C449,-580 443,-586 437,-586"/>
<polyline fill="none" stroke="gray" points="437,-586 184,-586 "/>
<path fill="none" stroke="gray" d="M184,-586C178,-586 172,-580 172,-574"/>
<polyline fill="none" stroke="gray" points="172,-574 172,-416 "/>
<path fill="none" stroke="gray" d="M172,-416C172,-410 178,-404 184,-404"/>
<text text-anchor="middle" x="310.5" y="-572.1" font-family="Times Roman,serif" font-size="11.00" fill="gray">Program</text>
</g>
<g id="graph6" class="cluster"><title>cluster_\Karla\Cache</title>
<polyline fill="none" stroke="gray" points="380,-322 426,-322 "/>
<path fill="none" stroke="gray" d="M426,-322C432,-322 438,-328 438,-334"/>
<polyline fill="none" stroke="gray" points="438,-334 438,-384 "/>
<path fill="none" stroke="gray" d="M438,-384C438,-390 432,-396 426,-396"/>
<polyline fill="none" stroke="gray" points="426,-396 380,-396 "/>
<path fill="none" stroke="gray" d="M380,-396C374,-396 368,-390 368,-384"/>
<polyline fill="none" stroke="gray" points="368,-384 368,-334 "/>
<path fill="none" stroke="gray" d="M368,-334C368,-328 374,-322 380,-322"/>
<text text-anchor="middle" x="403" y="-382.1" font-family="Times Roman,serif" font-size="11.00" fill="gray">Cache</text>
</g>
<!-- \\Karla\\Action\\Bordercolor -->
<g id="node4" class="node"><title>\\Karla\\Action\\Bordercolor</title>
<polygon fill="none" stroke="black" points="443,-1664 363,-1664 363,-1628 443,-1628 443,-1664"/>
<text text-anchor="middle" x="403" y="-1643.1" font-family="Times Roman,serif" font-size="11.00">Bordercolor</text>
</g>
<!-- \\Karla\\Action -->
<g id="node36" class="node"><title>\\Karla\\Action</title>
<polygon fill="none" stroke="black" points="252,-1151 198,-1151 198,-1115 252,-1115 252,-1151"/>
<text text-anchor="middle" x="225" y="-1130.1" font-family="Times Roman,serif" font-size="11.00">Action</text>
</g>
<!-- \\Karla\\Action\\Bordercolor&#45;&gt;\\Karla\\Action -->
<g id="edge7" class="edge"><title>\\Karla\\Action\\Bordercolor&#45;&gt;\\Karla\\Action</title>
<path fill="none" stroke="black" stroke-dasharray="1,5" d="M362.79,-1627.68C359.518,-1625.1 356.512,-1622.21 354,-1619 296.286,-1545.14 244.625,-1253.21 229.474,-1161.04"/>
<polygon fill="none" stroke="black" points="232.91,-1160.36 227.848,-1151.06 226.001,-1161.49 232.91,-1160.36"/>
</g>
<!-- \\Karla\\Action\\Flip -->
<g id="node5" class="node"><title>\\Karla\\Action\\Flip</title>
<polygon fill="none" stroke="black" points="430,-1610 376,-1610 376,-1574 430,-1574 430,-1610"/>
<text text-anchor="middle" x="403" y="-1589.1" font-family="Times Roman,serif" font-size="11.00">Flip</text>
</g>
<!-- \\Karla\\Action\\Flip&#45;&gt;\\Karla\\Action -->
<g id="edge9" class="edge"><title>\\Karla\\Action\\Flip&#45;&gt;\\Karla\\Action</title>
<path fill="none" stroke="black" stroke-dasharray="1,5" d="M375.854,-1581.79C367.861,-1577.64 359.732,-1572.11 354,-1565 252.606,-1439.27 230.856,-1235.55 226.233,-1161.26"/>
<polygon fill="none" stroke="black" points="229.727,-1161.05 225.668,-1151.26 222.738,-1161.44 229.727,-1161.05"/>
</g>
<!-- \\Karla\\Action\\Size -->
<g id="node6" class="node"><title>\\Karla\\Action\\Size</title>
<polygon fill="none" stroke="black" points="430,-1556 376,-1556 376,-1520 430,-1520 430,-1556"/>
<text text-anchor="middle" x="403" y="-1535.1" font-family="Times Roman,serif" font-size="11.00">Size</text>
</g>
<!-- \\Karla\\Action\\Size&#45;&gt;\\Karla\\Action -->
<g id="edge11" class="edge"><title>\\Karla\\Action\\Size&#45;&gt;\\Karla\\Action</title>
<path fill="none" stroke="black" stroke-dasharray="1,5" d="M375.763,-1527.52C367.86,-1523.38 359.806,-1517.92 354,-1511 263.658,-1403.31 235.504,-1229.15 227.698,-1161.32"/>
<polygon fill="none" stroke="black" points="231.137,-1160.57 226.576,-1151 224.178,-1161.32 231.137,-1160.57"/>
</g>
<!-- \\Karla\\Action\\Strip -->
<g id="node7" class="node"><title>\\Karla\\Action\\Strip</title>
<polygon fill="none" stroke="black" points="430,-1502 376,-1502 376,-1466 430,-1466 430,-1502"/>
<text text-anchor="middle" x="403" y="-1481.1" font-family="Times Roman,serif" font-size="11.00">Strip</text>
</g>
<!-- \\Karla\\Action\\Strip&#45;&gt;\\Karla\\Action -->
<g id="edge13" class="edge"><title>\\Karla\\Action\\Strip&#45;&gt;\\Karla\\Action</title>
<path fill="none" stroke="black" stroke-dasharray="1,5" d="M375.971,-1473.34C368.078,-1469.19 359.977,-1463.77 354,-1457 274.449,-1366.85 240.693,-1221.61 229.552,-1160.99"/>
<polygon fill="none" stroke="black" points="232.976,-1160.25 227.785,-1151.01 226.083,-1161.47 232.976,-1160.25"/>
</g>
<!-- \\Karla\\Action\\Density -->
<g id="node8" class="node"><title>\\Karla\\Action\\Density</title>
<polygon fill="none" stroke="black" points="431,-1448 375,-1448 375,-1412 431,-1412 431,-1448"/>
<text text-anchor="middle" x="403" y="-1427.1" font-family="Times Roman,serif" font-size="11.00">Density</text>
</g>
<!-- \\Karla\\Action\\Density&#45;&gt;\\Karla\\Action -->
<g id="edge15" class="edge"><title>\\Karla\\Action\\Density&#45;&gt;\\Karla\\Action</title>
<path fill="none" stroke="black" stroke-dasharray="1,5" d="M374.459,-1418.13C367.144,-1414.12 359.733,-1409.08 354,-1403 285.307,-1330.21 246.947,-1214.06 232.168,-1161.04"/>
<polygon fill="none" stroke="black" points="235.524,-1160.04 229.525,-1151.31 228.769,-1161.88 235.524,-1160.04"/>
</g>
<!-- \\Karla\\Action\\Sepia -->
<g id="node9" class="node"><title>\\Karla\\Action\\Sepia</title>
<polygon fill="none" stroke="black" points="430,-1394 376,-1394 376,-1358 430,-1358 430,-1394"/>
<text text-anchor="middle" x="403" y="-1373.1" font-family="Times Roman,serif" font-size="11.00">Sepia</text>
</g>
<!-- \\Karla\\Action\\Sepia&#45;&gt;\\Karla\\Action -->
<g id="edge17" class="edge"><title>\\Karla\\Action\\Sepia&#45;&gt;\\Karla\\Action</title>
<path fill="none" stroke="black" stroke-dasharray="1,5" d="M375.842,-1364.33C368.211,-1360.21 360.288,-1355.07 354,-1349 295.729,-1292.72 254.181,-1204.61 235.71,-1160.33"/>
<polygon fill="none" stroke="black" points="238.946,-1159 231.918,-1151.07 232.468,-1161.65 238.946,-1159"/>
</g>
<!-- \\Karla\\Action\\Type -->
<g id="node10" class="node"><title>\\Karla\\Action\\Type</title>
<polygon fill="none" stroke="black" points="430,-1340 376,-1340 376,-1304 430,-1304 430,-1340"/>
<text text-anchor="middle" x="403" y="-1319.1" font-family="Times Roman,serif" font-size="11.00">Type</text>
</g>
<!-- \\Karla\\Action\\Type&#45;&gt;\\Karla\\Action -->
<g id="edge19" class="edge"><title>\\Karla\\Action\\Type&#45;&gt;\\Karla\\Action</title>
<path fill="none" stroke="black" stroke-dasharray="1,5" d="M375.829,-1309.5C368.363,-1305.43 360.532,-1300.51 354,-1295 306.205,-1254.66 263.8,-1194.34 241.529,-1159.82"/>
<polygon fill="none" stroke="black" points="244.375,-1157.78 236.052,-1151.22 238.47,-1161.54 244.375,-1157.78"/>
</g>
<!-- \\Karla\\Action\\Resize -->
<g id="node11" class="node"><title>\\Karla\\Action\\Resize</title>
<polygon fill="none" stroke="black" points="430,-1286 376,-1286 376,-1250 430,-1250 430,-1286"/>
<text text-anchor="middle" x="403" y="-1265.1" font-family="Times Roman,serif" font-size="11.00">Resize</text>
</g>
<!-- \\Karla\\Action\\Resize&#45;&gt;\\Karla\\Action -->
<g id="edge21" class="edge"><title>\\Karla\\Action\\Resize&#45;&gt;\\Karla\\Action</title>
<path fill="none" stroke="black" stroke-dasharray="1,5" d="M375.993,-1254.34C368.684,-1250.31 360.893,-1245.72 354,-1241 316.594,-1215.39 277.129,-1181.14 251.851,-1158.13"/>
<polygon fill="none" stroke="black" points="253.899,-1155.26 244.162,-1151.09 249.169,-1160.42 253.899,-1155.26"/>
</g>
<!-- \\Karla\\Action\\Profile -->
<g id="node12" class="node"><title>\\Karla\\Action\\Profile</title>
<polygon fill="none" stroke="black" points="430,-1232 376,-1232 376,-1196 430,-1196 430,-1232"/>
<text text-anchor="middle" x="403" y="-1211.1" font-family="Times Roman,serif" font-size="11.00">Profile</text>
</g>
<!-- \\Karla\\Action\\Profile&#45;&gt;\\Karla\\Action -->
<g id="edge23" class="edge"><title>\\Karla\\Action\\Profile&#45;&gt;\\Karla\\Action</title>
<path fill="none" stroke="black" stroke-dasharray="1,5" d="M375.966,-1201.7C345.385,-1187.78 295.427,-1165.05 261.426,-1149.58"/>
<polygon fill="none" stroke="black" points="262.84,-1146.37 252.289,-1145.42 259.941,-1152.75 262.84,-1146.37"/>
</g>
<!-- \\Karla\\Action\\Flop -->
<g id="node13" class="node"><title>\\Karla\\Action\\Flop</title>
<polygon fill="none" stroke="black" points="430,-1178 376,-1178 376,-1142 430,-1142 430,-1178"/>
<text text-anchor="middle" x="403" y="-1157.1" font-family="Times Roman,serif" font-size="11.00">Flop</text>
</g>
<!-- \\Karla\\Action\\Flop&#45;&gt;\\Karla\\Action -->
<g id="edge25" class="edge"><title>\\Karla\\Action\\Flop&#45;&gt;\\Karla\\Action</title>
<path fill="none" stroke="black" stroke-dasharray="1,5" d="M375.966,-1155.9C345.646,-1151.3 296.279,-1143.81 262.302,-1138.66"/>
<polygon fill="none" stroke="black" points="262.701,-1135.18 252.289,-1137.14 261.651,-1142.1 262.701,-1135.18"/>
</g>
<!-- \\Karla\\Action\\Gravity -->
<g id="node14" class="node"><title>\\Karla\\Action\\Gravity</title>
<polygon fill="none" stroke="black" points="431,-1124 375,-1124 375,-1088 431,-1088 431,-1124"/>
<text text-anchor="middle" x="403" y="-1103.1" font-family="Times Roman,serif" font-size="11.00">Gravity</text>
</g>
<!-- \\Karla\\Action\\Gravity&#45;&gt;\\Karla\\Action -->
<g id="edge27" class="edge"><title>\\Karla\\Action\\Gravity&#45;&gt;\\Karla\\Action</title>
<path fill="none" stroke="black" stroke-dasharray="1,5" d="M374.795,-1110.28C344.323,-1114.9 295.638,-1122.29 262.087,-1127.37"/>
<polygon fill="none" stroke="black" points="261.559,-1123.91 252.197,-1128.87 262.609,-1130.84 261.559,-1123.91"/>
</g>
<!-- \\Karla\\Action\\Quality -->
<g id="node15" class="node"><title>\\Karla\\Action\\Quality</title>
<polygon fill="none" stroke="black" points="430,-1070 376,-1070 376,-1034 430,-1034 430,-1070"/>
<text text-anchor="middle" x="403" y="-1049.1" font-family="Times Roman,serif" font-size="11.00">Quality</text>
</g>
<!-- \\Karla\\Action\\Quality&#45;&gt;\\Karla\\Action -->
<g id="edge29" class="edge"><title>\\Karla\\Action\\Quality&#45;&gt;\\Karla\\Action</title>
<path fill="none" stroke="black" stroke-dasharray="1,5" d="M375.966,-1064.3C345.385,-1078.22 295.427,-1100.95 261.426,-1116.42"/>
<polygon fill="none" stroke="black" points="259.941,-1113.25 252.289,-1120.58 262.84,-1119.63 259.941,-1113.25"/>
</g>
<!-- \\Karla\\Action\\Colorspace -->
<g id="node16" class="node"><title>\\Karla\\Action\\Colorspace</title>
<polygon fill="none" stroke="black" points="441,-1016 365,-1016 365,-980 441,-980 441,-1016"/>
<text text-anchor="middle" x="403" y="-995.1" font-family="Times Roman,serif" font-size="11.00">Colorspace</text>
</g>
<!-- \\Karla\\Action\\Colorspace&#45;&gt;\\Karla\\Action -->
<g id="edge31" class="edge"><title>\\Karla\\Action\\Colorspace&#45;&gt;\\Karla\\Action</title>
<path fill="none" stroke="black" stroke-dasharray="1,5" d="M368.226,-1016.06C363.358,-1018.91 358.488,-1021.93 354,-1025 316.594,-1050.61 277.129,-1084.86 251.851,-1107.87"/>
<polygon fill="none" stroke="black" points="249.169,-1105.58 244.162,-1114.91 253.899,-1110.74 249.169,-1105.58"/>
</g>
<!-- \\Karla\\Action\\Background -->
<g id="node17" class="node"><title>\\Karla\\Action\\Background</title>
<polygon fill="none" stroke="black" points="443,-962 363,-962 363,-926 443,-926 443,-962"/>
<text text-anchor="middle" x="403" y="-941.1" font-family="Times Roman,serif" font-size="11.00">Background</text>
</g>
<!-- \\Karla\\Action\\Background&#45;&gt;\\Karla\\Action -->
<g id="edge33" class="edge"><title>\\Karla\\Action\\Background&#45;&gt;\\Karla\\Action</title>
<path fill="none" stroke="black" stroke-dasharray="1,5" d="M366.342,-962.066C362.008,-964.812 357.786,-967.805 354,-971 306.205,-1011.34 263.8,-1071.66 241.529,-1106.18"/>
<polygon fill="none" stroke="black" points="238.47,-1104.46 236.052,-1114.78 244.375,-1108.22 238.47,-1104.46"/>
</g>
<!-- \\Karla\\Action\\Flatten -->
<g id="node18" class="node"><title>\\Karla\\Action\\Flatten</title>
<polygon fill="none" stroke="black" points="430,-908 376,-908 376,-872 430,-872 430,-908"/>
<text text-anchor="middle" x="403" y="-887.1" font-family="Times Roman,serif" font-size="11.00">Flatten</text>
</g>
<!-- \\Karla\\Action\\Flatten&#45;&gt;\\Karla\\Action -->
<g id="edge35" class="edge"><title>\\Karla\\Action\\Flatten&#45;&gt;\\Karla\\Action</title>
<path fill="none" stroke="black" stroke-dasharray="1,5" d="M375.333,-901.95C367.859,-906.016 360.148,-911.062 354,-917 295.729,-973.28 254.181,-1061.39 235.71,-1105.67"/>
<polygon fill="none" stroke="black" points="232.468,-1104.35 231.918,-1114.93 238.946,-1107 232.468,-1104.35"/>
</g>
<!-- \\Karla\\Action\\Layers -->
<g id="node19" class="node"><title>\\Karla\\Action\\Layers</title>
<polygon fill="none" stroke="black" points="430,-854 376,-854 376,-818 430,-818 430,-854"/>
<text text-anchor="middle" x="403" y="-833.1" font-family="Times Roman,serif" font-size="11.00">Layers</text>
</g>
<!-- \\Karla\\Action\\Layers&#45;&gt;\\Karla\\Action -->
<g id="edge37" class="edge"><title>\\Karla\\Action\\Layers&#45;&gt;\\Karla\\Action</title>
<path fill="none" stroke="black" stroke-dasharray="1,5" d="M375.988,-847.044C368.186,-851.186 360.133,-856.501 354,-863 285.307,-935.791 246.947,-1051.94 232.168,-1104.96"/>
<polygon fill="none" stroke="black" points="228.769,-1104.12 229.525,-1114.69 235.524,-1105.96 228.769,-1104.12"/>
</g>
<!-- \\Karla\\Action\\Resample -->
<g id="node20" class="node"><title>\\Karla\\Action\\Resample</title>
<polygon fill="none" stroke="black" points="438,-800 368,-800 368,-764 438,-764 438,-800"/>
<text text-anchor="middle" x="403" y="-779.1" font-family="Times Roman,serif" font-size="11.00">Resample</text>
</g>
<!-- \\Karla\\Action\\Resample&#45;&gt;\\Karla\\Action -->
<g id="edge39" class="edge"><title>\\Karla\\Action\\Resample&#45;&gt;\\Karla\\Action</title>
<path fill="none" stroke="black" stroke-dasharray="1,5" d="M367.844,-797.399C362.754,-800.699 357.92,-804.558 354,-809 274.449,-899.146 240.693,-1044.39 229.552,-1105.01"/>
<polygon fill="none" stroke="black" points="226.083,-1104.53 227.785,-1114.99 232.976,-1105.75 226.083,-1104.53"/>
</g>
<!-- \\Karla\\Action\\Crop -->
<g id="node21" class="node"><title>\\Karla\\Action\\Crop</title>
<polygon fill="none" stroke="black" points="430,-746 376,-746 376,-710 430,-710 430,-746"/>
<text text-anchor="middle" x="403" y="-725.1" font-family="Times Roman,serif" font-size="11.00">Crop</text>
</g>
<!-- \\Karla\\Action\\Crop&#45;&gt;\\Karla\\Action -->
<g id="edge41" class="edge"><title>\\Karla\\Action\\Crop&#45;&gt;\\Karla\\Action</title>
<path fill="none" stroke="black" stroke-dasharray="1,5" d="M375.763,-738.482C367.86,-742.624 359.806,-748.08 354,-755 263.658,-862.689 235.504,-1036.85 227.698,-1104.68"/>
<polygon fill="none" stroke="black" points="224.178,-1104.68 226.576,-1115 231.137,-1105.43 224.178,-1104.68"/>
</g>
<!-- \\Karla\\Action\\Polaroid -->
<g id="node22" class="node"><title>\\Karla\\Action\\Polaroid</title>
<polygon fill="none" stroke="black" points="432,-692 374,-692 374,-656 432,-656 432,-692"/>
<text text-anchor="middle" x="403" y="-671.1" font-family="Times Roman,serif" font-size="11.00">Polaroid</text>
</g>
<!-- \\Karla\\Action\\Polaroid&#45;&gt;\\Karla\\Action -->
<g id="edge43" class="edge"><title>\\Karla\\Action\\Polaroid&#45;&gt;\\Karla\\Action</title>
<path fill="none" stroke="black" stroke-dasharray="1,5" d="M373.301,-685.586C366.158,-689.559 359.122,-694.649 354,-701 252.606,-826.725 230.856,-1030.45 226.233,-1104.74"/>
<polygon fill="none" stroke="black" points="222.738,-1104.56 225.668,-1114.74 229.727,-1104.95 222.738,-1104.56"/>
</g>
<!-- \\Karla\\Action\\Rotate -->
<g id="node23" class="node"><title>\\Karla\\Action\\Rotate</title>
<polygon fill="none" stroke="black" points="430,-638 376,-638 376,-602 430,-602 430,-638"/>
<text text-anchor="middle" x="403" y="-617.1" font-family="Times Roman,serif" font-size="11.00">Rotate</text>
</g>
<!-- \\Karla\\Action\\Rotate&#45;&gt;\\Karla\\Action -->
<g id="edge45" class="edge"><title>\\Karla\\Action\\Rotate&#45;&gt;\\Karla\\Action</title>
<path fill="none" stroke="black" stroke-dasharray="1,5" d="M375.977,-629.978C367.894,-634.137 359.681,-639.729 354,-647 296.286,-720.858 244.625,-1012.79 229.474,-1104.96"/>
<polygon fill="none" stroke="black" points="226.001,-1104.51 227.848,-1114.94 232.91,-1105.64 226.001,-1104.51"/>
</g>
<!-- \\Karla\\Program\\Convert -->
<g id="node25" class="node"><title>\\Karla\\Program\\Convert</title>
<polygon fill="none" stroke="black" points="432,-556 374,-556 374,-520 432,-520 432,-556"/>
<text text-anchor="middle" x="403" y="-535.1" font-family="Times Roman,serif" font-size="11.00">Convert</text>
</g>
<!-- \\Karla\\Program\\ImageMagick -->
<g id="node26" class="node"><title>\\Karla\\Program\\ImageMagick</title>
<polygon fill="none" stroke="black" points="269,-506 181,-506 181,-470 269,-470 269,-506"/>
<text text-anchor="start" x="195" y="-493.433" font-family="Times Roman,serif" font-size="11.00">«abstract»</text>
<text text-anchor="start" x="189" y="-480.233" font-family="Times Roman,serif" font-size="11.00">ImageMagick</text>
</g>
<!-- \\Karla\\Program\\Convert&#45;&gt;\\Karla\\Program\\ImageMagick -->
<g id="edge47" class="edge"><title>\\Karla\\Program\\Convert&#45;&gt;\\Karla\\Program\\ImageMagick</title>
<path fill="none" stroke="black" d="M373.207,-529.631C347.666,-522.457 310.219,-511.938 279.357,-503.269"/>
<polygon fill="none" stroke="black" points="280.166,-499.861 269.592,-500.526 278.273,-506.6 280.166,-499.861"/>
</g>
<!-- \\Karla\\Program -->
<g id="node37" class="node"><title>\\Karla\\Program</title>
<polygon fill="none" stroke="black" points="88,-528 24,-528 24,-492 88,-492 88,-528"/>
<text text-anchor="middle" x="56" y="-507.1" font-family="Times Roman,serif" font-size="11.00">Program</text>
</g>
<!-- \\Karla\\Program\\Convert&#45;&gt;\\Karla\\Program -->
<g id="edge49" class="edge"><title>\\Karla\\Program\\Convert&#45;&gt;\\Karla\\Program</title>
<path fill="none" stroke="black" stroke-dasharray="1,5" d="M373.415,-535.613C311.837,-530.644 169.71,-519.175 98.4087,-513.422"/>
<polygon fill="none" stroke="black" points="98.2576,-509.899 88.0084,-512.583 97.6945,-516.876 98.2576,-509.899"/>
</g>
<!-- \\Karla\\Program\\ImageMagick&#45;&gt;\\Karla\\Program -->
<g id="edge51" class="edge"><title>\\Karla\\Program\\ImageMagick&#45;&gt;\\Karla\\Program</title>
<path fill="none" stroke="black" stroke-dasharray="1,5" d="M180.155,-493.838C154.828,-497.135 123.354,-501.232 98.4337,-504.476"/>
<polygon fill="none" stroke="black" points="97.6561,-501.048 88.1916,-505.809 98.5598,-507.989 97.6561,-501.048"/>
</g>
<!-- \\Karla\\Program\\Identify -->
<g id="node27" class="node"><title>\\Karla\\Program\\Identify</title>
<polygon fill="none" stroke="black" points="431,-502 375,-502 375,-466 431,-466 431,-502"/>
<text text-anchor="middle" x="403" y="-481.1" font-family="Times Roman,serif" font-size="11.00">Identify</text>
</g>
<!-- \\Karla\\Program\\Identify&#45;&gt;\\Karla\\Program\\ImageMagick -->
<g id="edge53" class="edge"><title>\\Karla\\Program\\Identify&#45;&gt;\\Karla\\Program\\ImageMagick</title>
<path fill="none" stroke="black" d="M374.795,-484.634C349.43,-485.204 311.445,-486.057 280.074,-486.762"/>
<polygon fill="none" stroke="black" points="279.635,-483.271 269.716,-486.995 279.792,-490.27 279.635,-483.271"/>
</g>
<!-- \\Karla\\Program\\Composite -->
<g id="node28" class="node"><title>\\Karla\\Program\\Composite</title>
<polygon fill="none" stroke="black" points="440,-448 366,-448 366,-412 440,-412 440,-448"/>
<text text-anchor="middle" x="403" y="-427.1" font-family="Times Roman,serif" font-size="11.00">Composite</text>
</g>
<!-- \\Karla\\Program\\Composite&#45;&gt;\\Karla\\Program\\ImageMagick -->
<g id="edge55" class="edge"><title>\\Karla\\Program\\Composite&#45;&gt;\\Karla\\Program\\ImageMagick</title>
<path fill="none" stroke="black" d="M365.251,-442.3C340.238,-450.451 307.032,-461.27 279.21,-470.336"/>
<polygon fill="none" stroke="black" points="278.039,-467.036 269.615,-473.462 280.208,-473.692 278.039,-467.036"/>
</g>
<!-- \\Karla\\Cache\\File -->
<g id="node30" class="node"><title>\\Karla\\Cache\\File</title>
<polygon fill="none" stroke="black" points="430,-366 376,-366 376,-330 430,-330 430,-366"/>
<text text-anchor="middle" x="403" y="-345.1" font-family="Times Roman,serif" font-size="11.00">File</text>
</g>
<!-- \\Karla\\Cache -->
<g id="node38" class="node"><title>\\Karla\\Cache</title>
<polygon fill="none" stroke="black" points="252,-366 198,-366 198,-330 252,-330 252,-366"/>
<text text-anchor="middle" x="225" y="-345.1" font-family="Times Roman,serif" font-size="11.00">Cache</text>
</g>
<!-- \\Karla\\Cache\\File&#45;&gt;\\Karla\\Cache -->
<g id="edge57" class="edge"><title>\\Karla\\Cache\\File&#45;&gt;\\Karla\\Cache</title>
<path fill="none" stroke="black" stroke-dasharray="1,5" d="M375.966,-348C345.646,-348 296.279,-348 262.302,-348"/>
<polygon fill="none" stroke="black" points="262.289,-344.5 252.289,-348 262.289,-351.5 262.289,-344.5"/>
</g>
<!-- \\Karla\\Color -->
<g id="node31" class="node"><title>\\Karla\\Color</title>
<polygon fill="none" stroke="black" points="430,-312 376,-312 376,-276 430,-276 430,-312"/>
<text text-anchor="middle" x="403" y="-291.1" font-family="Times Roman,serif" font-size="11.00">Color</text>
</g>
<!-- \\Karla\\Query -->
<g id="node32" class="node"><title>\\Karla\\Query</title>
<polygon fill="none" stroke="black" points="430,-258 376,-258 376,-222 430,-222 430,-258"/>
<text text-anchor="middle" x="403" y="-237.1" font-family="Times Roman,serif" font-size="11.00">Query</text>
</g>
<!-- \\Karla\\Support -->
<g id="node33" class="node"><title>\\Karla\\Support</title>
<polygon fill="none" stroke="black" points="433,-204 373,-204 373,-168 433,-168 433,-204"/>
<text text-anchor="middle" x="403" y="-183.1" font-family="Times Roman,serif" font-size="11.00">Support</text>
</g>
<!-- \\Karla\\Karla -->
<g id="node34" class="node"><title>\\Karla\\Karla</title>
<polygon fill="none" stroke="black" points="430,-150 376,-150 376,-114 430,-114 430,-150"/>
<text text-anchor="middle" x="403" y="-129.1" font-family="Times Roman,serif" font-size="11.00">Karla</text>
</g>
<!-- \\Karla\\MetaData -->
<g id="node35" class="node"><title>\\Karla\\MetaData</title>
<polygon fill="none" stroke="black" points="438,-96 368,-96 368,-60 438,-60 438,-96"/>
<text text-anchor="middle" x="403" y="-75.1" font-family="Times Roman,serif" font-size="11.00">MetaData</text>
</g>
<!-- \\SplFileInfo -->
<g id="node66" class="node"><title>\\SplFileInfo</title>
<ellipse fill="none" stroke="black" cx="225" cy="-18" rx="65.0538" ry="18.3848"/>
<text text-anchor="middle" x="225" y="-14.4" font-family="Times Roman,serif" font-size="14.00" fill="gray">\SplFileInfo</text>
</g>
<!-- \\Karla\\MetaData&#45;&gt;\\SplFileInfo -->
<g id="edge59" class="edge"><title>\\Karla\\MetaData&#45;&gt;\\SplFileInfo</title>
<path fill="none" stroke="black" d="M367.407,-66.0023C341.247,-57.1842 305.317,-45.0732 276.094,-35.2225"/>
<polygon fill="none" stroke="black" points="277.058,-31.8542 266.464,-31.9765 274.822,-38.4875 277.058,-31.8542"/>
</g>
</g>
</svg>
