<?xml version="1.0" encoding="UTF-8" standalone="no"?>
<!DOCTYPE svg PUBLIC "-//W3C//DTD SVG 1.1//EN"
 "http://www.w3.org/Graphics/SVG/1.1/DTD/svg11.dtd">
<!-- Generated by graphviz version 2.26.3 (20100126.1600)
 -->
<!-- Title: G Pages: 1 -->
<svg width="494pt" height="1770pt"
 viewBox="0.00 0.00 494.00 1770.00" xmlns="http://www.w3.org/2000/svg" xmlns:xlink="http://www.w3.org/1999/xlink">
<g id="graph1" class="graph" transform="scale(1 1) rotate(0) translate(4 1766)">
<title>G</title>
<polygon fill="white" stroke="white" points="-4,5 -4,-1766 491,-1766 491,5 -4,5"/>
<g id="graph2" class="cluster"><title>cluster_Global</title>
<polyline fill="none" stroke="gray" points="20,-44 466,-44 "/>
<path fill="none" stroke="gray" d="M466,-44C472,-44 478,-50 478,-56"/>
<polyline fill="none" stroke="gray" points="478,-56 478,-1742 "/>
<path fill="none" stroke="gray" d="M478,-1742C478,-1748 472,-1754 466,-1754"/>
<polyline fill="none" stroke="gray" points="466,-1754 20,-1754 "/>
<path fill="none" stroke="gray" d="M20,-1754C14,-1754 8,-1748 8,-1742"/>
<polyline fill="none" stroke="gray" points="8,-1742 8,-56 "/>
<path fill="none" stroke="gray" d="M8,-56C8,-50 14,-44 20,-44"/>
<text text-anchor="middle" x="243" y="-1740.1" font-family="Times Roman,serif" font-size="11.00" fill="gray">\</text>
</g>
<g id="graph3" class="cluster"><title>cluster_\Karla</title>
<polyline fill="none" stroke="gray" points="28,-52 458,-52 "/>
<path fill="none" stroke="gray" d="M458,-52C464,-52 470,-58 470,-64"/>
<polyline fill="none" stroke="gray" points="470,-64 470,-1712 "/>
<path fill="none" stroke="gray" d="M470,-1712C470,-1718 464,-1724 458,-1724"/>
<polyline fill="none" stroke="gray" points="458,-1724 28,-1724 "/>
<path fill="none" stroke="gray" d="M28,-1724C22,-1724 16,-1718 16,-1712"/>
<polyline fill="none" stroke="gray" points="16,-1712 16,-64 "/>
<path fill="none" stroke="gray" d="M16,-64C16,-58 22,-52 28,-52"/>
<text text-anchor="middle" x="243" y="-1710.1" font-family="Times Roman,serif" font-size="11.00" fill="gray">Karla</text>
</g>
<g id="graph4" class="cluster"><title>cluster_\Karla\Cache</title>
<polyline fill="none" stroke="gray" points="385,-1620 431,-1620 "/>
<path fill="none" stroke="gray" d="M431,-1620C437,-1620 443,-1626 443,-1632"/>
<polyline fill="none" stroke="gray" points="443,-1632 443,-1682 "/>
<path fill="none" stroke="gray" d="M443,-1682C443,-1688 437,-1694 431,-1694"/>
<polyline fill="none" stroke="gray" points="431,-1694 385,-1694 "/>
<path fill="none" stroke="gray" d="M385,-1694C379,-1694 373,-1688 373,-1682"/>
<polyline fill="none" stroke="gray" points="373,-1682 373,-1632 "/>
<path fill="none" stroke="gray" d="M373,-1632C373,-1626 379,-1620 385,-1620"/>
<text text-anchor="middle" x="408" y="-1680.1" font-family="Times Roman,serif" font-size="11.00" fill="gray">Cache</text>
</g>
<g id="graph5" class="cluster"><title>cluster_\Karla\Program</title>
<polyline fill="none" stroke="gray" points="183,-1430 443,-1430 "/>
<path fill="none" stroke="gray" d="M443,-1430C449,-1430 455,-1436 455,-1442"/>
<polyline fill="none" stroke="gray" points="455,-1442 455,-1600 "/>
<path fill="none" stroke="gray" d="M455,-1600C455,-1606 449,-1612 443,-1612"/>
<polyline fill="none" stroke="gray" points="443,-1612 183,-1612 "/>
<path fill="none" stroke="gray" d="M183,-1612C177,-1612 171,-1606 171,-1600"/>
<polyline fill="none" stroke="gray" points="171,-1600 171,-1442 "/>
<path fill="none" stroke="gray" d="M171,-1442C171,-1436 177,-1430 183,-1430"/>
<text text-anchor="middle" x="313" y="-1598.1" font-family="Times Roman,serif" font-size="11.00" fill="gray">Program</text>
</g>
<g id="graph6" class="cluster"><title>cluster_\Karla\Action</title>
<polyline fill="none" stroke="gray" points="366,-322 450,-322 "/>
<path fill="none" stroke="gray" d="M450,-322C456,-322 462,-328 462,-334"/>
<polyline fill="none" stroke="gray" points="462,-334 462,-1410 "/>
<path fill="none" stroke="gray" d="M462,-1410C462,-1416 456,-1422 450,-1422"/>
<polyline fill="none" stroke="gray" points="450,-1422 366,-1422 "/>
<path fill="none" stroke="gray" d="M366,-1422C360,-1422 354,-1416 354,-1410"/>
<polyline fill="none" stroke="gray" points="354,-1410 354,-334 "/>
<path fill="none" stroke="gray" d="M354,-334C354,-328 360,-322 366,-322"/>
<text text-anchor="middle" x="408" y="-1408.1" font-family="Times Roman,serif" font-size="11.00" fill="gray">Action</text>
</g>
<!-- \\Karla\\Cache\\File -->
<g id="node4" class="node"><title>\\Karla\\Cache\\File</title>
<polygon fill="none" stroke="black" points="435,-1664 381,-1664 381,-1628 435,-1628 435,-1664"/>
<text text-anchor="middle" x="408" y="-1643.1" font-family="Courier,monospace" font-size="11.00">File</text>
</g>
<!-- \\Karla\\Cache -->
<g id="node38" class="node"><title>\\Karla\\Cache</title>
<polygon fill="none" stroke="black" points="252,-1664 198,-1664 198,-1628 252,-1628 252,-1664"/>
<text text-anchor="middle" x="225" y="-1643.1" font-family="Courier,monospace" font-size="11.00">Cache</text>
</g>
<!-- \\Karla\\Cache\\File&#45;&gt;\\Karla\\Cache -->
<g id="edge7" class="edge"><title>\\Karla\\Cache\\File&#45;&gt;\\Karla\\Cache</title>
<path fill="none" stroke="black" stroke-dasharray="1,5" d="M380.998,-1646C349.642,-1646 297.727,-1646 262.477,-1646"/>
<polygon fill="none" stroke="black" points="262.113,-1642.5 252.113,-1646 262.113,-1649.5 262.113,-1642.5"/>
</g>
<!-- \\Karla\\Program\\Composite -->
<g id="node6" class="node"><title>\\Karla\\Program\\Composite</title>
<polygon fill="none" stroke="black" points="446,-1528 370,-1528 370,-1492 446,-1492 446,-1528"/>
<text text-anchor="middle" x="408" y="-1507.1" font-family="Courier,monospace" font-size="11.00">Composite</text>
</g>
<!-- \\Karla\\Program\\ImageMagick -->
<g id="node9" class="node"><title>\\Karla\\Program\\ImageMagick</title>
<polygon fill="none" stroke="black" points="271,-1532 179,-1532 179,-1496 271,-1496 271,-1532"/>
<text text-anchor="start" x="191" y="-1519.43" font-family="Courier,monospace" font-size="11.00">«abstract»</text>
<text text-anchor="start" x="187.5" y="-1506.23" font-family="Courier,monospace" font-size="11.00">ImageMagick</text>
</g>
<!-- \\Karla\\Program\\Composite&#45;&gt;\\Karla\\Program\\ImageMagick -->
<g id="edge9" class="edge"><title>\\Karla\\Program\\Composite&#45;&gt;\\Karla\\Program\\ImageMagick</title>
<path fill="none" stroke="black" d="M369.19,-1510.85C343.681,-1511.41 309.882,-1512.14 281.42,-1512.77"/>
<polygon fill="none" stroke="black" points="281.122,-1509.27 271.201,-1512.99 281.275,-1516.27 281.122,-1509.27"/>
</g>
<!-- \\Karla\\Program\\Convert -->
<g id="node7" class="node"><title>\\Karla\\Program\\Convert</title>
<polygon fill="none" stroke="black" points="440,-1582 376,-1582 376,-1546 440,-1546 440,-1582"/>
<text text-anchor="middle" x="408" y="-1561.1" font-family="Courier,monospace" font-size="11.00">Convert</text>
</g>
<!-- \\Karla\\Program\\Convert&#45;&gt;\\Karla\\Program\\ImageMagick -->
<g id="edge11" class="edge"><title>\\Karla\\Program\\Convert&#45;&gt;\\Karla\\Program\\ImageMagick</title>
<path fill="none" stroke="black" d="M375.705,-1555.18C349.502,-1548.02 311.948,-1537.76 280.884,-1529.27"/>
<polygon fill="none" stroke="black" points="281.617,-1525.84 271.048,-1526.58 279.772,-1532.59 281.617,-1525.84"/>
</g>
<!-- \\Karla\\Program -->
<g id="node36" class="node"><title>\\Karla\\Program</title>
<polygon fill="none" stroke="black" points="88,-1554 24,-1554 24,-1518 88,-1518 88,-1554"/>
<text text-anchor="middle" x="56" y="-1533.1" font-family="Courier,monospace" font-size="11.00">Program</text>
</g>
<!-- \\Karla\\Program\\Convert&#45;&gt;\\Karla\\Program -->
<g id="edge13" class="edge"><title>\\Karla\\Program\\Convert&#45;&gt;\\Karla\\Program</title>
<path fill="none" stroke="black" stroke-dasharray="1,5" d="M375.829,-1561.44C312.014,-1556.36 169.436,-1545.02 98.1981,-1539.36"/>
<polygon fill="none" stroke="black" points="98.4692,-1535.87 88.2231,-1538.56 97.914,-1542.85 98.4692,-1535.87"/>
</g>
<!-- \\Karla\\Program\\Identify -->
<g id="node8" class="node"><title>\\Karla\\Program\\Identify</title>
<polygon fill="none" stroke="black" points="443,-1474 373,-1474 373,-1438 443,-1438 443,-1474"/>
<text text-anchor="middle" x="408" y="-1453.1" font-family="Courier,monospace" font-size="11.00">Identify</text>
</g>
<!-- \\Karla\\Program\\Identify&#45;&gt;\\Karla\\Program\\ImageMagick -->
<g id="edge15" class="edge"><title>\\Karla\\Program\\Identify&#45;&gt;\\Karla\\Program\\ImageMagick</title>
<path fill="none" stroke="black" d="M372.281,-1467.32C346.302,-1475.55 310.62,-1486.86 280.885,-1496.29"/>
<polygon fill="none" stroke="black" points="279.526,-1493.05 271.051,-1499.4 281.641,-1499.72 279.526,-1493.05"/>
</g>
<!-- \\Karla\\Program\\ImageMagick&#45;&gt;\\Karla\\Program -->
<g id="edge17" class="edge"><title>\\Karla\\Program\\ImageMagick&#45;&gt;\\Karla\\Program</title>
<path fill="none" stroke="black" stroke-dasharray="1,5" d="M178.82,-1520.01C153.679,-1523.28 122.796,-1527.3 98.2881,-1530.5"/>
<polygon fill="none" stroke="black" points="97.6748,-1527.05 88.2103,-1531.81 98.5785,-1533.99 97.6748,-1527.05"/>
</g>
<!-- \\Karla\\Action\\Type -->
<g id="node11" class="node"><title>\\Karla\\Action\\Type</title>
<polygon fill="none" stroke="black" points="435,-1392 381,-1392 381,-1356 435,-1356 435,-1392"/>
<text text-anchor="middle" x="408" y="-1371.1" font-family="Courier,monospace" font-size="11.00">Type</text>
</g>
<!-- \\Karla\\Action -->
<g id="node37" class="node"><title>\\Karla\\Action</title>
<polygon fill="none" stroke="black" points="253,-879 197,-879 197,-843 253,-843 253,-879"/>
<text text-anchor="middle" x="225" y="-858.1" font-family="Courier,monospace" font-size="11.00">Action</text>
</g>
<!-- \\Karla\\Action\\Type&#45;&gt;\\Karla\\Action -->
<g id="edge21" class="edge"><title>\\Karla\\Action\\Type&#45;&gt;\\Karla\\Action</title>
<path fill="none" stroke="black" stroke-dasharray="1,5" d="M380.774,-1365.69C371.085,-1361.49 360.882,-1355.45 354,-1347 294.821,-1274.31 244.153,-981.584 229.36,-889.13"/>
<polygon fill="none" stroke="black" points="232.795,-888.445 227.773,-879.116 225.881,-889.541 232.795,-888.445"/>
</g>
<!-- \\Karla\\Action\\Background -->
<g id="node12" class="node"><title>\\Karla\\Action\\Background</title>
<polygon fill="none" stroke="black" points="450,-1338 366,-1338 366,-1302 450,-1302 450,-1338"/>
<text text-anchor="middle" x="408" y="-1317.1" font-family="Courier,monospace" font-size="11.00">Background</text>
</g>
<!-- \\Karla\\Action\\Background&#45;&gt;\\Karla\\Action -->
<g id="edge23" class="edge"><title>\\Karla\\Action\\Background&#45;&gt;\\Karla\\Action</title>
<path fill="none" stroke="black" stroke-dasharray="1,5" d="M365.923,-1303.48C361.485,-1300.49 357.371,-1297.01 354,-1293 250.113,-1169.33 229.889,-964.345 225.952,-889.488"/>
<polygon fill="none" stroke="black" points="229.444,-889.239 225.481,-879.413 222.452,-889.566 229.444,-889.239"/>
</g>
<!-- \\Karla\\Action\\Gravity -->
<g id="node13" class="node"><title>\\Karla\\Action\\Gravity</title>
<polygon fill="none" stroke="black" points="440,-1284 376,-1284 376,-1248 440,-1248 440,-1284"/>
<text text-anchor="middle" x="408" y="-1263.1" font-family="Courier,monospace" font-size="11.00">Gravity</text>
</g>
<!-- \\Karla\\Action\\Gravity&#45;&gt;\\Karla\\Action -->
<g id="edge25" class="edge"><title>\\Karla\\Action\\Gravity&#45;&gt;\\Karla\\Action</title>
<path fill="none" stroke="black" stroke-dasharray="1,5" d="M375.752,-1254.93C367.784,-1250.94 359.861,-1245.71 354,-1239 261.333,-1132.92 234.505,-957.189 227.376,-889.132"/>
<polygon fill="none" stroke="black" points="230.858,-888.769 226.394,-879.161 223.891,-889.456 230.858,-888.769"/>
</g>
<!-- \\Karla\\Action\\Polaroid -->
<g id="node14" class="node"><title>\\Karla\\Action\\Polaroid</title>
<polygon fill="none" stroke="black" points="443,-1230 373,-1230 373,-1194 443,-1194 443,-1230"/>
<text text-anchor="middle" x="408" y="-1209.1" font-family="Courier,monospace" font-size="11.00">Polaroid</text>
</g>
<!-- \\Karla\\Action\\Polaroid&#45;&gt;\\Karla\\Action -->
<g id="edge27" class="edge"><title>\\Karla\\Action\\Polaroid&#45;&gt;\\Karla\\Action</title>
<path fill="none" stroke="black" stroke-dasharray="1,5" d="M372.324,-1198.82C365.611,-1195.12 359.106,-1190.56 354,-1185 272.663,-1096.46 239.892,-950.33 229.283,-889.228"/>
<polygon fill="none" stroke="black" points="232.703,-888.46 227.606,-879.172 225.798,-889.612 232.703,-888.46"/>
</g>
<!-- \\Karla\\Action\\Crop -->
<g id="node15" class="node"><title>\\Karla\\Action\\Crop</title>
<polygon fill="none" stroke="black" points="435,-1176 381,-1176 381,-1140 435,-1140 435,-1176"/>
<text text-anchor="middle" x="408" y="-1155.1" font-family="Courier,monospace" font-size="11.00">Crop</text>
</g>
<!-- \\Karla\\Action\\Crop&#45;&gt;\\Karla\\Action -->
<g id="edge29" class="edge"><title>\\Karla\\Action\\Crop&#45;&gt;\\Karla\\Action</title>
<path fill="none" stroke="black" stroke-dasharray="1,5" d="M380.742,-1148.6C371.388,-1144.35 361.418,-1138.55 354,-1131 283.696,-1059.42 246.05,-942.181 231.8,-888.908"/>
<polygon fill="none" stroke="black" points="235.163,-887.935 229.259,-879.138 228.389,-889.697 235.163,-887.935"/>
</g>
<!-- \\Karla\\Action\\Sepia -->
<g id="node16" class="node"><title>\\Karla\\Action\\Sepia</title>
<polygon fill="none" stroke="black" points="435,-1122 381,-1122 381,-1086 435,-1086 435,-1122"/>
<text text-anchor="middle" x="408" y="-1101.1" font-family="Courier,monospace" font-size="11.00">Sepia</text>
</g>
<!-- \\Karla\\Action\\Sepia&#45;&gt;\\Karla\\Action -->
<g id="edge31" class="edge"><title>\\Karla\\Action\\Sepia&#45;&gt;\\Karla\\Action</title>
<path fill="none" stroke="black" stroke-dasharray="1,5" d="M380.841,-1094.08C371.604,-1089.81 361.683,-1084.13 354,-1077 294.616,-1021.9 253.567,-933.259 235.457,-888.602"/>
<polygon fill="none" stroke="black" points="238.689,-887.259 231.743,-879.258 232.184,-889.844 238.689,-887.259"/>
</g>
<!-- \\Karla\\Action\\Profile -->
<g id="node17" class="node"><title>\\Karla\\Action\\Profile</title>
<polygon fill="none" stroke="black" points="440,-1068 376,-1068 376,-1032 440,-1032 440,-1068"/>
<text text-anchor="middle" x="408" y="-1047.1" font-family="Courier,monospace" font-size="11.00">Profile</text>
</g>
<!-- \\Karla\\Action\\Profile&#45;&gt;\\Karla\\Action -->
<g id="edge33" class="edge"><title>\\Karla\\Action\\Profile&#45;&gt;\\Karla\\Action</title>
<path fill="none" stroke="black" stroke-dasharray="1,5" d="M375.762,-1036.75C368.232,-1032.9 360.515,-1028.28 354,-1023 305.28,-983.523 263.068,-922.641 241.11,-887.845"/>
<polygon fill="none" stroke="black" points="243.972,-885.819 235.719,-879.176 238.028,-889.516 243.972,-885.819"/>
</g>
<!-- \\Karla\\Action\\Resize -->
<g id="node18" class="node"><title>\\Karla\\Action\\Resize</title>
<polygon fill="none" stroke="black" points="436,-1014 380,-1014 380,-978 436,-978 436,-1014"/>
<text text-anchor="middle" x="408" y="-993.1" font-family="Courier,monospace" font-size="11.00">Resize</text>
</g>
<!-- \\Karla\\Action\\Resize&#45;&gt;\\Karla\\Action -->
<g id="edge35" class="edge"><title>\\Karla\\Action\\Resize&#45;&gt;\\Karla\\Action</title>
<path fill="none" stroke="black" stroke-dasharray="1,5" d="M379.281,-983.189C370.905,-979.045 361.889,-974.172 354,-969 315.925,-944.036 276.391,-909.433 251.291,-886.183"/>
<polygon fill="none" stroke="black" points="253.679,-883.624 243.982,-879.356 248.9,-888.74 253.679,-883.624"/>
</g>
<!-- \\Karla\\Action\\Bordercolor -->
<g id="node19" class="node"><title>\\Karla\\Action\\Bordercolor</title>
<polygon fill="none" stroke="black" points="453,-960 363,-960 363,-924 453,-924 453,-960"/>
<text text-anchor="middle" x="408" y="-939.1" font-family="Courier,monospace" font-size="11.00">Bordercolor</text>
</g>
<!-- \\Karla\\Action\\Bordercolor&#45;&gt;\\Karla\\Action -->
<g id="edge37" class="edge"><title>\\Karla\\Action\\Bordercolor&#45;&gt;\\Karla\\Action</title>
<path fill="none" stroke="black" stroke-dasharray="1,5" d="M366.931,-923.822C335.837,-910.059 293.444,-891.295 263.101,-877.865"/>
<polygon fill="none" stroke="black" points="264.264,-874.552 253.703,-873.705 261.431,-880.953 264.264,-874.552"/>
</g>
<!-- \\Karla\\Action\\Strip -->
<g id="node20" class="node"><title>\\Karla\\Action\\Strip</title>
<polygon fill="none" stroke="black" points="435,-906 381,-906 381,-870 435,-870 435,-906"/>
<text text-anchor="middle" x="408" y="-885.1" font-family="Courier,monospace" font-size="11.00">Strip</text>
</g>
<!-- \\Karla\\Action\\Strip&#45;&gt;\\Karla\\Action -->
<g id="edge39" class="edge"><title>\\Karla\\Action\\Strip&#45;&gt;\\Karla\\Action</title>
<path fill="none" stroke="black" stroke-dasharray="1,5" d="M380.998,-884.016C349.96,-879.437 298.775,-871.885 263.552,-866.688"/>
<polygon fill="none" stroke="black" points="264.026,-863.22 253.622,-865.223 263.004,-870.145 264.026,-863.22"/>
</g>
<!-- \\Karla\\Action\\Resample -->
<g id="node21" class="node"><title>\\Karla\\Action\\Resample</title>
<polygon fill="none" stroke="black" points="443,-852 373,-852 373,-816 443,-816 443,-852"/>
<text text-anchor="middle" x="408" y="-831.1" font-family="Courier,monospace" font-size="11.00">Resample</text>
</g>
<!-- \\Karla\\Action\\Resample&#45;&gt;\\Karla\\Action -->
<g id="edge41" class="edge"><title>\\Karla\\Action\\Resample&#45;&gt;\\Karla\\Action</title>
<path fill="none" stroke="black" stroke-dasharray="1,5" d="M372.281,-839.27C341.026,-843.881 295.73,-850.564 263.638,-855.299"/>
<polygon fill="none" stroke="black" points="263.099,-851.841 253.717,-856.763 264.121,-858.766 263.099,-851.841"/>
</g>
<!-- \\Karla\\Action\\Size -->
<g id="node22" class="node"><title>\\Karla\\Action\\Size</title>
<polygon fill="none" stroke="black" points="435,-798 381,-798 381,-762 435,-762 435,-798"/>
<text text-anchor="middle" x="408" y="-777.1" font-family="Courier,monospace" font-size="11.00">Size</text>
</g>
<!-- \\Karla\\Action\\Size&#45;&gt;\\Karla\\Action -->
<g id="edge43" class="edge"><title>\\Karla\\Action\\Size&#45;&gt;\\Karla\\Action</title>
<path fill="none" stroke="black" stroke-dasharray="1,5" d="M380.717,-793.649C345.955,-811.038 290.291,-838.879 290,-839 281.531,-842.531 272.275,-845.928 263.472,-848.953"/>
<polygon fill="none" stroke="black" points="262.161,-845.701 253.791,-852.197 264.385,-852.338 262.161,-845.701"/>
</g>
<!-- \\Karla\\Action\\Density -->
<g id="node23" class="node"><title>\\Karla\\Action\\Density</title>
<polygon fill="none" stroke="black" points="440,-744 376,-744 376,-708 440,-708 440,-744"/>
<text text-anchor="middle" x="408" y="-723.1" font-family="Courier,monospace" font-size="11.00">Density</text>
</g>
<!-- \\Karla\\Action\\Density&#45;&gt;\\Karla\\Action -->
<g id="edge45" class="edge"><title>\\Karla\\Action\\Density&#45;&gt;\\Karla\\Action</title>
<path fill="none" stroke="black" stroke-dasharray="1,5" d="M375.921,-738.958C368.304,-742.843 360.508,-747.548 354,-753 317.478,-783.596 328.535,-810.981 290,-839 282.145,-844.711 272.703,-849.016 263.479,-852.231"/>
<polygon fill="none" stroke="black" points="262.142,-848.981 253.643,-855.306 264.231,-855.663 262.142,-848.981"/>
</g>
<!-- \\Karla\\Action\\Layers -->
<g id="node24" class="node"><title>\\Karla\\Action\\Layers</title>
<polygon fill="none" stroke="black" points="436,-690 380,-690 380,-654 436,-654 436,-690"/>
<text text-anchor="middle" x="408" y="-669.1" font-family="Courier,monospace" font-size="11.00">Layers</text>
</g>
<!-- \\Karla\\Action\\Layers&#45;&gt;\\Karla\\Action -->
<g id="edge47" class="edge"><title>\\Karla\\Action\\Layers&#45;&gt;\\Karla\\Action</title>
<path fill="none" stroke="black" stroke-dasharray="1,5" d="M379.277,-681.975C370.331,-686.156 360.99,-691.762 354,-699 306.474,-748.213 340.79,-793.163 290,-839 282.517,-845.753 272.88,-850.446 263.33,-853.702"/>
<polygon fill="none" stroke="black" points="262.105,-850.414 253.504,-856.602 264.086,-857.128 262.105,-850.414"/>
</g>
<!-- \\Karla\\Action\\Colorspace -->
<g id="node25" class="node"><title>\\Karla\\Action\\Colorspace</title>
<polygon fill="none" stroke="black" points="450,-636 366,-636 366,-600 450,-600 450,-636"/>
<text text-anchor="middle" x="408" y="-615.1" font-family="Courier,monospace" font-size="11.00">Colorspace</text>
</g>
<!-- \\Karla\\Action\\Colorspace&#45;&gt;\\Karla\\Action -->
<g id="edge49" class="edge"><title>\\Karla\\Action\\Colorspace&#45;&gt;\\Karla\\Action</title>
<path fill="none" stroke="black" stroke-dasharray="1,5" d="M365.766,-634.79C361.411,-637.728 357.359,-641.115 354,-645 294.619,-713.682 353.953,-774.553 290,-839 282.762,-846.294 273.023,-851.17 263.29,-854.43"/>
<polygon fill="none" stroke="black" points="262.307,-851.071 253.652,-857.181 264.228,-857.802 262.307,-851.071"/>
</g>
<!-- \\Karla\\Action\\Flop -->
<g id="node26" class="node"><title>\\Karla\\Action\\Flop</title>
<polygon fill="none" stroke="black" points="435,-582 381,-582 381,-546 435,-546 435,-582"/>
<text text-anchor="middle" x="408" y="-561.1" font-family="Courier,monospace" font-size="11.00">Flop</text>
</g>
<!-- \\Karla\\Action\\Flop&#45;&gt;\\Karla\\Action -->
<g id="edge51" class="edge"><title>\\Karla\\Action\\Flop&#45;&gt;\\Karla\\Action</title>
<path fill="none" stroke="black" stroke-dasharray="1,5" d="M380.743,-572.287C371.05,-576.477 360.853,-582.523 354,-591 282.436,-679.524 367.468,-755.593 290,-839 282.946,-846.594 273.18,-851.568 263.359,-854.825"/>
<polygon fill="none" stroke="black" points="262.31,-851.484 253.619,-857.543 264.192,-858.226 262.31,-851.484"/>
</g>
<!-- \\Karla\\Action\\Quality -->
<g id="node27" class="node"><title>\\Karla\\Action\\Quality</title>
<polygon fill="none" stroke="black" points="440,-528 376,-528 376,-492 440,-492 440,-528"/>
<text text-anchor="middle" x="408" y="-507.1" font-family="Courier,monospace" font-size="11.00">Quality</text>
</g>
<!-- \\Karla\\Action\\Quality&#45;&gt;\\Karla\\Action -->
<g id="edge53" class="edge"><title>\\Karla\\Action\\Quality&#45;&gt;\\Karla\\Action</title>
<path fill="none" stroke="black" stroke-dasharray="1,5" d="M375.762,-520.331C367.599,-524.355 359.576,-529.785 354,-537 270.097,-645.558 381.152,-736.452 290,-839 283.114,-846.747 273.401,-851.769 263.578,-855.024"/>
<polygon fill="none" stroke="black" points="262.523,-851.684 253.819,-857.725 264.391,-858.431 262.523,-851.684"/>
</g>
<!-- \\Karla\\Action\\Flatten -->
<g id="node28" class="node"><title>\\Karla\\Action\\Flatten</title>
<polygon fill="none" stroke="black" points="440,-474 376,-474 376,-438 440,-438 440,-474"/>
<text text-anchor="middle" x="408" y="-453.1" font-family="Courier,monospace" font-size="11.00">Flatten</text>
</g>
<!-- \\Karla\\Action\\Flatten&#45;&gt;\\Karla\\Action -->
<g id="edge55" class="edge"><title>\\Karla\\Action\\Flatten&#45;&gt;\\Karla\\Action</title>
<path fill="none" stroke="black" stroke-dasharray="1,5" d="M375.897,-466.081C367.635,-470.117 359.527,-475.616 354,-483 257.672,-611.702 394.929,-717.208 290,-839 283.176,-846.92 273.394,-851.996 263.482,-855.246"/>
<polygon fill="none" stroke="black" points="262.363,-851.923 253.632,-857.925 264.201,-858.677 262.363,-851.923"/>
</g>
<!-- \\Karla\\Action\\Rotate -->
<g id="node29" class="node"><title>\\Karla\\Action\\Rotate</title>
<polygon fill="none" stroke="black" points="436,-420 380,-420 380,-384 436,-384 436,-420"/>
<text text-anchor="middle" x="408" y="-399.1" font-family="Courier,monospace" font-size="11.00">Rotate</text>
</g>
<!-- \\Karla\\Action\\Rotate&#45;&gt;\\Karla\\Action -->
<g id="edge57" class="edge"><title>\\Karla\\Action\\Rotate&#45;&gt;\\Karla\\Action</title>
<path fill="none" stroke="black" stroke-dasharray="1,5" d="M379.452,-410.307C369.968,-414.446 360.245,-420.452 354,-429 245.196,-577.915 408.762,-697.899 290,-839 283.268,-846.998 273.514,-852.098 263.601,-855.347"/>
<polygon fill="none" stroke="black" points="262.478,-852.025 253.74,-858.017 264.308,-858.781 262.478,-852.025"/>
</g>
<!-- \\Karla\\Action\\Flip -->
<g id="node30" class="node"><title>\\Karla\\Action\\Flip</title>
<polygon fill="none" stroke="black" points="435,-366 381,-366 381,-330 435,-330 435,-366"/>
<text text-anchor="middle" x="408" y="-345.1" font-family="Courier,monospace" font-size="11.00">Flip</text>
</g>
<!-- \\Karla\\Action\\Flip&#45;&gt;\\Karla\\Action -->
<g id="edge59" class="edge"><title>\\Karla\\Action\\Flip&#45;&gt;\\Karla\\Action</title>
<path fill="none" stroke="black" stroke-dasharray="1,5" d="M380.776,-355.647C370.846,-359.79 360.475,-365.971 354,-375 232.686,-544.174 422.632,-678.546 290,-839 283.339,-847.058 273.608,-852.176 263.693,-855.424"/>
<polygon fill="none" stroke="black" points="262.567,-852.103 253.825,-858.088 264.391,-858.861 262.567,-852.103"/>
</g>
<!-- \\Karla\\Query -->
<g id="node31" class="node"><title>\\Karla\\Query</title>
<polygon fill="none" stroke="black" points="435,-312 381,-312 381,-276 435,-276 435,-312"/>
<text text-anchor="middle" x="408" y="-291.1" font-family="Courier,monospace" font-size="11.00">Query</text>
</g>
<!-- \\Karla\\Karla -->
<g id="node32" class="node"><title>\\Karla\\Karla</title>
<polygon fill="none" stroke="black" points="435,-258 381,-258 381,-222 435,-222 435,-258"/>
<text text-anchor="middle" x="408" y="-237.1" font-family="Courier,monospace" font-size="11.00">Karla</text>
</g>
<!-- \\Karla\\Color -->
<g id="node33" class="node"><title>\\Karla\\Color</title>
<polygon fill="none" stroke="black" points="435,-204 381,-204 381,-168 435,-168 435,-204"/>
<text text-anchor="middle" x="408" y="-183.1" font-family="Courier,monospace" font-size="11.00">Color</text>
</g>
<!-- \\Karla\\Support -->
<g id="node34" class="node"><title>\\Karla\\Support</title>
<polygon fill="none" stroke="black" points="440,-150 376,-150 376,-114 440,-114 440,-150"/>
<text text-anchor="middle" x="408" y="-129.1" font-family="Courier,monospace" font-size="11.00">Support</text>
</g>
<!-- \\Karla\\MetaData -->
<g id="node35" class="node"><title>\\Karla\\MetaData</title>
<polygon fill="none" stroke="black" points="443,-96 373,-96 373,-60 443,-60 443,-96"/>
<text text-anchor="middle" x="408" y="-75.1" font-family="Courier,monospace" font-size="11.00">MetaData</text>
</g>
<!-- \\SplFileInfo -->
<g id="node46" class="node"><title>\\SplFileInfo</title>
<ellipse fill="none" stroke="black" cx="225" cy="-18" rx="65.0538" ry="18.3848"/>
<text text-anchor="middle" x="225" y="-14.4" font-family="Times Roman,serif" font-size="14.00" fill="gray">\SplFileInfo</text>
</g>
<!-- \\Karla\\MetaData&#45;&gt;\\SplFileInfo -->
<g id="edge19" class="edge"><title>\\Karla\\MetaData&#45;&gt;\\SplFileInfo</title>
<path fill="none" stroke="black" d="M372.281,-66.289C345.062,-57.3647 307.194,-44.9489 276.672,-34.9416"/>
<polygon fill="none" stroke="black" points="277.636,-31.5744 267.043,-31.7846 275.455,-38.226 277.636,-31.5744"/>
</g>
</g>
</svg>
