<?xml version="1.0" encoding="UTF-8" standalone="no"?>
<!DOCTYPE svg PUBLIC "-//W3C//DTD SVG 1.1//EN"
 "http://www.w3.org/Graphics/SVG/1.1/DTD/svg11.dtd">
<!-- Generated by graphviz version 2.26.3 (20100126.1600)
 -->
<!-- Title: G Pages: 1 -->
<svg width="484pt" height="1561pt"
 viewBox="0.00 0.00 484.00 1561.00" xmlns="http://www.w3.org/2000/svg" xmlns:xlink="http://www.w3.org/1999/xlink">
<g id="graph1" class="graph" transform="scale(1 1) rotate(0) translate(4 1557)">
<title>G</title>
<polygon fill="white" stroke="white" points="-4,5 -4,-1557 481,-1557 481,5 -4,5"/>
<g id="graph2" class="cluster"><title>cluster_Global</title>
<polyline fill="none" stroke="gray" points="20,-46 456,-46 "/>
<path fill="none" stroke="gray" d="M456,-46C462,-46 468,-52 468,-58"/>
<polyline fill="none" stroke="gray" points="468,-58 468,-1533 "/>
<path fill="none" stroke="gray" d="M468,-1533C468,-1539 462,-1545 456,-1545"/>
<polyline fill="none" stroke="gray" points="456,-1545 20,-1545 "/>
<path fill="none" stroke="gray" d="M20,-1545C14,-1545 8,-1539 8,-1533"/>
<polyline fill="none" stroke="gray" points="8,-1533 8,-58 "/>
<path fill="none" stroke="gray" d="M8,-58C8,-52 14,-46 20,-46"/>
<text text-anchor="middle" x="238" y="-1531.1" font-family="Times Roman,serif" font-size="11.00" fill="gray">\</text>
</g>
<g id="graph3" class="cluster"><title>cluster_\Karla</title>
<polyline fill="none" stroke="gray" points="28,-54 448,-54 "/>
<path fill="none" stroke="gray" d="M448,-54C454,-54 460,-60 460,-66"/>
<polyline fill="none" stroke="gray" points="460,-66 460,-1502 "/>
<path fill="none" stroke="gray" d="M460,-1502C460,-1508 454,-1514 448,-1514"/>
<polyline fill="none" stroke="gray" points="448,-1514 28,-1514 "/>
<path fill="none" stroke="gray" d="M28,-1514C22,-1514 16,-1508 16,-1502"/>
<polyline fill="none" stroke="gray" points="16,-1502 16,-66 "/>
<path fill="none" stroke="gray" d="M16,-66C16,-60 22,-54 28,-54"/>
<text text-anchor="middle" x="238" y="-1500.1" font-family="Times Roman,serif" font-size="11.00" fill="gray">Karla</text>
</g>
<g id="graph4" class="cluster"><title>cluster_\Karla\Cache</title>
<polyline fill="none" stroke="gray" points="375,-1408 421,-1408 "/>
<path fill="none" stroke="gray" d="M421,-1408C427,-1408 433,-1414 433,-1420"/>
<polyline fill="none" stroke="gray" points="433,-1420 433,-1471 "/>
<path fill="none" stroke="gray" d="M433,-1471C433,-1477 427,-1483 421,-1483"/>
<polyline fill="none" stroke="gray" points="421,-1483 375,-1483 "/>
<path fill="none" stroke="gray" d="M375,-1483C369,-1483 363,-1477 363,-1471"/>
<polyline fill="none" stroke="gray" points="363,-1471 363,-1420 "/>
<path fill="none" stroke="gray" d="M363,-1420C363,-1414 369,-1408 375,-1408"/>
<text text-anchor="middle" x="398" y="-1469.1" font-family="Times Roman,serif" font-size="11.00" fill="gray">Cache</text>
</g>
<g id="graph5" class="cluster"><title>cluster_\Karla\Program</title>
<polyline fill="none" stroke="gray" points="178,-1217 433,-1217 "/>
<path fill="none" stroke="gray" d="M433,-1217C439,-1217 445,-1223 445,-1229"/>
<polyline fill="none" stroke="gray" points="445,-1229 445,-1388 "/>
<path fill="none" stroke="gray" d="M445,-1388C445,-1394 439,-1400 433,-1400"/>
<polyline fill="none" stroke="gray" points="433,-1400 178,-1400 "/>
<path fill="none" stroke="gray" d="M178,-1400C172,-1400 166,-1394 166,-1388"/>
<polyline fill="none" stroke="gray" points="166,-1388 166,-1229 "/>
<path fill="none" stroke="gray" d="M166,-1229C166,-1223 172,-1217 178,-1217"/>
<text text-anchor="middle" x="305.5" y="-1386.1" font-family="Times Roman,serif" font-size="11.00" fill="gray">Program</text>
</g>
<g id="graph6" class="cluster"><title>cluster_\Karla\Action</title>
<polyline fill="none" stroke="gray" points="356,-324 440,-324 "/>
<path fill="none" stroke="gray" d="M440,-324C446,-324 452,-330 452,-336"/>
<polyline fill="none" stroke="gray" points="452,-336 452,-1197 "/>
<path fill="none" stroke="gray" d="M452,-1197C452,-1203 446,-1209 440,-1209"/>
<polyline fill="none" stroke="gray" points="440,-1209 356,-1209 "/>
<path fill="none" stroke="gray" d="M356,-1209C350,-1209 344,-1203 344,-1197"/>
<polyline fill="none" stroke="gray" points="344,-1197 344,-336 "/>
<path fill="none" stroke="gray" d="M344,-336C344,-330 350,-324 356,-324"/>
<text text-anchor="middle" x="398" y="-1195.1" font-family="Times Roman,serif" font-size="11.00" fill="gray">Action</text>
</g>
<!-- \\Karla\\Cache\\File -->
<g id="node4" class="node"><title>\\Karla\\Cache\\File</title>
<polygon fill="none" stroke="black" points="425,-1452 371,-1452 371,-1416 425,-1416 425,-1452"/>
<text text-anchor="middle" x="398" y="-1431.1" font-family="Courier,monospace" font-size="11.00">File</text>
</g>
<!-- \\Karla\\Cache -->
<g id="node34" class="node"><title>\\Karla\\Cache</title>
<polygon fill="none" stroke="black" points="247,-1452 193,-1452 193,-1416 247,-1416 247,-1452"/>
<text text-anchor="middle" x="220" y="-1431.1" font-family="Courier,monospace" font-size="11.00">Cache</text>
</g>
<!-- \\Karla\\Cache\\File&#45;&gt;\\Karla\\Cache -->
<g id="edge7" class="edge"><title>\\Karla\\Cache\\File&#45;&gt;\\Karla\\Cache</title>
<path fill="none" stroke="black" stroke-dasharray="1,5" d="M370.966,-1434C340.646,-1434 291.279,-1434 257.302,-1434"/>
<polygon fill="none" stroke="black" points="257.289,-1430.5 247.289,-1434 257.289,-1437.5 257.289,-1430.5"/>
</g>
<!-- \\Karla\\Program\\Identify -->
<g id="node6" class="node"><title>\\Karla\\Program\\Identify</title>
<polygon fill="none" stroke="black" points="433,-1315 363,-1315 363,-1279 433,-1279 433,-1315"/>
<text text-anchor="middle" x="398" y="-1294.1" font-family="Courier,monospace" font-size="11.00">Identify</text>
</g>
<!-- \\Karla\\Program\\ImageMagick -->
<g id="node8" class="node"><title>\\Karla\\Program\\ImageMagick</title>
<polygon fill="none" stroke="black" points="266,-1319 174,-1319 174,-1283 266,-1283 266,-1319"/>
<text text-anchor="start" x="186" y="-1306.43" font-family="Courier,monospace" font-size="11.00">«abstract»</text>
<text text-anchor="start" x="182.5" y="-1293.23" font-family="Courier,monospace" font-size="11.00">ImageMagick</text>
</g>
<!-- \\Karla\\Program\\Identify&#45;&gt;\\Karla\\Program\\ImageMagick -->
<g id="edge9" class="edge"><title>\\Karla\\Program\\Identify&#45;&gt;\\Karla\\Program\\ImageMagick</title>
<path fill="none" stroke="black" d="M362.407,-1297.8C337.739,-1298.35 304.385,-1299.1 276.158,-1299.74"/>
<polygon fill="none" stroke="black" points="275.935,-1296.24 266.016,-1299.97 276.092,-1303.24 275.935,-1296.24"/>
</g>
<!-- \\Karla\\Program\\Convert -->
<g id="node7" class="node"><title>\\Karla\\Program\\Convert</title>
<polygon fill="none" stroke="black" points="430,-1369 366,-1369 366,-1333 430,-1333 430,-1369"/>
<text text-anchor="middle" x="398" y="-1348.1" font-family="Courier,monospace" font-size="11.00">Convert</text>
</g>
<!-- \\Karla\\Program\\Convert&#45;&gt;\\Karla\\Program\\ImageMagick -->
<g id="edge11" class="edge"><title>\\Karla\\Program\\Convert&#45;&gt;\\Karla\\Program\\ImageMagick</title>
<path fill="none" stroke="black" d="M365.766,-1341.95C340.743,-1334.92 305.445,-1325 275.852,-1316.69"/>
<polygon fill="none" stroke="black" points="276.632,-1313.27 266.058,-1313.94 274.739,-1320.01 276.632,-1313.27"/>
</g>
<!-- \\Karla\\Program -->
<g id="node33" class="node"><title>\\Karla\\Program</title>
<polygon fill="none" stroke="black" points="88,-1341 24,-1341 24,-1305 88,-1305 88,-1341"/>
<text text-anchor="middle" x="56" y="-1320.1" font-family="Courier,monospace" font-size="11.00">Program</text>
</g>
<!-- \\Karla\\Program\\Convert&#45;&gt;\\Karla\\Program -->
<g id="edge13" class="edge"><title>\\Karla\\Program\\Convert&#45;&gt;\\Karla\\Program</title>
<path fill="none" stroke="black" stroke-dasharray="1,5" d="M365.825,-1348.37C303.826,-1343.29 167.816,-1332.15 98.4715,-1326.48"/>
<polygon fill="none" stroke="black" points="98.5905,-1322.98 88.3382,-1325.65 98.0192,-1329.95 98.5905,-1322.98"/>
</g>
<!-- \\Karla\\Program\\ImageMagick&#45;&gt;\\Karla\\Program -->
<g id="edge15" class="edge"><title>\\Karla\\Program\\ImageMagick&#45;&gt;\\Karla\\Program</title>
<path fill="none" stroke="black" stroke-dasharray="1,5" d="M173.88,-1307.19C150.137,-1310.37 121.394,-1314.23 98.2345,-1317.33"/>
<polygon fill="none" stroke="black" points="97.4705,-1313.91 88.0247,-1318.7 98.4012,-1320.84 97.4705,-1313.91"/>
</g>
<!-- \\Karla\\Program\\Composite -->
<g id="node9" class="node"><title>\\Karla\\Program\\Composite</title>
<polygon fill="none" stroke="black" points="436,-1261 360,-1261 360,-1225 436,-1225 436,-1261"/>
<text text-anchor="middle" x="398" y="-1240.1" font-family="Courier,monospace" font-size="11.00">Composite</text>
</g>
<!-- \\Karla\\Program\\Composite&#45;&gt;\\Karla\\Program\\ImageMagick -->
<g id="edge17" class="edge"><title>\\Karla\\Program\\Composite&#45;&gt;\\Karla\\Program\\ImageMagick</title>
<path fill="none" stroke="black" d="M359.377,-1255.59C334.971,-1263.54 303.03,-1273.95 275.883,-1282.79"/>
<polygon fill="none" stroke="black" points="274.545,-1279.55 266.122,-1285.97 276.714,-1286.2 274.545,-1279.55"/>
</g>
<!-- \\Karla\\Action\\Polaroid -->
<g id="node11" class="node"><title>\\Karla\\Action\\Polaroid</title>
<polygon fill="none" stroke="black" points="433,-1178 363,-1178 363,-1142 433,-1142 433,-1178"/>
<text text-anchor="middle" x="398" y="-1157.1" font-family="Courier,monospace" font-size="11.00">Polaroid</text>
</g>
<!-- \\Karla\\Action -->
<g id="node32" class="node"><title>\\Karla\\Action</title>
<polygon fill="none" stroke="black" points="248,-773 192,-773 192,-737 248,-737 248,-773"/>
<text text-anchor="middle" x="220" y="-752.1" font-family="Courier,monospace" font-size="11.00">Action</text>
</g>
<!-- \\Karla\\Action\\Polaroid&#45;&gt;\\Karla\\Action -->
<g id="edge19" class="edge"><title>\\Karla\\Action\\Polaroid&#45;&gt;\\Karla\\Action</title>
<path fill="none" stroke="black" stroke-dasharray="1,5" d="M362.333,-1147.21C355.539,-1143.48 349,-1138.79 344,-1133 252.331,-1026.79 228.065,-851.137 221.952,-783.116"/>
<polygon fill="none" stroke="black" points="225.44,-782.824 221.12,-773.15 218.465,-783.407 225.44,-782.824"/>
</g>
<!-- \\Karla\\Action\\Colorspace -->
<g id="node12" class="node"><title>\\Karla\\Action\\Colorspace</title>
<polygon fill="none" stroke="black" points="440,-1124 356,-1124 356,-1088 440,-1088 440,-1124"/>
<text text-anchor="middle" x="398" y="-1103.1" font-family="Courier,monospace" font-size="11.00">Colorspace</text>
</g>
<!-- \\Karla\\Action\\Colorspace&#45;&gt;\\Karla\\Action -->
<g id="edge21" class="edge"><title>\\Karla\\Action\\Colorspace&#45;&gt;\\Karla\\Action</title>
<path fill="none" stroke="black" stroke-dasharray="1,5" d="M355.943,-1089.05C351.556,-1086.14 347.449,-1082.81 344,-1079 263.679,-990.384 233.356,-844.295 223.794,-783.216"/>
<polygon fill="none" stroke="black" points="227.231,-782.536 222.29,-773.165 220.309,-783.572 227.231,-782.536"/>
</g>
<!-- \\Karla\\Action\\Layers -->
<g id="node13" class="node"><title>\\Karla\\Action\\Layers</title>
<polygon fill="none" stroke="black" points="426,-1070 370,-1070 370,-1034 426,-1034 426,-1070"/>
<text text-anchor="middle" x="398" y="-1049.1" font-family="Courier,monospace" font-size="11.00">Layers</text>
</g>
<!-- \\Karla\\Action\\Layers&#45;&gt;\\Karla\\Action -->
<g id="edge23" class="edge"><title>\\Karla\\Action\\Layers&#45;&gt;\\Karla\\Action</title>
<path fill="none" stroke="black" stroke-dasharray="1,5" d="M369.285,-1042.02C360.339,-1037.84 350.996,-1032.23 344,-1025 274.736,-953.403 239.407,-836.171 226.231,-782.904"/>
<polygon fill="none" stroke="black" points="229.624,-782.043 223.888,-773.136 222.817,-783.676 229.624,-782.043"/>
</g>
<!-- \\Karla\\Action\\Resize -->
<g id="node14" class="node"><title>\\Karla\\Action\\Resize</title>
<polygon fill="none" stroke="black" points="426,-1016 370,-1016 370,-980 426,-980 426,-1016"/>
<text text-anchor="middle" x="398" y="-995.1" font-family="Courier,monospace" font-size="11.00">Resize</text>
</g>
<!-- \\Karla\\Action\\Resize&#45;&gt;\\Karla\\Action -->
<g id="edge25" class="edge"><title>\\Karla\\Action\\Resize&#45;&gt;\\Karla\\Action</title>
<path fill="none" stroke="black" stroke-dasharray="1,5" d="M369.381,-987.506C360.544,-983.316 351.24,-977.836 344,-971 285.807,-916.06 246.944,-827.658 229.878,-782.896"/>
<polygon fill="none" stroke="black" points="233.061,-781.413 226.288,-773.266 226.502,-783.859 233.061,-781.413"/>
</g>
<!-- \\Karla\\Action\\Bordercolor -->
<g id="node15" class="node"><title>\\Karla\\Action\\Bordercolor</title>
<polygon fill="none" stroke="black" points="443,-962 353,-962 353,-926 443,-926 443,-962"/>
<text text-anchor="middle" x="398" y="-941.1" font-family="Courier,monospace" font-size="11.00">Bordercolor</text>
</g>
<!-- \\Karla\\Action\\Bordercolor&#45;&gt;\\Karla\\Action -->
<g id="edge27" class="edge"><title>\\Karla\\Action\\Bordercolor&#45;&gt;\\Karla\\Action</title>
<path fill="none" stroke="black" stroke-dasharray="1,5" d="M356.665,-925.839C352.201,-923.157 347.878,-920.205 344,-917 296.379,-877.651 256.089,-816.723 235.245,-781.884"/>
<polygon fill="none" stroke="black" points="238.223,-780.043 230.132,-773.204 232.192,-783.596 238.223,-780.043"/>
</g>
<!-- \\Karla\\Action\\Size -->
<g id="node16" class="node"><title>\\Karla\\Action\\Size</title>
<polygon fill="none" stroke="black" points="425,-908 371,-908 371,-872 425,-872 425,-908"/>
<text text-anchor="middle" x="398" y="-887.1" font-family="Courier,monospace" font-size="11.00">Size</text>
</g>
<!-- \\Karla\\Action\\Size&#45;&gt;\\Karla\\Action -->
<g id="edge29" class="edge"><title>\\Karla\\Action\\Size&#45;&gt;\\Karla\\Action</title>
<path fill="none" stroke="black" stroke-dasharray="1,5" d="M370.884,-878.104C362.045,-873.796 352.361,-868.599 344,-863 306.971,-838.202 268.993,-803.488 244.993,-780.173"/>
<polygon fill="none" stroke="black" points="247.301,-777.534 237.711,-773.03 242.399,-782.531 247.301,-777.534"/>
</g>
<!-- \\Karla\\Action\\Sepia -->
<g id="node17" class="node"><title>\\Karla\\Action\\Sepia</title>
<polygon fill="none" stroke="black" points="425,-854 371,-854 371,-818 425,-818 425,-854"/>
<text text-anchor="middle" x="398" y="-833.1" font-family="Courier,monospace" font-size="11.00">Sepia</text>
</g>
<!-- \\Karla\\Action\\Sepia&#45;&gt;\\Karla\\Action -->
<g id="edge31" class="edge"><title>\\Karla\\Action\\Sepia&#45;&gt;\\Karla\\Action</title>
<path fill="none" stroke="black" stroke-dasharray="1,5" d="M370.966,-823.698C340.829,-809.984 291.875,-787.707 257.919,-772.255"/>
<polygon fill="none" stroke="black" points="259.319,-769.047 248.767,-768.091 256.419,-775.418 259.319,-769.047"/>
</g>
<!-- \\Karla\\Action\\Flip -->
<g id="node18" class="node"><title>\\Karla\\Action\\Flip</title>
<polygon fill="none" stroke="black" points="425,-800 371,-800 371,-764 425,-764 425,-800"/>
<text text-anchor="middle" x="398" y="-779.1" font-family="Courier,monospace" font-size="11.00">Flip</text>
</g>
<!-- \\Karla\\Action\\Flip&#45;&gt;\\Karla\\Action -->
<g id="edge33" class="edge"><title>\\Karla\\Action\\Flip&#45;&gt;\\Karla\\Action</title>
<path fill="none" stroke="black" stroke-dasharray="1,5" d="M370.966,-777.899C341.087,-773.367 292.711,-766.029 258.793,-760.884"/>
<polygon fill="none" stroke="black" points="259.179,-757.403 248.767,-759.364 258.129,-764.324 259.179,-757.403"/>
</g>
<!-- \\Karla\\Action\\Quality -->
<g id="node19" class="node"><title>\\Karla\\Action\\Quality</title>
<polygon fill="none" stroke="black" points="430,-746 366,-746 366,-710 430,-710 430,-746"/>
<text text-anchor="middle" x="398" y="-725.1" font-family="Courier,monospace" font-size="11.00">Quality</text>
</g>
<!-- \\Karla\\Action\\Quality&#45;&gt;\\Karla\\Action -->
<g id="edge35" class="edge"><title>\\Karla\\Action\\Quality&#45;&gt;\\Karla\\Action</title>
<path fill="none" stroke="black" stroke-dasharray="1,5" d="M365.766,-732.889C335.662,-737.456 290.687,-744.278 258.665,-749.135"/>
<polygon fill="none" stroke="black" points="258.121,-745.678 248.759,-750.638 259.171,-752.598 258.121,-745.678"/>
</g>
<!-- \\Karla\\Action\\Background -->
<g id="node20" class="node"><title>\\Karla\\Action\\Background</title>
<polygon fill="none" stroke="black" points="440,-692 356,-692 356,-656 440,-656 440,-692"/>
<text text-anchor="middle" x="398" y="-671.1" font-family="Courier,monospace" font-size="11.00">Background</text>
</g>
<!-- \\Karla\\Action\\Background&#45;&gt;\\Karla\\Action -->
<g id="edge37" class="edge"><title>\\Karla\\Action\\Background&#45;&gt;\\Karla\\Action</title>
<path fill="none" stroke="black" stroke-dasharray="1,5" d="M361.742,-692.137C327.158,-709.434 280.265,-732.885 280,-733 273.067,-735.993 265.579,-738.95 258.322,-741.678"/>
<polygon fill="none" stroke="black" points="256.82,-738.501 248.642,-745.238 259.236,-745.071 256.82,-738.501"/>
</g>
<!-- \\Karla\\Action\\Strip -->
<g id="node21" class="node"><title>\\Karla\\Action\\Strip</title>
<polygon fill="none" stroke="black" points="425,-638 371,-638 371,-602 425,-602 425,-638"/>
<text text-anchor="middle" x="398" y="-617.1" font-family="Courier,monospace" font-size="11.00">Strip</text>
</g>
<!-- \\Karla\\Action\\Strip&#45;&gt;\\Karla\\Action -->
<g id="edge39" class="edge"><title>\\Karla\\Action\\Strip&#45;&gt;\\Karla\\Action</title>
<path fill="none" stroke="black" stroke-dasharray="1,5" d="M370.956,-630.49C361.832,-634.789 351.954,-640.336 344,-647 307.478,-677.596 318.18,-704.5 280,-733 273.499,-737.853 265.816,-741.729 258.157,-744.789"/>
<polygon fill="none" stroke="black" points="256.784,-741.564 248.559,-748.242 259.154,-748.15 256.784,-741.564"/>
</g>
<!-- \\Karla\\Action\\Resample -->
<g id="node22" class="node"><title>\\Karla\\Action\\Resample</title>
<polygon fill="none" stroke="black" points="433,-584 363,-584 363,-548 433,-548 433,-584"/>
<text text-anchor="middle" x="398" y="-563.1" font-family="Courier,monospace" font-size="11.00">Resample</text>
</g>
<!-- \\Karla\\Action\\Resample&#45;&gt;\\Karla\\Action -->
<g id="edge41" class="edge"><title>\\Karla\\Action\\Resample&#45;&gt;\\Karla\\Action</title>
<path fill="none" stroke="black" stroke-dasharray="1,5" d="M362.256,-579.535C355.625,-583.186 349.17,-587.647 344,-593 296.474,-642.213 330.211,-686.529 280,-733 273.864,-738.679 266.141,-742.921 258.297,-746.08"/>
<polygon fill="none" stroke="black" points="257.048,-742.809 248.768,-749.42 259.363,-749.415 257.048,-742.809"/>
</g>
<!-- \\Karla\\Action\\Crop -->
<g id="node23" class="node"><title>\\Karla\\Action\\Crop</title>
<polygon fill="none" stroke="black" points="425,-530 371,-530 371,-494 425,-494 425,-530"/>
<text text-anchor="middle" x="398" y="-509.1" font-family="Courier,monospace" font-size="11.00">Crop</text>
</g>
<!-- \\Karla\\Action\\Crop&#45;&gt;\\Karla\\Action -->
<g id="edge43" class="edge"><title>\\Karla\\Action\\Crop&#45;&gt;\\Karla\\Action</title>
<path fill="none" stroke="black" stroke-dasharray="1,5" d="M370.757,-520.653C361.182,-524.867 351.061,-530.833 344,-539 284.619,-607.682 343.139,-667.756 280,-733 274.076,-739.122 266.308,-743.55 258.335,-746.751"/>
<polygon fill="none" stroke="black" points="256.946,-743.527 248.619,-750.077 259.213,-750.149 256.946,-743.527"/>
</g>
<!-- \\Karla\\Action\\Flatten -->
<g id="node24" class="node"><title>\\Karla\\Action\\Flatten</title>
<polygon fill="none" stroke="black" points="430,-476 366,-476 366,-440 430,-440 430,-476"/>
<text text-anchor="middle" x="398" y="-455.1" font-family="Courier,monospace" font-size="11.00">Flatten</text>
</g>
<!-- \\Karla\\Action\\Flatten&#45;&gt;\\Karla\\Action -->
<g id="edge45" class="edge"><title>\\Karla\\Action\\Flatten&#45;&gt;\\Karla\\Action</title>
<path fill="none" stroke="black" stroke-dasharray="1,5" d="M365.966,-468.493C357.806,-472.519 349.733,-477.908 344,-485 272.436,-573.524 356.416,-648.628 280,-733 274.165,-739.443 266.282,-744.002 258.151,-747.228"/>
<polygon fill="none" stroke="black" points="256.966,-743.934 248.6,-750.435 259.194,-750.57 256.966,-743.934"/>
</g>
<!-- \\Karla\\Action\\Type -->
<g id="node25" class="node"><title>\\Karla\\Action\\Type</title>
<polygon fill="none" stroke="black" points="425,-422 371,-422 371,-386 425,-386 425,-422"/>
<text text-anchor="middle" x="398" y="-401.1" font-family="Courier,monospace" font-size="11.00">Type</text>
</g>
<!-- \\Karla\\Action\\Type&#45;&gt;\\Karla\\Action -->
<g id="edge47" class="edge"><title>\\Karla\\Action\\Type&#45;&gt;\\Karla\\Action</title>
<path fill="none" stroke="black" stroke-dasharray="1,5" d="M370.826,-412.011C361.024,-416.185 350.73,-422.292 344,-431 260.097,-539.558 369.859,-629.317 280,-733 274.307,-739.569 266.48,-744.177 258.357,-747.41"/>
<polygon fill="none" stroke="black" points="257.169,-744.117 248.796,-750.609 259.39,-750.755 257.169,-744.117"/>
</g>
<!-- \\Karla\\Action\\Flop -->
<g id="node26" class="node"><title>\\Karla\\Action\\Flop</title>
<polygon fill="none" stroke="black" points="425,-368 371,-368 371,-332 425,-332 425,-368"/>
<text text-anchor="middle" x="398" y="-347.1" font-family="Courier,monospace" font-size="11.00">Flop</text>
</g>
<!-- \\Karla\\Action\\Flop&#45;&gt;\\Karla\\Action -->
<g id="edge49" class="edge"><title>\\Karla\\Action\\Flop&#45;&gt;\\Karla\\Action</title>
<path fill="none" stroke="black" stroke-dasharray="1,5" d="M370.965,-357.785C361.06,-361.947 350.657,-368.105 344,-377 247.672,-505.702 383.393,-609.901 280,-733 274.358,-739.717 266.479,-744.383 258.281,-747.625"/>
<polygon fill="none" stroke="black" points="257.025,-744.354 248.627,-750.814 259.221,-751.001 257.025,-744.354"/>
</g>
<!-- \\Karla\\Color -->
<g id="node27" class="node"><title>\\Karla\\Color</title>
<polygon fill="none" stroke="black" points="425,-314 371,-314 371,-278 425,-278 425,-314"/>
<text text-anchor="middle" x="398" y="-293.1" font-family="Courier,monospace" font-size="11.00">Color</text>
</g>
<!-- \\Karla\\Query -->
<g id="node28" class="node"><title>\\Karla\\Query</title>
<polygon fill="none" stroke="black" points="425,-260 371,-260 371,-224 425,-224 425,-260"/>
<text text-anchor="middle" x="398" y="-239.1" font-family="Courier,monospace" font-size="11.00">Query</text>
</g>
<!-- \\Karla\\MetaData -->
<g id="node29" class="node"><title>\\Karla\\MetaData</title>
<polygon fill="none" stroke="black" points="433,-206 363,-206 363,-170 433,-170 433,-206"/>
<text text-anchor="middle" x="398" y="-185.1" font-family="Courier,monospace" font-size="11.00">MetaData</text>
</g>
<!-- \\SplFileInfo -->
<g id="node58" class="node"><title>\\SplFileInfo</title>
<ellipse fill="none" stroke="black" cx="220" cy="-19" rx="58.8978" ry="19.0919"/>
<text text-anchor="middle" x="220" y="-15.9" font-family="Times Roman,serif" font-size="14.00" fill="gray">\SplFileInfo</text>
</g>
<!-- \\Karla\\MetaData&#45;&gt;\\SplFileInfo -->
<g id="edge51" class="edge"><title>\\Karla\\MetaData&#45;&gt;\\SplFileInfo</title>
<path fill="none" stroke="black" d="M362.361,-173.921C355.797,-170.331 349.34,-166.032 344,-161 302.556,-121.946 321.185,-89.3277 280,-50 275.763,-45.9539 270.894,-42.3062 265.801,-39.0556"/>
<polygon fill="none" stroke="black" points="267.49,-35.9886 257.091,-33.9596 263.955,-42.0305 267.49,-35.9886"/>
</g>
<!-- \\Karla\\Support -->
<g id="node30" class="node"><title>\\Karla\\Support</title>
<polygon fill="none" stroke="black" points="430,-152 366,-152 366,-116 430,-116 430,-152"/>
<text text-anchor="middle" x="398" y="-131.1" font-family="Courier,monospace" font-size="11.00">Support</text>
</g>
<!-- \\Karla\\Karla -->
<g id="node31" class="node"><title>\\Karla\\Karla</title>
<polygon fill="none" stroke="black" points="425,-98 371,-98 371,-62 425,-62 425,-98"/>
<text text-anchor="middle" x="398" y="-77.1" font-family="Courier,monospace" font-size="11.00">Karla</text>
</g>
</g>
</svg>
