<?xml version="1.0" encoding="UTF-8" standalone="no"?>
<!DOCTYPE svg PUBLIC "-//W3C//DTD SVG 1.1//EN"
 "http://www.w3.org/Graphics/SVG/1.1/DTD/svg11.dtd">
<!-- Generated by graphviz version 2.26.3 (20100126.1600)
 -->
<!-- Title: G Pages: 1 -->
<svg width="484pt" height="1770pt"
 viewBox="0.00 0.00 484.00 1770.00" xmlns="http://www.w3.org/2000/svg" xmlns:xlink="http://www.w3.org/1999/xlink">
<g id="graph1" class="graph" transform="scale(1 1) rotate(0) translate(4 1766)">
<title>G</title>
<polygon fill="white" stroke="white" points="-4,5 -4,-1766 481,-1766 481,5 -4,5"/>
<g id="graph2" class="cluster"><title>cluster_Global</title>
<polyline fill="none" stroke="gray" points="20,-44 456,-44 "/>
<path fill="none" stroke="gray" d="M456,-44C462,-44 468,-50 468,-56"/>
<polyline fill="none" stroke="gray" points="468,-56 468,-1742 "/>
<path fill="none" stroke="gray" d="M468,-1742C468,-1748 462,-1754 456,-1754"/>
<polyline fill="none" stroke="gray" points="456,-1754 20,-1754 "/>
<path fill="none" stroke="gray" d="M20,-1754C14,-1754 8,-1748 8,-1742"/>
<polyline fill="none" stroke="gray" points="8,-1742 8,-56 "/>
<path fill="none" stroke="gray" d="M8,-56C8,-50 14,-44 20,-44"/>
<text text-anchor="middle" x="238" y="-1740.1" font-family="Times Roman,serif" font-size="11.00" fill="gray">Global</text>
</g>
<g id="graph3" class="cluster"><title>cluster_\Karla</title>
<polyline fill="none" stroke="gray" points="28,-52 448,-52 "/>
<path fill="none" stroke="gray" d="M448,-52C454,-52 460,-58 460,-64"/>
<polyline fill="none" stroke="gray" points="460,-64 460,-1712 "/>
<path fill="none" stroke="gray" d="M460,-1712C460,-1718 454,-1724 448,-1724"/>
<polyline fill="none" stroke="gray" points="448,-1724 28,-1724 "/>
<path fill="none" stroke="gray" d="M28,-1724C22,-1724 16,-1718 16,-1712"/>
<polyline fill="none" stroke="gray" points="16,-1712 16,-64 "/>
<path fill="none" stroke="gray" d="M16,-64C16,-58 22,-52 28,-52"/>
<text text-anchor="middle" x="238" y="-1710.1" font-family="Times Roman,serif" font-size="11.00" fill="gray">Karla</text>
</g>
<g id="graph4" class="cluster"><title>cluster_\Karla\Action</title>
<polyline fill="none" stroke="gray" points="366,-594 440,-594 "/>
<path fill="none" stroke="gray" d="M440,-594C446,-594 452,-600 452,-606"/>
<polyline fill="none" stroke="gray" points="452,-606 452,-1682 "/>
<path fill="none" stroke="gray" d="M452,-1682C452,-1688 446,-1694 440,-1694"/>
<polyline fill="none" stroke="gray" points="440,-1694 366,-1694 "/>
<path fill="none" stroke="gray" d="M366,-1694C360,-1694 354,-1688 354,-1682"/>
<polyline fill="none" stroke="gray" points="354,-1682 354,-606 "/>
<path fill="none" stroke="gray" d="M354,-606C354,-600 360,-594 366,-594"/>
<text text-anchor="middle" x="403" y="-1680.1" font-family="Times Roman,serif" font-size="11.00" fill="gray">Action</text>
</g>
<g id="graph5" class="cluster"><title>cluster_\Karla\Cache</title>
<polyline fill="none" stroke="gray" points="380,-512 426,-512 "/>
<path fill="none" stroke="gray" d="M426,-512C432,-512 438,-518 438,-524"/>
<polyline fill="none" stroke="gray" points="438,-524 438,-574 "/>
<path fill="none" stroke="gray" d="M438,-574C438,-580 432,-586 426,-586"/>
<polyline fill="none" stroke="gray" points="426,-586 380,-586 "/>
<path fill="none" stroke="gray" d="M380,-586C374,-586 368,-580 368,-574"/>
<polyline fill="none" stroke="gray" points="368,-574 368,-524 "/>
<path fill="none" stroke="gray" d="M368,-524C368,-518 374,-512 380,-512"/>
<text text-anchor="middle" x="403" y="-572.1" font-family="Times Roman,serif" font-size="11.00" fill="gray">Cache</text>
</g>
<g id="graph6" class="cluster"><title>cluster_\Karla\Program</title>
<polyline fill="none" stroke="gray" points="184,-322 437,-322 "/>
<path fill="none" stroke="gray" d="M437,-322C443,-322 449,-328 449,-334"/>
<polyline fill="none" stroke="gray" points="449,-334 449,-492 "/>
<path fill="none" stroke="gray" d="M449,-492C449,-498 443,-504 437,-504"/>
<polyline fill="none" stroke="gray" points="437,-504 184,-504 "/>
<path fill="none" stroke="gray" d="M184,-504C178,-504 172,-498 172,-492"/>
<polyline fill="none" stroke="gray" points="172,-492 172,-334 "/>
<path fill="none" stroke="gray" d="M172,-334C172,-328 178,-322 184,-322"/>
<text text-anchor="middle" x="310.5" y="-490.1" font-family="Times Roman,serif" font-size="11.00" fill="gray">Program</text>
</g>
<!-- \\Karla\\Action\\Flatten -->
<g id="node4" class="node"><title>\\Karla\\Action\\Flatten</title>
<polygon fill="none" stroke="black" points="430,-1664 376,-1664 376,-1628 430,-1628 430,-1664"/>
<text text-anchor="middle" x="403" y="-1643.1" font-family="Times Roman,serif" font-size="11.00">Flatten</text>
</g>
<!-- \\Karla\\Action -->
<g id="node37" class="node"><title>\\Karla\\Action</title>
<polygon fill="none" stroke="black" points="252,-1151 198,-1151 198,-1115 252,-1115 252,-1151"/>
<text text-anchor="middle" x="225" y="-1130.1" font-family="Times Roman,serif" font-size="11.00">Action</text>
</g>
<!-- \\Karla\\Action\\Flatten&#45;&gt;\\Karla\\Action -->
<g id="edge9" class="edge"><title>\\Karla\\Action\\Flatten&#45;&gt;\\Karla\\Action</title>
<path fill="none" stroke="black" stroke-dasharray="1,5" d="M375.466,-1635.76C367.549,-1631.63 359.562,-1626.12 354,-1619 296.286,-1545.14 244.625,-1253.21 229.474,-1161.04"/>
<polygon fill="none" stroke="black" points="232.91,-1160.36 227.848,-1151.06 226.001,-1161.49 232.91,-1160.36"/>
</g>
<!-- \\Karla\\Action\\Gravity -->
<g id="node5" class="node"><title>\\Karla\\Action\\Gravity</title>
<polygon fill="none" stroke="black" points="431,-1610 375,-1610 375,-1574 431,-1574 431,-1610"/>
<text text-anchor="middle" x="403" y="-1589.1" font-family="Times Roman,serif" font-size="11.00">Gravity</text>
</g>
<!-- \\Karla\\Action\\Gravity&#45;&gt;\\Karla\\Action -->
<g id="edge11" class="edge"><title>\\Karla\\Action\\Gravity&#45;&gt;\\Karla\\Action</title>
<path fill="none" stroke="black" stroke-dasharray="1,5" d="M374.833,-1581.25C367.173,-1577.16 359.488,-1571.8 354,-1565 252.606,-1439.27 230.856,-1235.55 226.233,-1161.26"/>
<polygon fill="none" stroke="black" points="229.727,-1161.05 225.668,-1151.26 222.738,-1161.44 229.727,-1161.05"/>
</g>
<!-- \\Karla\\Action\\Layers -->
<g id="node6" class="node"><title>\\Karla\\Action\\Layers</title>
<polygon fill="none" stroke="black" points="430,-1556 376,-1556 376,-1520 430,-1520 430,-1556"/>
<text text-anchor="middle" x="403" y="-1535.1" font-family="Times Roman,serif" font-size="11.00">Layers</text>
</g>
<!-- \\Karla\\Action\\Layers&#45;&gt;\\Karla\\Action -->
<g id="edge13" class="edge"><title>\\Karla\\Action\\Layers&#45;&gt;\\Karla\\Action</title>
<path fill="none" stroke="black" stroke-dasharray="1,5" d="M375.763,-1527.52C367.86,-1523.38 359.806,-1517.92 354,-1511 263.658,-1403.31 235.504,-1229.15 227.698,-1161.32"/>
<polygon fill="none" stroke="black" points="231.137,-1160.57 226.576,-1151 224.178,-1161.32 231.137,-1160.57"/>
</g>
<!-- \\Karla\\Action\\Profile -->
<g id="node7" class="node"><title>\\Karla\\Action\\Profile</title>
<polygon fill="none" stroke="black" points="430,-1502 376,-1502 376,-1466 430,-1466 430,-1502"/>
<text text-anchor="middle" x="403" y="-1481.1" font-family="Times Roman,serif" font-size="11.00">Profile</text>
</g>
<!-- \\Karla\\Action\\Profile&#45;&gt;\\Karla\\Action -->
<g id="edge15" class="edge"><title>\\Karla\\Action\\Profile&#45;&gt;\\Karla\\Action</title>
<path fill="none" stroke="black" stroke-dasharray="1,5" d="M375.971,-1473.34C368.078,-1469.19 359.977,-1463.77 354,-1457 274.449,-1366.85 240.693,-1221.61 229.552,-1160.99"/>
<polygon fill="none" stroke="black" points="232.976,-1160.25 227.785,-1151.01 226.083,-1161.47 232.976,-1160.25"/>
</g>
<!-- \\Karla\\Action\\Polaroid -->
<g id="node8" class="node"><title>\\Karla\\Action\\Polaroid</title>
<polygon fill="none" stroke="black" points="432,-1448 374,-1448 374,-1412 432,-1412 432,-1448"/>
<text text-anchor="middle" x="403" y="-1427.1" font-family="Times Roman,serif" font-size="11.00">Polaroid</text>
</g>
<!-- \\Karla\\Action\\Polaroid&#45;&gt;\\Karla\\Action -->
<g id="edge17" class="edge"><title>\\Karla\\Action\\Polaroid&#45;&gt;\\Karla\\Action</title>
<path fill="none" stroke="black" stroke-dasharray="1,5" d="M373.438,-1417.56C366.458,-1413.64 359.466,-1408.79 354,-1403 285.307,-1330.21 246.947,-1214.06 232.168,-1161.04"/>
<polygon fill="none" stroke="black" points="235.524,-1160.04 229.525,-1151.31 228.769,-1161.88 235.524,-1160.04"/>
</g>
<!-- \\Karla\\Action\\Flip -->
<g id="node9" class="node"><title>\\Karla\\Action\\Flip</title>
<polygon fill="none" stroke="black" points="430,-1394 376,-1394 376,-1358 430,-1358 430,-1394"/>
<text text-anchor="middle" x="403" y="-1373.1" font-family="Times Roman,serif" font-size="11.00">Flip</text>
</g>
<!-- \\Karla\\Action\\Flip&#45;&gt;\\Karla\\Action -->
<g id="edge19" class="edge"><title>\\Karla\\Action\\Flip&#45;&gt;\\Karla\\Action</title>
<path fill="none" stroke="black" stroke-dasharray="1,5" d="M375.842,-1364.33C368.211,-1360.21 360.288,-1355.07 354,-1349 295.729,-1292.72 254.181,-1204.61 235.71,-1160.33"/>
<polygon fill="none" stroke="black" points="238.946,-1159 231.918,-1151.07 232.468,-1161.65 238.946,-1159"/>
</g>
<!-- \\Karla\\Action\\Flop -->
<g id="node10" class="node"><title>\\Karla\\Action\\Flop</title>
<polygon fill="none" stroke="black" points="430,-1340 376,-1340 376,-1304 430,-1304 430,-1340"/>
<text text-anchor="middle" x="403" y="-1319.1" font-family="Times Roman,serif" font-size="11.00">Flop</text>
</g>
<!-- \\Karla\\Action\\Flop&#45;&gt;\\Karla\\Action -->
<g id="edge21" class="edge"><title>\\Karla\\Action\\Flop&#45;&gt;\\Karla\\Action</title>
<path fill="none" stroke="black" stroke-dasharray="1,5" d="M375.829,-1309.5C368.363,-1305.43 360.532,-1300.51 354,-1295 306.205,-1254.66 263.8,-1194.34 241.529,-1159.82"/>
<polygon fill="none" stroke="black" points="244.375,-1157.78 236.052,-1151.22 238.47,-1161.54 244.375,-1157.78"/>
</g>
<!-- \\Karla\\Action\\Sepia -->
<g id="node11" class="node"><title>\\Karla\\Action\\Sepia</title>
<polygon fill="none" stroke="black" points="430,-1286 376,-1286 376,-1250 430,-1250 430,-1286"/>
<text text-anchor="middle" x="403" y="-1265.1" font-family="Times Roman,serif" font-size="11.00">Sepia</text>
</g>
<!-- \\Karla\\Action\\Sepia&#45;&gt;\\Karla\\Action -->
<g id="edge23" class="edge"><title>\\Karla\\Action\\Sepia&#45;&gt;\\Karla\\Action</title>
<path fill="none" stroke="black" stroke-dasharray="1,5" d="M375.993,-1254.34C368.684,-1250.31 360.893,-1245.72 354,-1241 316.594,-1215.39 277.129,-1181.14 251.851,-1158.13"/>
<polygon fill="none" stroke="black" points="253.899,-1155.26 244.162,-1151.09 249.169,-1160.42 253.899,-1155.26"/>
</g>
<!-- \\Karla\\Action\\Bordercolor -->
<g id="node12" class="node"><title>\\Karla\\Action\\Bordercolor</title>
<polygon fill="none" stroke="black" points="443,-1232 363,-1232 363,-1196 443,-1196 443,-1232"/>
<text text-anchor="middle" x="403" y="-1211.1" font-family="Times Roman,serif" font-size="11.00">Bordercolor</text>
</g>
<!-- \\Karla\\Action\\Bordercolor&#45;&gt;\\Karla\\Action -->
<g id="edge25" class="edge"><title>\\Karla\\Action\\Bordercolor&#45;&gt;\\Karla\\Action</title>
<path fill="none" stroke="black" stroke-dasharray="1,5" d="M363.053,-1195.82C332.531,-1181.93 290.816,-1162.95 261.251,-1149.5"/>
<polygon fill="none" stroke="black" points="262.66,-1146.29 252.108,-1145.34 259.761,-1152.66 262.66,-1146.29"/>
</g>
<!-- \\Karla\\Action\\Crop -->
<g id="node13" class="node"><title>\\Karla\\Action\\Crop</title>
<polygon fill="none" stroke="black" points="430,-1178 376,-1178 376,-1142 430,-1142 430,-1178"/>
<text text-anchor="middle" x="403" y="-1157.1" font-family="Times Roman,serif" font-size="11.00">Crop</text>
</g>
<!-- \\Karla\\Action\\Crop&#45;&gt;\\Karla\\Action -->
<g id="edge27" class="edge"><title>\\Karla\\Action\\Crop&#45;&gt;\\Karla\\Action</title>
<path fill="none" stroke="black" stroke-dasharray="1,5" d="M375.966,-1155.9C345.646,-1151.3 296.279,-1143.81 262.302,-1138.66"/>
<polygon fill="none" stroke="black" points="262.701,-1135.18 252.289,-1137.14 261.651,-1142.1 262.701,-1135.18"/>
</g>
<!-- \\Karla\\Action\\Rotate -->
<g id="node14" class="node"><title>\\Karla\\Action\\Rotate</title>
<polygon fill="none" stroke="black" points="430,-1124 376,-1124 376,-1088 430,-1088 430,-1124"/>
<text text-anchor="middle" x="403" y="-1103.1" font-family="Times Roman,serif" font-size="11.00">Rotate</text>
</g>
<!-- \\Karla\\Action\\Rotate&#45;&gt;\\Karla\\Action -->
<g id="edge29" class="edge"><title>\\Karla\\Action\\Rotate&#45;&gt;\\Karla\\Action</title>
<path fill="none" stroke="black" stroke-dasharray="1,5" d="M375.966,-1110.1C345.646,-1114.7 296.279,-1122.19 262.302,-1127.34"/>
<polygon fill="none" stroke="black" points="261.651,-1123.9 252.289,-1128.86 262.701,-1130.82 261.651,-1123.9"/>
</g>
<!-- \\Karla\\Action\\Colorspace -->
<g id="node15" class="node"><title>\\Karla\\Action\\Colorspace</title>
<polygon fill="none" stroke="black" points="441,-1070 365,-1070 365,-1034 441,-1034 441,-1070"/>
<text text-anchor="middle" x="403" y="-1049.1" font-family="Times Roman,serif" font-size="11.00">Colorspace</text>
</g>
<!-- \\Karla\\Action\\Colorspace&#45;&gt;\\Karla\\Action -->
<g id="edge31" class="edge"><title>\\Karla\\Action\\Colorspace&#45;&gt;\\Karla\\Action</title>
<path fill="none" stroke="black" stroke-dasharray="1,5" d="M364.377,-1069.58C333.838,-1083.47 291.499,-1102.74 261.519,-1116.38"/>
<polygon fill="none" stroke="black" points="259.903,-1113.27 252.251,-1120.6 262.802,-1119.64 259.903,-1113.27"/>
</g>
<!-- \\Karla\\Action\\Resample -->
<g id="node16" class="node"><title>\\Karla\\Action\\Resample</title>
<polygon fill="none" stroke="black" points="438,-1016 368,-1016 368,-980 438,-980 438,-1016"/>
<text text-anchor="middle" x="403" y="-995.1" font-family="Times Roman,serif" font-size="11.00">Resample</text>
</g>
<!-- \\Karla\\Action\\Resample&#45;&gt;\\Karla\\Action -->
<g id="edge33" class="edge"><title>\\Karla\\Action\\Resample&#45;&gt;\\Karla\\Action</title>
<path fill="none" stroke="black" stroke-dasharray="1,5" d="M368.226,-1016.06C363.358,-1018.91 358.488,-1021.93 354,-1025 316.594,-1050.61 277.129,-1084.86 251.851,-1107.87"/>
<polygon fill="none" stroke="black" points="249.169,-1105.58 244.162,-1114.91 253.899,-1110.74 249.169,-1105.58"/>
</g>
<!-- \\Karla\\Action\\Type -->
<g id="node17" class="node"><title>\\Karla\\Action\\Type</title>
<polygon fill="none" stroke="black" points="430,-962 376,-962 376,-926 430,-926 430,-962"/>
<text text-anchor="middle" x="403" y="-941.1" font-family="Times Roman,serif" font-size="11.00">Type</text>
</g>
<!-- \\Karla\\Action\\Type&#45;&gt;\\Karla\\Action -->
<g id="edge35" class="edge"><title>\\Karla\\Action\\Type&#45;&gt;\\Karla\\Action</title>
<path fill="none" stroke="black" stroke-dasharray="1,5" d="M375.829,-956.5C368.363,-960.574 360.532,-965.487 354,-971 306.205,-1011.34 263.8,-1071.66 241.529,-1106.18"/>
<polygon fill="none" stroke="black" points="238.47,-1104.46 236.052,-1114.78 244.375,-1108.22 238.47,-1104.46"/>
</g>
<!-- \\Karla\\Action\\Strip -->
<g id="node18" class="node"><title>\\Karla\\Action\\Strip</title>
<polygon fill="none" stroke="black" points="430,-908 376,-908 376,-872 430,-872 430,-908"/>
<text text-anchor="middle" x="403" y="-887.1" font-family="Times Roman,serif" font-size="11.00">Strip</text>
</g>
<!-- \\Karla\\Action\\Strip&#45;&gt;\\Karla\\Action -->
<g id="edge37" class="edge"><title>\\Karla\\Action\\Strip&#45;&gt;\\Karla\\Action</title>
<path fill="none" stroke="black" stroke-dasharray="1,5" d="M375.842,-901.675C368.211,-905.787 360.288,-910.927 354,-917 295.729,-973.28 254.181,-1061.39 235.71,-1105.67"/>
<polygon fill="none" stroke="black" points="232.468,-1104.35 231.918,-1114.93 238.946,-1107 232.468,-1104.35"/>
</g>
<!-- \\Karla\\Action\\Density -->
<g id="node19" class="node"><title>\\Karla\\Action\\Density</title>
<polygon fill="none" stroke="black" points="431,-854 375,-854 375,-818 431,-818 431,-854"/>
<text text-anchor="middle" x="403" y="-833.1" font-family="Times Roman,serif" font-size="11.00">Density</text>
</g>
<!-- \\Karla\\Action\\Density&#45;&gt;\\Karla\\Action -->
<g id="edge39" class="edge"><title>\\Karla\\Action\\Density&#45;&gt;\\Karla\\Action</title>
<path fill="none" stroke="black" stroke-dasharray="1,5" d="M374.459,-847.869C367.144,-851.884 359.733,-856.925 354,-863 285.307,-935.791 246.947,-1051.94 232.168,-1104.96"/>
<polygon fill="none" stroke="black" points="228.769,-1104.12 229.525,-1114.69 235.524,-1105.96 228.769,-1104.12"/>
</g>
<!-- \\Karla\\Action\\Resize -->
<g id="node20" class="node"><title>\\Karla\\Action\\Resize</title>
<polygon fill="none" stroke="black" points="430,-800 376,-800 376,-764 430,-764 430,-800"/>
<text text-anchor="middle" x="403" y="-779.1" font-family="Times Roman,serif" font-size="11.00">Resize</text>
</g>
<!-- \\Karla\\Action\\Resize&#45;&gt;\\Karla\\Action -->
<g id="edge41" class="edge"><title>\\Karla\\Action\\Resize&#45;&gt;\\Karla\\Action</title>
<path fill="none" stroke="black" stroke-dasharray="1,5" d="M375.971,-792.662C368.078,-796.812 359.977,-802.227 354,-809 274.449,-899.146 240.693,-1044.39 229.552,-1105.01"/>
<polygon fill="none" stroke="black" points="226.083,-1104.53 227.785,-1114.99 232.976,-1105.75 226.083,-1104.53"/>
</g>
<!-- \\Karla\\Action\\Background -->
<g id="node21" class="node"><title>\\Karla\\Action\\Background</title>
<polygon fill="none" stroke="black" points="443,-746 363,-746 363,-710 443,-710 443,-746"/>
<text text-anchor="middle" x="403" y="-725.1" font-family="Times Roman,serif" font-size="11.00">Background</text>
</g>
<!-- \\Karla\\Action\\Background&#45;&gt;\\Karla\\Action -->
<g id="edge43" class="edge"><title>\\Karla\\Action\\Background&#45;&gt;\\Karla\\Action</title>
<path fill="none" stroke="black" stroke-dasharray="1,5" d="M363.496,-746.145C359.997,-748.78 356.747,-751.726 354,-755 263.658,-862.689 235.504,-1036.85 227.698,-1104.68"/>
<polygon fill="none" stroke="black" points="224.178,-1104.68 226.576,-1115 231.137,-1105.43 224.178,-1104.68"/>
</g>
<!-- \\Karla\\Action\\Quality -->
<g id="node22" class="node"><title>\\Karla\\Action\\Quality</title>
<polygon fill="none" stroke="black" points="430,-692 376,-692 376,-656 430,-656 430,-692"/>
<text text-anchor="middle" x="403" y="-671.1" font-family="Times Roman,serif" font-size="11.00">Quality</text>
</g>
<!-- \\Karla\\Action\\Quality&#45;&gt;\\Karla\\Action -->
<g id="edge45" class="edge"><title>\\Karla\\Action\\Quality&#45;&gt;\\Karla\\Action</title>
<path fill="none" stroke="black" stroke-dasharray="1,5" d="M375.854,-684.214C367.861,-688.365 359.732,-693.893 354,-701 252.606,-826.725 230.856,-1030.45 226.233,-1104.74"/>
<polygon fill="none" stroke="black" points="222.738,-1104.56 225.668,-1114.74 229.727,-1104.95 222.738,-1104.56"/>
</g>
<!-- \\Karla\\Action\\Size -->
<g id="node23" class="node"><title>\\Karla\\Action\\Size</title>
<polygon fill="none" stroke="black" points="430,-638 376,-638 376,-602 430,-602 430,-638"/>
<text text-anchor="middle" x="403" y="-617.1" font-family="Times Roman,serif" font-size="11.00">Size</text>
</g>
<!-- \\Karla\\Action\\Size&#45;&gt;\\Karla\\Action -->
<g id="edge47" class="edge"><title>\\Karla\\Action\\Size&#45;&gt;\\Karla\\Action</title>
<path fill="none" stroke="black" stroke-dasharray="1,5" d="M375.977,-629.978C367.894,-634.137 359.681,-639.729 354,-647 296.286,-720.858 244.625,-1012.79 229.474,-1104.96"/>
<polygon fill="none" stroke="black" points="226.001,-1104.51 227.848,-1114.94 232.91,-1105.64 226.001,-1104.51"/>
</g>
<!-- \\Karla\\Cache\\File -->
<g id="node25" class="node"><title>\\Karla\\Cache\\File</title>
<polygon fill="none" stroke="black" points="430,-556 376,-556 376,-520 430,-520 430,-556"/>
<text text-anchor="middle" x="403" y="-535.1" font-family="Times Roman,serif" font-size="11.00">File</text>
</g>
<!-- \\Karla\\Cache -->
<g id="node38" class="node"><title>\\Karla\\Cache</title>
<polygon fill="none" stroke="black" points="252,-556 198,-556 198,-520 252,-520 252,-556"/>
<text text-anchor="middle" x="225" y="-535.1" font-family="Times Roman,serif" font-size="11.00">Cache</text>
</g>
<!-- \\Karla\\Cache\\File&#45;&gt;\\Karla\\Cache -->
<g id="edge49" class="edge"><title>\\Karla\\Cache\\File&#45;&gt;\\Karla\\Cache</title>
<path fill="none" stroke="black" stroke-dasharray="1,5" d="M375.966,-538C345.646,-538 296.279,-538 262.302,-538"/>
<polygon fill="none" stroke="black" points="262.289,-534.5 252.289,-538 262.289,-541.5 262.289,-534.5"/>
</g>
<!-- \\Karla\\Program\\Identify -->
<g id="node27" class="node"><title>\\Karla\\Program\\Identify</title>
<polygon fill="none" stroke="black" points="431,-420 375,-420 375,-384 431,-384 431,-420"/>
<text text-anchor="middle" x="403" y="-399.1" font-family="Times Roman,serif" font-size="11.00">Identify</text>
</g>
<!-- \\Karla\\Program\\ImageMagick -->
<g id="node29" class="node"><title>\\Karla\\Program\\ImageMagick</title>
<polygon fill="none" stroke="black" points="269,-424 181,-424 181,-388 269,-388 269,-424"/>
<text text-anchor="start" x="195" y="-411.433" font-family="Times Roman,serif" font-size="11.00">«abstract»</text>
<text text-anchor="start" x="189" y="-398.233" font-family="Times Roman,serif" font-size="11.00">ImageMagick</text>
</g>
<!-- \\Karla\\Program\\Identify&#45;&gt;\\Karla\\Program\\ImageMagick -->
<g id="edge51" class="edge"><title>\\Karla\\Program\\Identify&#45;&gt;\\Karla\\Program\\ImageMagick</title>
<path fill="none" stroke="black" d="M374.795,-402.634C349.43,-403.204 311.445,-404.057 280.074,-404.762"/>
<polygon fill="none" stroke="black" points="279.635,-401.271 269.716,-404.995 279.792,-408.27 279.635,-401.271"/>
</g>
<!-- \\Karla\\Program\\Convert -->
<g id="node28" class="node"><title>\\Karla\\Program\\Convert</title>
<polygon fill="none" stroke="black" points="432,-474 374,-474 374,-438 432,-438 432,-474"/>
<text text-anchor="middle" x="403" y="-453.1" font-family="Times Roman,serif" font-size="11.00">Convert</text>
</g>
<!-- \\Karla\\Program\\Convert&#45;&gt;\\Karla\\Program\\ImageMagick -->
<g id="edge53" class="edge"><title>\\Karla\\Program\\Convert&#45;&gt;\\Karla\\Program\\ImageMagick</title>
<path fill="none" stroke="black" d="M373.207,-447.631C347.666,-440.457 310.219,-429.938 279.357,-421.269"/>
<polygon fill="none" stroke="black" points="280.166,-417.861 269.592,-418.526 278.273,-424.6 280.166,-417.861"/>
</g>
<!-- \\Karla\\Program -->
<g id="node36" class="node"><title>\\Karla\\Program</title>
<polygon fill="none" stroke="black" points="88,-446 24,-446 24,-410 88,-410 88,-446"/>
<text text-anchor="middle" x="56" y="-425.1" font-family="Times Roman,serif" font-size="11.00">Program</text>
</g>
<!-- \\Karla\\Program\\Convert&#45;&gt;\\Karla\\Program -->
<g id="edge55" class="edge"><title>\\Karla\\Program\\Convert&#45;&gt;\\Karla\\Program</title>
<path fill="none" stroke="black" stroke-dasharray="1,5" d="M373.415,-453.613C311.837,-448.644 169.71,-437.175 98.4087,-431.422"/>
<polygon fill="none" stroke="black" points="98.2576,-427.899 88.0084,-430.583 97.6945,-434.876 98.2576,-427.899"/>
</g>
<!-- \\Karla\\Program\\ImageMagick&#45;&gt;\\Karla\\Program -->
<g id="edge57" class="edge"><title>\\Karla\\Program\\ImageMagick&#45;&gt;\\Karla\\Program</title>
<path fill="none" stroke="black" stroke-dasharray="1,5" d="M180.155,-411.838C154.828,-415.135 123.354,-419.232 98.4337,-422.476"/>
<polygon fill="none" stroke="black" points="97.6561,-419.048 88.1916,-423.809 98.5598,-425.989 97.6561,-419.048"/>
</g>
<!-- \\Karla\\Program\\Composite -->
<g id="node30" class="node"><title>\\Karla\\Program\\Composite</title>
<polygon fill="none" stroke="black" points="440,-366 366,-366 366,-330 440,-330 440,-366"/>
<text text-anchor="middle" x="403" y="-345.1" font-family="Times Roman,serif" font-size="11.00">Composite</text>
</g>
<!-- \\Karla\\Program\\Composite&#45;&gt;\\Karla\\Program\\ImageMagick -->
<g id="edge59" class="edge"><title>\\Karla\\Program\\Composite&#45;&gt;\\Karla\\Program\\ImageMagick</title>
<path fill="none" stroke="black" d="M365.251,-360.3C340.238,-368.451 307.032,-379.27 279.21,-388.336"/>
<polygon fill="none" stroke="black" points="278.039,-385.036 269.615,-391.462 280.208,-391.692 278.039,-385.036"/>
</g>
<!-- \\Karla\\MetaData -->
<g id="node31" class="node"><title>\\Karla\\MetaData</title>
<polygon fill="none" stroke="black" points="438,-312 368,-312 368,-276 438,-276 438,-312"/>
<text text-anchor="middle" x="403" y="-291.1" font-family="Times Roman,serif" font-size="11.00">MetaData</text>
</g>
<!-- \\SplFileInfo -->
<g id="node40" class="node"><title>\\SplFileInfo</title>
<ellipse fill="none" stroke="black" cx="225" cy="-18" rx="65.0538" ry="18.3848"/>
<text text-anchor="middle" x="225" y="-14.4" font-family="Times Roman,serif" font-size="14.00" fill="gray">\SplFileInfo</text>
</g>
<!-- \\Karla\\MetaData&#45;&gt;\\SplFileInfo -->
<g id="edge7" class="edge"><title>\\Karla\\MetaData&#45;&gt;\\SplFileInfo</title>
<path fill="none" stroke="black" d="M367.463,-277.77C362.598,-274.626 357.932,-271.034 354,-267 289.438,-200.762 249.655,-95.6991 233.431,-45.9191"/>
<polygon fill="none" stroke="black" points="236.695,-44.636 230.326,-36.1696 230.025,-46.7602 236.695,-44.636"/>
</g>
<!-- \\Karla\\Color -->
<g id="node32" class="node"><title>\\Karla\\Color</title>
<polygon fill="none" stroke="black" points="430,-258 376,-258 376,-222 430,-222 430,-258"/>
<text text-anchor="middle" x="403" y="-237.1" font-family="Times Roman,serif" font-size="11.00">Color</text>
</g>
<!-- \\Karla\\Query -->
<g id="node33" class="node"><title>\\Karla\\Query</title>
<polygon fill="none" stroke="black" points="430,-204 376,-204 376,-168 430,-168 430,-204"/>
<text text-anchor="middle" x="403" y="-183.1" font-family="Times Roman,serif" font-size="11.00">Query</text>
</g>
<!-- \\Karla\\Karla -->
<g id="node34" class="node"><title>\\Karla\\Karla</title>
<polygon fill="none" stroke="black" points="430,-150 376,-150 376,-114 430,-114 430,-150"/>
<text text-anchor="middle" x="403" y="-129.1" font-family="Times Roman,serif" font-size="11.00">Karla</text>
</g>
<!-- \\Karla\\Support -->
<g id="node35" class="node"><title>\\Karla\\Support</title>
<polygon fill="none" stroke="black" points="433,-96 373,-96 373,-60 433,-60 433,-96"/>
<text text-anchor="middle" x="403" y="-75.1" font-family="Times Roman,serif" font-size="11.00">Support</text>
</g>
</g>
</svg>
