<?xml version="1.0" encoding="UTF-8" standalone="no"?>
<!DOCTYPE svg PUBLIC "-//W3C//DTD SVG 1.1//EN"
 "http://www.w3.org/Graphics/SVG/1.1/DTD/svg11.dtd">
<!-- Generated by graphviz version 2.30.1 (20130302.0832)
 -->
<!-- Title: G Pages: 1 -->
<svg width="438pt" height="402pt"
 viewBox="0.00 0.00 438.00 402.00" xmlns="http://www.w3.org/2000/svg" xmlns:xlink="http://www.w3.org/1999/xlink">
<g id="graph0" class="graph" transform="scale(1 1) rotate(0) translate(4 398)">
<title>G</title>
<polygon fill="white" stroke="white" points="-4,5 -4,-398 435,-398 435,5 -4,5"/>
<g id="clust1" class="cluster"><title>cluster_global</title>
<path fill="none" stroke="gray" d="M20,-44C20,-44 410,-44 410,-44 416,-44 422,-50 422,-56 422,-56 422,-374 422,-374 422,-380 416,-386 410,-386 410,-386 20,-386 20,-386 14,-386 8,-380 8,-374 8,-374 8,-56 8,-56 8,-50 14,-44 20,-44"/>
<text text-anchor="middle" x="215" y="-373.2" font-family="Times,serif" font-size="11.00" fill="gray">global</text>
</g>
<!-- \\Cache -->
<g id="node1" class="node"><title>\\Cache</title>
<g id="a_node1"><a xlink:href="Karla.Cache.html" xlink:title="Cache" target="_parent">
<polygon fill="none" stroke="black" points="235,-196 181,-196 181,-160 235,-160 235,-196"/>
<text text-anchor="middle" x="208" y="-175.2" font-family="Courier,monospace" font-size="11.00">Cache</text>
</a>
</g>
</g>
<!-- \\Composite -->
<g id="node2" class="node"><title>\\Composite</title>
<g id="a_node2"><a xlink:href="Karla.Composite.html" xlink:title="Composite" target="_parent">
<polygon fill="none" stroke="black" points="413.5,-358 336.5,-358 336.5,-322 413.5,-322 413.5,-358"/>
<text text-anchor="middle" x="375" y="-337.2" font-family="Courier,monospace" font-size="11.00">Composite</text>
</a>
</g>
</g>
<!-- \\ImageMagick -->
<g id="node6" class="node"><title>\\ImageMagick</title>
<g id="a_node6"><a xlink:href="Karla.ImageMagick.html" xlink:title="«abstract»&lt;br/&gt;ImageMagick" target="_parent">
<polygon fill="none" stroke="black" points="254,-304 162,-304 162,-268 254,-268 254,-304"/>
<text text-anchor="start" x="174" y="-289.7" font-family="Courier,monospace" font-size="11.00">«abstract»</text>
<text text-anchor="start" x="170.5" y="-278.7" font-family="Courier,monospace" font-size="11.00">ImageMagick</text>
</a>
</g>
</g>
<!-- \\Composite&#45;&gt;\\ImageMagick -->
<g id="edge1" class="edge"><title>\\Composite&#45;&gt;\\ImageMagick</title>
<path fill="none" stroke="black" d="M336.146,-327.611C314.655,-320.578 287.38,-311.652 263.607,-303.871"/>
<polygon fill="none" stroke="black" points="264.597,-300.513 254.004,-300.729 262.42,-307.166 264.597,-300.513"/>
</g>
<!-- \\Convert -->
<g id="node3" class="node"><title>\\Convert</title>
<g id="a_node3"><a xlink:href="Karla.Convert.html" xlink:title="Convert" target="_parent">
<polygon fill="none" stroke="black" points="407,-304 343,-304 343,-268 407,-268 407,-304"/>
<text text-anchor="middle" x="375" y="-283.2" font-family="Courier,monospace" font-size="11.00">Convert</text>
</a>
</g>
</g>
<!-- \\Convert&#45;&gt;\\ImageMagick -->
<g id="edge2" class="edge"><title>\\Convert&#45;&gt;\\ImageMagick</title>
<path fill="none" stroke="black" d="M342.965,-286C320.878,-286 290.598,-286 264.413,-286"/>
<polygon fill="none" stroke="black" points="264.23,-282.5 254.23,-286 264.23,-289.5 264.23,-282.5"/>
</g>
<!-- \\FileCache -->
<g id="node4" class="node"><title>\\FileCache</title>
<g id="a_node4"><a xlink:href="Karla.FileCache.html" xlink:title="FileCache" target="_parent">
<polygon fill="none" stroke="black" points="413.5,-196 336.5,-196 336.5,-160 413.5,-160 413.5,-196"/>
<text text-anchor="middle" x="375" y="-175.2" font-family="Courier,monospace" font-size="11.00">FileCache</text>
</a>
</g>
</g>
<!-- \\FileCache&#45;&gt;\\Cache -->
<g id="edge5" class="edge"><title>\\FileCache&#45;&gt;\\Cache</title>
<path fill="none" stroke="black" stroke-dasharray="1,5" d="M336.146,-178C308.848,-178 272.217,-178 245.286,-178"/>
<polygon fill="none" stroke="black" points="245.118,-174.5 235.118,-178 245.118,-181.5 245.118,-174.5"/>
</g>
<!-- \\Identify -->
<g id="node5" class="node"><title>\\Identify</title>
<g id="a_node5"><a xlink:href="Karla.Identify.html" xlink:title="Identify" target="_parent">
<polygon fill="none" stroke="black" points="410.5,-250 339.5,-250 339.5,-214 410.5,-214 410.5,-250"/>
<text text-anchor="middle" x="375" y="-229.2" font-family="Courier,monospace" font-size="11.00">Identify</text>
</a>
</g>
</g>
<!-- \\Identify&#45;&gt;\\ImageMagick -->
<g id="edge3" class="edge"><title>\\Identify&#45;&gt;\\ImageMagick</title>
<path fill="none" stroke="black" d="M339.411,-243.32C317.553,-250.473 288.83,-259.874 263.905,-268.031"/>
<polygon fill="none" stroke="black" points="262.62,-264.769 254.205,-271.206 264.797,-271.422 262.62,-264.769"/>
</g>
<!-- \\Program -->
<g id="node8" class="node"><title>\\Program</title>
<g id="a_node8"><a xlink:href="Karla.Program.html" xlink:title="Program" target="_parent">
<polygon fill="none" stroke="black" points="80,-304 16,-304 16,-268 80,-268 80,-304"/>
<text text-anchor="middle" x="48" y="-283.2" font-family="Courier,monospace" font-size="11.00">Program</text>
</a>
</g>
</g>
<!-- \\ImageMagick&#45;&gt;\\Program -->
<g id="edge6" class="edge"><title>\\ImageMagick&#45;&gt;\\Program</title>
<path fill="none" stroke="black" stroke-dasharray="1,5" d="M161.724,-286C139.209,-286 112.196,-286 90.2584,-286"/>
<polygon fill="none" stroke="black" points="90.2556,-282.5 80.2555,-286 90.2555,-289.5 90.2556,-282.5"/>
</g>
<!-- \\MetaData -->
<g id="node7" class="node"><title>\\MetaData</title>
<g id="a_node7"><a xlink:href="Karla.MetaData.html" xlink:title="MetaData" target="_parent">
<polygon fill="none" stroke="black" points="410.5,-142 339.5,-142 339.5,-106 410.5,-106 410.5,-142"/>
<text text-anchor="middle" x="375" y="-121.2" font-family="Courier,monospace" font-size="11.00">MetaData</text>
</a>
</g>
</g>
<!-- \\SplFileInfo -->
<g id="node10" class="node"><title>\\SplFileInfo</title>
<ellipse fill="none" stroke="black" cx="208" cy="-18" rx="55.7903" ry="18"/>
<text text-anchor="middle" x="208" y="-14.3" font-family="Times,serif" font-size="14.00" fill="gray">\SplFileInfo</text>
</g>
<!-- \\MetaData&#45;&gt;\\SplFileInfo -->
<g id="edge4" class="edge"><title>\\MetaData&#45;&gt;\\SplFileInfo</title>
<path fill="none" stroke="black" d="M348.114,-105.879C344.035,-102.946 339.884,-99.9142 336,-97 303.354,-72.5052 299.316,-60.459 264,-40 261.328,-38.4518 258.525,-36.9641 255.66,-35.544"/>
<polygon fill="none" stroke="black" points="256.924,-32.2724 246.379,-31.2472 253.983,-38.6247 256.924,-32.2724"/>
</g>
<!-- \\Karla -->
<g id="node9" class="node"><title>\\Karla</title>
<g id="a_node9"><a xlink:href="Karla.html" xlink:title="Karla" target="_parent">
<polygon fill="none" stroke="black" points="402,-88 348,-88 348,-52 402,-52 402,-88"/>
<text text-anchor="middle" x="375" y="-67.2" font-family="Courier,monospace" font-size="11.00">Karla</text>
</a>
</g>
</g>
</g>
</svg>
