<?xml version="1.0" encoding="UTF-8" standalone="no"?>
<!DOCTYPE svg PUBLIC "-//W3C//DTD SVG 1.1//EN"
 "http://www.w3.org/Graphics/SVG/1.1/DTD/svg11.dtd">
<!-- Generated by graphviz version 2.26.3 (20100126.1600)
 -->
<!-- Title: G Pages: 1 -->
<svg width="454pt" height="467pt"
 viewBox="0.00 0.00 454.00 467.00" xmlns="http://www.w3.org/2000/svg" xmlns:xlink="http://www.w3.org/1999/xlink">
<g id="graph1" class="graph" transform="scale(1 1) rotate(0) translate(4 463)">
<title>G</title>
<polygon fill="white" stroke="white" points="-4,5 -4,-463 451,-463 451,5 -4,5"/>
<g id="graph2" class="cluster"><title>cluster_Karla</title>
<polyline fill="none" stroke="gray" points="20,-46 426,-46 "/>
<path fill="none" stroke="gray" d="M426,-46C432,-46 438,-52 438,-58"/>
<polyline fill="none" stroke="gray" points="438,-58 438,-439 "/>
<path fill="none" stroke="gray" d="M438,-439C438,-445 432,-451 426,-451"/>
<polyline fill="none" stroke="gray" points="426,-451 20,-451 "/>
<path fill="none" stroke="gray" d="M20,-451C14,-451 8,-445 8,-439"/>
<polyline fill="none" stroke="gray" points="8,-439 8,-58 "/>
<path fill="none" stroke="gray" d="M8,-58C8,-52 14,-46 20,-46"/>
<text text-anchor="middle" x="223" y="-437.1" font-family="Times Roman,serif" font-size="11.00" fill="gray">Karla</text>
</g>
<g id="graph3" class="cluster"><title>cluster_Karla\Cache</title>
<polyline fill="none" stroke="gray" points="360,-345 406,-345 "/>
<path fill="none" stroke="gray" d="M406,-345C412,-345 418,-351 418,-357"/>
<polyline fill="none" stroke="gray" points="418,-357 418,-408 "/>
<path fill="none" stroke="gray" d="M418,-408C418,-414 412,-420 406,-420"/>
<polyline fill="none" stroke="gray" points="406,-420 360,-420 "/>
<path fill="none" stroke="gray" d="M360,-420C354,-420 348,-414 348,-408"/>
<polyline fill="none" stroke="gray" points="348,-408 348,-357 "/>
<path fill="none" stroke="gray" d="M348,-357C348,-351 354,-345 360,-345"/>
<text text-anchor="middle" x="383" y="-406.1" font-family="Times Roman,serif" font-size="11.00" fill="gray">Cache</text>
</g>
<g id="graph4" class="cluster"><title>cluster_Karla\Program</title>
<polyline fill="none" stroke="gray" points="170,-154 418,-154 "/>
<path fill="none" stroke="gray" d="M418,-154C424,-154 430,-160 430,-166"/>
<polyline fill="none" stroke="gray" points="430,-166 430,-325 "/>
<path fill="none" stroke="gray" d="M430,-325C430,-331 424,-337 418,-337"/>
<polyline fill="none" stroke="gray" points="418,-337 170,-337 "/>
<path fill="none" stroke="gray" d="M170,-337C164,-337 158,-331 158,-325"/>
<polyline fill="none" stroke="gray" points="158,-325 158,-166 "/>
<path fill="none" stroke="gray" d="M158,-166C158,-160 164,-154 170,-154"/>
<text text-anchor="middle" x="294" y="-323.1" font-family="Times Roman,serif" font-size="11.00" fill="gray">Program</text>
</g>
<!-- \\Karla\\Cache\\File -->
<g id="node3" class="node"><title>\\Karla\\Cache\\File</title>
<a xlink:href="Cache.File.html" xlink:title="File" target="_parent">
<polygon fill="none" stroke="black" points="410,-389 356,-389 356,-353 410,-353 410,-389"/>
<text text-anchor="middle" x="383" y="-368.1" font-family="Courier,monospace" font-size="11.00">File</text>
</a>
</g>
<!-- \\Karla\\Cache -->
<g id="node10" class="node"><title>\\Karla\\Cache</title>
<a xlink:href="Cache.html" xlink:title="Cache" target="_parent">
<polygon fill="none" stroke="black" points="239,-389 185,-389 185,-353 239,-353 239,-389"/>
<text text-anchor="middle" x="212" y="-368.1" font-family="Courier,monospace" font-size="11.00">Cache</text>
</a>
</g>
<!-- \\Karla\\Cache\\File&#45;&gt;\\Karla\\Cache -->
<g id="edge15" class="edge"><title>\\Karla\\Cache\\File&#45;&gt;\\Karla\\Cache</title>
<path fill="none" stroke="black" stroke-dasharray="1,5" d="M355.905,-371C327.222,-371 281.741,-371 249.597,-371"/>
<polygon fill="none" stroke="black" points="249.251,-367.5 239.251,-371 249.251,-374.5 249.251,-367.5"/>
</g>
<!-- \\Karla\\Program\\Convert -->
<g id="node5" class="node"><title>\\Karla\\Program\\Convert</title>
<a xlink:href="Program.Convert.html" xlink:title="Convert" target="_parent">
<polygon fill="none" stroke="black" points="415,-306 351,-306 351,-270 415,-270 415,-306"/>
<text text-anchor="middle" x="383" y="-285.1" font-family="Courier,monospace" font-size="11.00">Convert</text>
</a>
</g>
<!-- \\Karla\\Program\\ImageMagick -->
<g id="node6" class="node"><title>\\Karla\\Program\\ImageMagick</title>
<a xlink:href="Program.ImageMagick.html" xlink:title="«abstract»&lt;br/&gt;ImageMagick" target="_parent">
<polygon fill="none" stroke="black" points="258,-252 166,-252 166,-216 258,-216 258,-252"/>
<text text-anchor="start" x="178" y="-239.433" font-family="Courier,monospace" font-size="11.00">«abstract»</text>
<text text-anchor="start" x="174.5" y="-226.233" font-family="Courier,monospace" font-size="11.00">ImageMagick</text>
</a>
</g>
<!-- \\Karla\\Program\\Convert&#45;&gt;\\Karla\\Program\\ImageMagick -->
<g id="edge5" class="edge"><title>\\Karla\\Program\\Convert&#45;&gt;\\Karla\\Program\\ImageMagick</title>
<path fill="none" stroke="black" d="M350.836,-277.843C327.572,-270.496 295.535,-260.379 268.098,-251.715"/>
<polygon fill="none" stroke="black" points="268.812,-248.27 258.222,-248.596 266.704,-254.945 268.812,-248.27"/>
</g>
<!-- \\Karla\\Program -->
<g id="node9" class="node"><title>\\Karla\\Program</title>
<a xlink:href="Program.html" xlink:title="Program" target="_parent">
<polygon fill="none" stroke="black" points="80,-252 16,-252 16,-216 80,-216 80,-252"/>
<text text-anchor="middle" x="48" y="-231.1" font-family="Courier,monospace" font-size="11.00">Program</text>
</a>
</g>
<!-- \\Karla\\Program\\ImageMagick&#45;&gt;\\Karla\\Program -->
<g id="edge13" class="edge"><title>\\Karla\\Program\\ImageMagick&#45;&gt;\\Karla\\Program</title>
<path fill="none" stroke="black" stroke-dasharray="1,5" d="M165.88,-234C142.137,-234 113.394,-234 90.2345,-234"/>
<polygon fill="none" stroke="black" points="90.0247,-230.5 80.0247,-234 90.0246,-237.5 90.0247,-230.5"/>
</g>
<!-- \\Karla\\Program\\Composite -->
<g id="node7" class="node"><title>\\Karla\\Program\\Composite</title>
<a xlink:href="Program.Composite.html" xlink:title="Composite" target="_parent">
<polygon fill="none" stroke="black" points="421,-252 345,-252 345,-216 421,-216 421,-252"/>
<text text-anchor="middle" x="383" y="-231.1" font-family="Courier,monospace" font-size="11.00">Composite</text>
</a>
</g>
<!-- \\Karla\\Program\\Composite&#45;&gt;\\Karla\\Program\\ImageMagick -->
<g id="edge7" class="edge"><title>\\Karla\\Program\\Composite&#45;&gt;\\Karla\\Program\\ImageMagick</title>
<path fill="none" stroke="black" d="M344.197,-234C321.766,-234 293.149,-234 268.281,-234"/>
<polygon fill="none" stroke="black" points="268.242,-230.5 258.242,-234 268.242,-237.5 268.242,-230.5"/>
</g>
<!-- \\Karla\\Program\\Identify -->
<g id="node8" class="node"><title>\\Karla\\Program\\Identify</title>
<a xlink:href="Program.Identify.html" xlink:title="Identify" target="_parent">
<polygon fill="none" stroke="black" points="418,-198 348,-198 348,-162 418,-162 418,-198"/>
<text text-anchor="middle" x="383" y="-177.1" font-family="Courier,monospace" font-size="11.00">Identify</text>
</a>
</g>
<!-- \\Karla\\Program\\Identify&#45;&gt;\\Karla\\Program\\ImageMagick -->
<g id="edge9" class="edge"><title>\\Karla\\Program\\Identify&#45;&gt;\\Karla\\Program\\ImageMagick</title>
<path fill="none" stroke="black" d="M347.153,-191.32C324.227,-198.56 294.012,-208.101 267.966,-216.327"/>
<polygon fill="none" stroke="black" points="266.694,-213.058 258.212,-219.407 268.801,-219.733 266.694,-213.058"/>
</g>
<!-- \\Karla\\Karla -->
<g id="node11" class="node"><title>\\Karla\\Karla</title>
<a xlink:href="Karla.html" xlink:title="Karla" target="_parent">
<polygon fill="none" stroke="black" points="410,-144 356,-144 356,-108 410,-108 410,-144"/>
<text text-anchor="middle" x="383" y="-123.1" font-family="Courier,monospace" font-size="11.00">Karla</text>
</a>
</g>
<!-- \\Karla\\MetaData -->
<g id="node12" class="node"><title>\\Karla\\MetaData</title>
<a xlink:href="MetaData.html" xlink:title="MetaData" target="_parent">
<polygon fill="none" stroke="black" points="418,-90 348,-90 348,-54 418,-54 418,-90"/>
<text text-anchor="middle" x="383" y="-69.1" font-family="Courier,monospace" font-size="11.00">MetaData</text>
</a>
</g>
<!-- \\SplFileInfo -->
<g id="node17" class="node"><title>\\SplFileInfo</title>
<ellipse fill="none" stroke="black" cx="212" cy="-19" rx="58.8978" ry="19.0919"/>
<text text-anchor="middle" x="212" y="-15.9" font-family="Times Roman,serif" font-size="14.00" fill="gray">\SplFileInfo</text>
</g>
<!-- \\Karla\\MetaData&#45;&gt;\\SplFileInfo -->
<g id="edge11" class="edge"><title>\\Karla\\MetaData&#45;&gt;\\SplFileInfo</title>
<path fill="none" stroke="black" d="M347.153,-60.8895C323.166,-53.4551 291.201,-43.5477 264.38,-35.2346"/>
<polygon fill="none" stroke="black" points="265.343,-31.869 254.755,-32.2516 263.271,-38.5552 265.343,-31.869"/>
</g>
</g>
</svg>
