<?xml version="1.0" encoding="UTF-8" standalone="no"?>
<!DOCTYPE svg PUBLIC "-//W3C//DTD SVG 1.1//EN"
 "http://www.w3.org/Graphics/SVG/1.1/DTD/svg11.dtd">
<!-- Generated by graphviz version 2.26.3 (20100126.1600)
 -->
<!-- Title: G Pages: 1 -->
<svg width="446pt" height="407pt"
 viewBox="0.00 0.00 446.00 407.00" xmlns="http://www.w3.org/2000/svg" xmlns:xlink="http://www.w3.org/1999/xlink">
<g id="graph1" class="graph" transform="scale(1 1) rotate(0) translate(4 403)">
<title>G</title>
<polygon fill="white" stroke="white" points="-4,5 -4,-403 443,-403 443,5 -4,5"/>
<g id="graph2" class="cluster"><title>cluster_global</title>
<polyline fill="none" stroke="gray" points="20,-46 418,-46 "/>
<path fill="none" stroke="gray" d="M418,-46C424,-46 430,-52 430,-58"/>
<polyline fill="none" stroke="gray" points="430,-58 430,-379 "/>
<path fill="none" stroke="gray" d="M430,-379C430,-385 424,-391 418,-391"/>
<polyline fill="none" stroke="gray" points="418,-391 20,-391 "/>
<path fill="none" stroke="gray" d="M20,-391C14,-391 8,-385 8,-379"/>
<polyline fill="none" stroke="gray" points="8,-379 8,-58 "/>
<path fill="none" stroke="gray" d="M8,-58C8,-52 14,-46 20,-46"/>
<text text-anchor="middle" x="219" y="-377.1" font-family="Times Roman,serif" font-size="11.00" fill="gray">global</text>
</g>
<!-- \\Karla -->
<g id="node2" class="node"><title>\\Karla</title>
<a xlink:href="Karla.html" xlink:title="Karla" target="_parent">
<polygon fill="none" stroke="black" points="410,-360 356,-360 356,-324 410,-324 410,-360"/>
<text text-anchor="middle" x="383" y="-339.1" font-family="Courier,monospace" font-size="11.00">Karla</text>
</a>
</g>
<!-- \\ImageMagick -->
<g id="node3" class="node"><title>\\ImageMagick</title>
<a xlink:href="Karla.ImageMagick.html" xlink:title="«abstract»&lt;br/&gt;ImageMagick" target="_parent">
<polygon fill="none" stroke="black" points="258,-198 166,-198 166,-162 258,-162 258,-198"/>
<text text-anchor="start" x="178" y="-185.433" font-family="Courier,monospace" font-size="11.00">«abstract»</text>
<text text-anchor="start" x="174.5" y="-172.233" font-family="Courier,monospace" font-size="11.00">ImageMagick</text>
</a>
</g>
<!-- \\Program -->
<g id="node4" class="node"><title>\\Program</title>
<a xlink:href="Karla.Program.html" xlink:title="Program" target="_parent">
<polygon fill="none" stroke="black" points="80,-198 16,-198 16,-162 80,-162 80,-198"/>
<text text-anchor="middle" x="48" y="-177.1" font-family="Courier,monospace" font-size="11.00">Program</text>
</a>
</g>
<!-- \\ImageMagick&#45;&gt;\\Program -->
<g id="edge11" class="edge"><title>\\ImageMagick&#45;&gt;\\Program</title>
<path fill="none" stroke="black" stroke-dasharray="1,5" d="M165.88,-180C142.137,-180 113.394,-180 90.2345,-180"/>
<polygon fill="none" stroke="black" points="90.0247,-176.5 80.0247,-180 90.0246,-183.5 90.0247,-176.5"/>
</g>
<!-- \\FileCache -->
<g id="node5" class="node"><title>\\FileCache</title>
<a xlink:href="Karla.FileCache.html" xlink:title="FileCache" target="_parent">
<polygon fill="none" stroke="black" points="421,-306 345,-306 345,-270 421,-270 421,-306"/>
<text text-anchor="middle" x="383" y="-285.1" font-family="Courier,monospace" font-size="11.00">FileCache</text>
</a>
</g>
<!-- \\Cache -->
<g id="node7" class="node"><title>\\Cache</title>
<a xlink:href="Karla.Cache.html" xlink:title="Cache" target="_parent">
<polygon fill="none" stroke="black" points="239,-306 185,-306 185,-270 239,-270 239,-306"/>
<text text-anchor="middle" x="212" y="-285.1" font-family="Courier,monospace" font-size="11.00">Cache</text>
</a>
</g>
<!-- \\FileCache&#45;&gt;\\Cache -->
<g id="edge13" class="edge"><title>\\FileCache&#45;&gt;\\Cache</title>
<path fill="none" stroke="black" stroke-dasharray="1,5" d="M344.197,-288C315.8,-288 277.489,-288 249.42,-288"/>
<polygon fill="none" stroke="black" points="249.206,-284.5 239.206,-288 249.206,-291.5 249.206,-284.5"/>
</g>
<!-- \\Convert -->
<g id="node6" class="node"><title>\\Convert</title>
<a xlink:href="Karla.Convert.html" xlink:title="Convert" target="_parent">
<polygon fill="none" stroke="black" points="415,-252 351,-252 351,-216 415,-216 415,-252"/>
<text text-anchor="middle" x="383" y="-231.1" font-family="Courier,monospace" font-size="11.00">Convert</text>
</a>
</g>
<!-- \\Convert&#45;&gt;\\ImageMagick -->
<g id="edge3" class="edge"><title>\\Convert&#45;&gt;\\ImageMagick</title>
<path fill="none" stroke="black" d="M350.836,-223.843C327.572,-216.496 295.535,-206.379 268.098,-197.715"/>
<polygon fill="none" stroke="black" points="268.812,-194.27 258.222,-194.596 266.704,-200.945 268.812,-194.27"/>
</g>
<!-- \\Identify -->
<g id="node8" class="node"><title>\\Identify</title>
<a xlink:href="Karla.Identify.html" xlink:title="Identify" target="_parent">
<polygon fill="none" stroke="black" points="418,-198 348,-198 348,-162 418,-162 418,-198"/>
<text text-anchor="middle" x="383" y="-177.1" font-family="Courier,monospace" font-size="11.00">Identify</text>
</a>
</g>
<!-- \\Identify&#45;&gt;\\ImageMagick -->
<g id="edge5" class="edge"><title>\\Identify&#45;&gt;\\ImageMagick</title>
<path fill="none" stroke="black" d="M347.153,-180C324.328,-180 294.278,-180 268.311,-180"/>
<polygon fill="none" stroke="black" points="268.212,-176.5 258.212,-180 268.212,-183.5 268.212,-176.5"/>
</g>
<!-- \\MetaData -->
<g id="node9" class="node"><title>\\MetaData</title>
<a xlink:href="Karla.MetaData.html" xlink:title="MetaData" target="_parent">
<polygon fill="none" stroke="black" points="418,-90 348,-90 348,-54 418,-54 418,-90"/>
<text text-anchor="middle" x="383" y="-69.1" font-family="Courier,monospace" font-size="11.00">MetaData</text>
</a>
</g>
<!-- \\SplFileInfo -->
<g id="node14" class="node"><title>\\SplFileInfo</title>
<ellipse fill="none" stroke="black" cx="212" cy="-19" rx="58.8978" ry="19.0919"/>
<text text-anchor="middle" x="212" y="-15.9" font-family="Times Roman,serif" font-size="14.00" fill="gray">\SplFileInfo</text>
</g>
<!-- \\MetaData&#45;&gt;\\SplFileInfo -->
<g id="edge7" class="edge"><title>\\MetaData&#45;&gt;\\SplFileInfo</title>
<path fill="none" stroke="black" d="M347.153,-60.8895C323.166,-53.4551 291.201,-43.5477 264.38,-35.2346"/>
<polygon fill="none" stroke="black" points="265.343,-31.869 254.755,-32.2516 263.271,-38.5552 265.343,-31.869"/>
</g>
<!-- \\Composite -->
<g id="node10" class="node"><title>\\Composite</title>
<a xlink:href="Karla.Composite.html" xlink:title="Composite" target="_parent">
<polygon fill="none" stroke="black" points="421,-144 345,-144 345,-108 421,-108 421,-144"/>
<text text-anchor="middle" x="383" y="-123.1" font-family="Courier,monospace" font-size="11.00">Composite</text>
</a>
</g>
<!-- \\Composite&#45;&gt;\\ImageMagick -->
<g id="edge9" class="edge"><title>\\Composite&#45;&gt;\\ImageMagick</title>
<path fill="none" stroke="black" d="M344.197,-138.253C321.667,-145.368 292.895,-154.454 267.95,-162.332"/>
<polygon fill="none" stroke="black" points="266.723,-159.048 258.242,-165.397 268.831,-165.724 266.723,-159.048"/>
</g>
</g>
</svg>
